<?xml version="1.0" standalone="no"?>
<!DOCTYPE svg PUBLIC "-//W3C//DTD SVG 1.1//EN" "http://www.w3.org/Graphics/SVG/1.1/DTD/svg11.dtd" >
<svg xmlns="http://www.w3.org/2000/svg" xmlns:xlink="http://www.w3.org/1999/xlink" version="1.1">
<metadata>
Created by FontForge 20141024 at Sun Mar 29 08:58:02 2015
 By System Administrator
Copyright(c) Founder Corporation.1999
</metadata>
<defs>
<font id="FZYXFW--GB1-0" horiz-adv-x="256" vert-adv-y="256" >
  <font-face 
    font-family="FZYouXian-Z09T"
    font-weight="400"
    font-stretch="normal"
    units-per-em="256"
    panose-1="3 0 5 9 0 0 0 0 0 0"
    ascent="204"
    descent="-52"
    x-height="135"
    cap-height="178"
    bbox="-3 -63 256.022 226"
    underline-thickness="12"
    underline-position="-45"
    unicode-range="U+0020-FFE5"
  />
<missing-glyph 
 />
    <glyph glyph-name=".notdef" 
 />
    <glyph glyph-name="space" unicode=" " horiz-adv-x="115" 
 />
    <glyph glyph-name="exclam" unicode="!" horiz-adv-x="72" 
d="M49 184l-4 -126h-10l-4 126h18zM22 14q1 15 17 17q15 -2 17 -17q-2 -14 -17 -16q-16 1 -17 16z" />
    <glyph glyph-name="quotedbl" unicode="&#x22;" horiz-adv-x="75" 
d="M8 184h24v-28l-7 -35h-10l-7 35v28zM48 184h24v-28l-6 -35h-11l-7 35v28z" />
    <glyph glyph-name="numbersign" unicode="#" horiz-adv-x="154" 
d="M71 206h11l-41 -229h-12l16 84h-34l2 11h34l7 41h-34l2 11h34zM87 -23h-11l42 229h11l-15 -82h35l-3 -11h-34l-7 -41h34l-2 -11h-34z" />
    <glyph glyph-name="dollar" unicode="$" horiz-adv-x="120" 
d="M106 155l-7 -9q-16 13 -29 15v-59q38 -14 38 -46q-1 -17 -10 -27q-11 -11 -28 -13v-22h-12v22q-24 1 -41 19l8 9q17 -17 33 -17v66q-36 11 -36 41q1 31 36 37v19h12v-19q19 -2 36 -16zM58 105v56q-24 -7 -24 -28q1 -19 24 -28zM70 91v-64q23 2 26 29q-1 22 -26 35z" />
    <glyph glyph-name="percent" unicode="%" horiz-adv-x="137" 
d="M113 188h11l-95 -188h-10zM16 142q3 43 37 46q24 -1 25 -27q-1 -15 -7 -27q-12 -20 -30 -20q-25 0 -25 28zM28 140q-1 -19 13 -18q22 1 26 41q-1 16 -14 17q-22 -2 -25 -40zM65 24q3 44 36 47q24 -1 25 -27q-1 -15 -7 -27q-11 -17 -30 -18q-24 1 -24 25zM76 22
q0 -17 14 -17q21 1 25 41q-1 16 -14 17q-23 -2 -25 -41z" />
    <glyph glyph-name="ampersand" unicode="&#x26;" horiz-adv-x="133" 
d="M93 29l-40 61q-28 -31 -26 -53q0 -30 28 -30q25 0 38 22zM61 100l37 -59q2 8 3 20q1 9 1 30h13q-2 -40 -10 -60l22 -26l-8 -7l-20 22q-17 -21 -43 -22q-41 2 -42 38q-1 25 28 61l4 4q-1 1 -2 3q-17 27 -16 44q0 19 10 30q8 9 23 10q26 -3 29 -34q1 -23 -29 -54zM59 178
q-17 -2 -18 -27q-1 -20 14 -41q2 4 7 10q18 25 15 35q-2 21 -18 23z" />
    <glyph glyph-name="quotesingle" unicode="'" horiz-adv-x="39" 
d="M10 184h24v-28l-7 -35h-10l-7 35v28z" />
    <glyph glyph-name="parenleft" unicode="(" horiz-adv-x="80" 
d="M69 -8l-6 -8q-25 16 -38 50q-9 26 -9 52q-1 33 14 64q10 24 33 40l6 -8q-17 -12 -29 -36q-13 -25 -12 -60q0 -23 6 -44q10 -35 35 -50z" />
    <glyph glyph-name="parenright" unicode=")" horiz-adv-x="80" 
d="M16 182l6 8q22 -16 36 -46q10 -25 11 -58q-1 -31 -10 -56q-12 -29 -37 -46l-6 8q21 12 34 45q7 23 7 49q0 33 -9 55q-13 27 -32 41z" />
    <glyph glyph-name="asterisk" unicode="*" horiz-adv-x="134" 
d="M64 184h11v-50l49 14l3 -11l-50 -14l32 -40l-9 -7l-30 39l-30 -39l-9 7l31 40l-49 14l3 11l48 -14v50z" />
    <glyph glyph-name="plus" unicode="+" horiz-adv-x="165" 
d="M153 98v-11h-62v-63h-11v63h-63v11h63v62h11v-62h62z" />
    <glyph glyph-name="comma" unicode="," horiz-adv-x="60" 
d="M9 -26v10q16 7 20 15h-5q-15 1 -15 14q1 14 17 16q16 -2 18 -21q-3 -23 -35 -34z" />
    <glyph glyph-name="hyphen" unicode="-" horiz-adv-x="165" 
d="M153 98v-11h-136v11h136z" />
    <glyph glyph-name="period" unicode="." horiz-adv-x="76" 
d="M24 14q1 15 17 17q15 -2 17 -17q-2 -14 -17 -16q-16 1 -17 16z" />
    <glyph glyph-name="slash" unicode="/" horiz-adv-x="73" 
d="M7 -5h-10l74 196h12z" />
    <glyph glyph-name="zero" unicode="0" horiz-adv-x="124" 
d="M116 92q-1 -20 -2 -35q-2 -14 -4 -24q-13 -34 -45 -35q-32 1 -44 33q-4 10 -6 25t-1 36q0 38 6 59q12 36 45 37q31 -1 44 -35q7 -22 7 -61zM104 92q0 16 -2 29q-1 14 -3 24q-11 32 -34 33q-26 -1 -35 -36q-4 -20 -4 -50q0 -34 5 -53q10 -33 34 -33q25 0 35 36q1 9 2 22
t2 28z" />
    <glyph glyph-name="one" unicode="1" horiz-adv-x="165" 
d="M83 190v-180h34v-10h-81v10h35v165l-37 -12v11z" />
    <glyph glyph-name="two" unicode="2" horiz-adv-x="127" 
d="M28 10h86v-10h-98q-1 30 8 47q8 16 37 42q42 32 41 57q-2 30 -32 32q-34 -2 -37 -40h-12q5 48 49 50q42 -2 44 -43q1 -29 -41 -61q-49 -41 -45 -74z" />
    <glyph glyph-name="three" unicode="3" horiz-adv-x="129" 
d="M59 94v11q38 3 41 39q-3 30 -35 34q-25 -1 -39 -26l-10 6q17 29 50 30q41 -5 46 -46q-2 -28 -30 -41q37 -14 38 -50q-1 -25 -15 -38t-39 -14q-34 0 -53 30l11 6q13 -28 41 -28q41 1 43 42q-2 43 -49 45z" />
    <glyph glyph-name="four" unicode="4" horiz-adv-x="138" 
d="M101 188v-128h26v-11h-26v-49h-12v49h-75v9l68 130h19zM89 60v119h-1l-61 -119h62z" />
    <glyph glyph-name="five" unicode="5" horiz-adv-x="124" 
d="M103 184v-10h-66l-6 -80q12 18 36 19q45 -4 48 -57q-1 -23 -12 -38q-13 -18 -40 -19q-27 1 -45 26l9 7q14 -25 38 -25q35 3 38 48q-2 43 -36 48q-20 -1 -34 -21l-14 3l7 99h77z" />
    <glyph glyph-name="six" unicode="6" horiz-adv-x="124" 
d="M103 59q-3 44 -36 46q-38 -7 -40 -51q3 -45 36 -47q37 1 40 52zM112 178l-6 -10q-11 9 -25 10q-26 -1 -42 -31q-14 -28 -13 -60q17 28 44 28q41 -3 45 -56q-4 -59 -52 -60q-49 1 -49 79q0 48 16 75q19 34 51 35q17 -1 31 -10z" />
    <glyph glyph-name="seven" unicode="7" horiz-adv-x="130" 
d="M19 184h97l-71 -184h-13l69 174h-82v10z" />
    <glyph glyph-name="eight" unicode="8" horiz-adv-x="133" 
d="M25 49q1 -40 44 -42q43 1 45 42q-3 39 -45 42q-42 -3 -44 -42zM107 140q-2 36 -38 38q-37 -2 -38 -40q1 -36 38 -37q36 1 38 39zM45 96q-25 12 -26 44q2 45 50 48q47 -3 50 -48q-2 -33 -26 -44q32 -12 33 -47q-1 -23 -13 -36q-15 -14 -44 -14q-55 1 -56 50q0 35 32 47z
" />
    <glyph glyph-name="nine" unicode="9" horiz-adv-x="122" 
d="M16 6l6 10q12 -9 25 -9q26 0 43 34q13 28 12 57q-17 -30 -44 -29q-42 2 -45 56q3 60 52 63q26 -1 40 -29q4 -10 6 -23q2 -14 3 -30q0 -39 -12 -67q-19 -39 -55 -40q-17 0 -31 7zM25 125q2 -45 36 -46q15 0 29 17q11 14 11 34q-3 45 -36 48q-38 -2 -40 -53z" />
    <glyph glyph-name="colon" unicode=":" horiz-adv-x="76" 
d="M24 14q1 15 17 17q15 -2 17 -17q-2 -14 -17 -16q-16 1 -17 16zM24 103q1 16 17 18q15 -2 17 -18q-2 -16 -17 -17q-16 1 -17 17z" />
    <glyph glyph-name="semicolon" unicode=";" horiz-adv-x="60" 
d="M9 -26v10q16 7 20 15h-5q-15 1 -15 14q1 14 17 16q16 -2 18 -21q-1 -11 -10 -20q-11 -10 -25 -14zM9 103q1 16 17 18q15 -2 17 -18q-2 -16 -17 -17q-16 1 -17 17z" />
    <glyph glyph-name="less" unicode="&#x3c;" horiz-adv-x="132" 
d="M17 92l97 92l7 -8l-87 -84l87 -84l-7 -8z" />
    <glyph glyph-name="equal" unicode="=" horiz-adv-x="165" 
d="M153 115v-11h-136v11h136zM153 81v-12h-136v12h136z" />
    <glyph glyph-name="greater" unicode="&#x3e;" horiz-adv-x="132" 
d="M24 184l97 -92l-97 -92l-7 8l87 84l-87 84z" />
    <glyph glyph-name="question" unicode="?" horiz-adv-x="108" 
d="M61 57h-12v25q-1 7 2 14t20 19q16 13 16 30q-2 31 -32 33q-28 -2 -30 -29h-13q4 37 43 39q20 -1 31 -11q12 -12 13 -33q1 -24 -23 -39q-19 -11 -15 -32v-16zM40 14q1 15 17 17q16 -2 18 -17q-2 -14 -18 -16q-16 2 -17 16z" />
    <glyph glyph-name="at" unicode="@" horiz-adv-x="178" 
d="M147 28l4 -11q-32 -18 -65 -19q-68 4 -70 78q0 47 26 82q23 29 55 30q66 -7 71 -77q-5 -61 -40 -63q-17 0 -22 15q-12 -15 -27 -15q-21 1 -22 23q1 26 15 45q12 14 44 15h8l-7 -40q-6 -34 12 -32q23 2 27 50q-3 61 -57 69q-27 -1 -46 -23q-24 -31 -25 -78q1 -67 60 -70
q27 -1 59 21zM108 103l3 17q-16 -1 -25 -8q-15 -15 -17 -40q1 -14 11 -14q19 0 28 45z" />
    <glyph glyph-name="A" unicode="A" horiz-adv-x="129" 
d="M67 192l62 -192h-14l-16 56h-63l-17 -56h-13zM67 159l-29 -93h58z" />
    <glyph glyph-name="B" unicode="B" horiz-adv-x="129" 
d="M33 10h39q34 3 36 38q-4 40 -43 43h-32v-81zM74 0h-53v184h45q43 -3 46 -45q-1 -29 -30 -41q37 -12 38 -49q-1 -18 -7 -27q-14 -22 -39 -22zM33 101h19q46 1 48 39q0 34 -39 34h-28v-73z" />
    <glyph glyph-name="C" unicode="C" horiz-adv-x="128" 
d="M115 150h-12q-4 26 -31 28q-46 -1 -46 -87q-1 -85 45 -84q31 2 34 33h13q-6 -40 -48 -42q-31 0 -45 27q-11 23 -11 65q-1 50 15 75q16 22 43 23q37 -3 43 -38z" />
    <glyph glyph-name="D" unicode="D" horiz-adv-x="131" 
d="M21 0v184h46q29 -1 44 -26q10 -21 11 -66q-1 -48 -14 -72q-15 -20 -45 -20h-42zM33 174v-164h23q36 -2 46 24q8 18 8 58q0 41 -9 60q-11 23 -45 22h-23z" />
    <glyph glyph-name="E" unicode="E" horiz-adv-x="132" 
d="M113 184v-10h-78v-74h56v-10h-56v-80h80v-10h-92v184h90z" />
    <glyph glyph-name="F" unicode="F" horiz-adv-x="125" 
d="M114 184v-10h-82v-73h62v-10h-62v-91h-12v184h94z" />
    <glyph glyph-name="G" unicode="G" horiz-adv-x="132" 
d="M110 79h-45v10h57v-91h-12v28h-1q-11 -26 -43 -28q-34 0 -45 33q-4 10 -6 23t-1 32q-1 54 13 77q13 25 42 25q39 -2 44 -46h-12q-3 34 -31 36q-24 -1 -34 -23q-11 -22 -10 -64q0 -35 7 -56q9 -28 34 -28q42 2 43 57v15z" />
    <glyph glyph-name="H" unicode="H" horiz-adv-x="134" 
d="M33 184v-83h73v83h12v-184h-12v91h-73v-91h-12v184h12z" />
    <glyph glyph-name="I" unicode="I" horiz-adv-x="100" 
d="M84 184v-10h-25v-164h25v-10h-63v10h26v164h-26v10h63z" />
    <glyph glyph-name="J" unicode="J" horiz-adv-x="119" 
d="M55 184h47v-126q1 -61 -50 -60q-47 -1 -46 58v19h12v-26q-1 -44 34 -42q37 0 38 42v125h-35v10z" />
    <glyph glyph-name="K" unicode="K" horiz-adv-x="128" 
d="M33 184v-84q19 -1 44 36q16 23 26 49l13 -7q-3 -5 -9 -14q-7 -12 -13 -23q-23 -36 -44 -47l79 -94h-17l-73 90h-6v-90h-12v184h12z" />
    <glyph glyph-name="L" unicode="L" horiz-adv-x="123" 
d="M35 184v-174h81v-10h-93v184h12z" />
    <glyph glyph-name="M" unicode="M" horiz-adv-x="149" 
d="M77 83l42 101h14v-184h-12v160h-1l-43 -102l-42 102l-1 -1v-159h-12v184h13z" />
    <glyph glyph-name="N" unicode="N" horiz-adv-x="131" 
d="M102 0l-67 168l-1 -1v-167h-12v184h17l63 -158l1 1v157h12v-184h-13z" />
    <glyph glyph-name="O" unicode="O" horiz-adv-x="131" 
d="M68 -2q-27 0 -40 19q-8 10 -11 29q-4 19 -3 46q-1 48 11 70q13 26 43 26q30 -1 43 -26q5 -12 8 -29q3 -16 3 -41q0 -42 -8 -61q-12 -33 -46 -33zM26 92q-1 -44 11 -64q9 -21 31 -21q25 -1 35 29q6 19 7 56q-1 22 -4 39t-8 29q-10 17 -30 18q-20 0 -31 -20
q-12 -21 -11 -66z" />
    <glyph glyph-name="P" unicode="P" horiz-adv-x="123" 
d="M23 0v184h42q48 -1 50 -55q-1 -26 -14 -39q-16 -15 -43 -15h-23v-75h-12zM65 174h-30v-89h22q44 0 45 44q-1 44 -37 45z" />
    <glyph glyph-name="Q" unicode="Q" horiz-adv-x="132" 
d="M103 11l21 -25h-15l-15 18q-11 -5 -26 -6q-34 0 -45 31q-5 11 -7 26q-3 16 -2 37q-1 44 11 67q12 29 43 29q29 0 43 -25q12 -22 12 -71q0 -31 -4 -46q-6 -25 -16 -35zM26 92q-2 -86 42 -85q43 0 42 85q0 88 -42 86q-45 0 -42 -86z" />
    <glyph glyph-name="R" unicode="R" horiz-adv-x="129" 
d="M21 0v184h44q47 -2 49 -50q0 -19 -9 -32q-9 -14 -27 -20l50 -82h-15l-46 80h-34v-80h-12zM33 174v-84h30q36 3 38 45q-2 38 -36 39h-32z" />
    <glyph glyph-name="S" unicode="S" horiz-adv-x="126" 
d="M113 167l-7 -9q-24 20 -40 20q-33 -3 -35 -33q-2 -19 29 -37l16 -9q45 -26 42 -51q-3 -48 -52 -50q-32 1 -52 26l9 7q17 -24 43 -24q36 3 39 38q6 20 -36 44l-17 10q-34 19 -33 45q2 41 47 44q25 -1 47 -21z" />
    <glyph glyph-name="T" unicode="T" horiz-adv-x="134" 
d="M129 184v-10h-53v-174h-12v174h-53v10h118z" />
    <glyph glyph-name="U" unicode="U" horiz-adv-x="133" 
d="M105 184h13v-137q-1 -24 -15 -37q-15 -11 -34 -12q-17 1 -30 9q-18 14 -18 38v139h12v-130q-1 -26 12 -39q10 -9 24 -8q16 -1 26 10q10 10 10 32v135z" />
    <glyph glyph-name="V" unicode="V" horiz-adv-x="111" 
d="M59 8l36 176h14l-40 -184h-20l-42 184h15z" />
    <glyph glyph-name="W" unicode="W" horiz-adv-x="121" 
d="M63 122l32 -102h1l10 164h15l-15 -184h-16l-27 91l-26 -91h-17l-14 184h14l11 -164z" />
    <glyph glyph-name="X" unicode="X" horiz-adv-x="105" 
d="M7 184h14l35 -79l34 79h14l-42 -91l44 -93h-15l-36 82l-35 -82h-15l45 93z" />
    <glyph glyph-name="Y" unicode="Y" horiz-adv-x="107" 
d="M56 92l39 92h14l-47 -106v-78h-12v78l-46 106h14z" />
    <glyph glyph-name="Z" unicode="Z" horiz-adv-x="125" 
d="M17 184h91v-10l-79 -164h85v-10h-100v10l80 164h-77v10z" />
    <glyph glyph-name="bracketleft" unicode="[" horiz-adv-x="105" 
d="M21 190h69v-10h-57v-190h57v-11h-69v211z" />
    <glyph glyph-name="backslash" unicode="\" horiz-adv-x="73" 
d="M71 -5l-73 196h9l76 -196h-12z" />
    <glyph glyph-name="bracketright" unicode="]" horiz-adv-x="105" 
d="M89 190v-211h-68v11h56v190h-56v10h68z" />
    <glyph glyph-name="asciicircum" unicode="^" horiz-adv-x="69" 
d="M37 173l-36 -27l-4 6l40 37l42 -37l-6 -6z" />
    <glyph glyph-name="underscore" unicode="_" horiz-adv-x="158" 
d="M159 -30h-154v13h154v-13z" />
    <glyph glyph-name="grave" unicode="`" horiz-adv-x="62" 
d="M8 188l41 -33l-6 -8l-43 30z" />
    <glyph glyph-name="a" unicode="a" horiz-adv-x="118" 
d="M86 35v35q-17 7 -29 8q-31 -2 -32 -39q2 -31 26 -32q19 -1 35 28zM104 0l-11 -1q-3 5 -5 19v2q-17 -21 -37 -21t-30 13q-8 11 -8 28q0 21 12 35q9 12 29 13q14 -1 33 -9q2 51 -28 49q-15 0 -32 -9l-3 11q19 8 36 8q39 -2 39 -47q-1 -10 -1 -28q-1 -19 -1 -28q0 -20 7 -35
z" />
    <glyph glyph-name="b" unicode="b" horiz-adv-x="132" 
d="M26 190h12v-63q14 10 33 11q52 -7 54 -69q-1 -30 -11 -46q-16 -23 -42 -24q-26 1 -36 20l-5 -20l-11 1q6 18 6 48v142zM38 115v-80q12 -29 34 -28q19 1 32 21q8 16 9 40q-1 56 -45 60q-14 0 -30 -13z" />
    <glyph glyph-name="c" unicode="c" horiz-adv-x="116" 
d="M106 29l8 -9q-19 -21 -44 -21q-56 2 -57 67q-1 39 20 58q14 13 36 14q27 -1 46 -27l-11 -7q-13 23 -35 24q-44 -3 -44 -60q1 -58 44 -61q18 0 37 22z" />
    <glyph glyph-name="d" unicode="d" horiz-adv-x="132" 
d="M112 190v-142q-1 -30 6 -48l-12 -1l-4 20q-13 -19 -36 -20q-25 1 -39 19q-14 19 -14 51q1 62 53 69q18 -1 34 -11v63h12zM100 35v80q-17 13 -31 13q-44 -4 -44 -60q1 -57 41 -61q22 0 34 28z" />
    <glyph glyph-name="e" unicode="e" horiz-adv-x="128" 
d="M111 21l5 -12q-29 -10 -49 -10q-52 1 -54 68q0 30 15 52q13 18 40 19q49 -3 50 -72h-93q2 -60 43 -59q20 0 43 14zM25 76h81q-3 48 -39 52q-39 -4 -42 -52z" />
    <glyph glyph-name="f" unicode="f" horiz-adv-x="116" 
d="M116 179v-12q-7 2 -11 4q-13 7 -21 7q-26 -1 -28 -28v-24h45v-10h-45v-116h-12v116h-35v10h35v16q1 20 9 32q11 13 30 14q14 -1 33 -9z" />
    <glyph glyph-name="g" unicode="g" horiz-adv-x="130" 
d="M22 -23l8 7q13 -14 33 -15q34 3 35 43v17q-16 -16 -38 -17q-44 2 -47 60q2 64 50 66q17 0 37 -15l3 15h12q-6 -21 -6 -62q1 -6 1 -9v-57q0 -22 -15 -37q-13 -13 -34 -14q-23 2 -39 18zM98 43v65q-14 19 -36 20q-35 -2 -37 -53q1 -48 36 -53q22 1 37 21z" />
    <glyph glyph-name="h" unicode="h" horiz-adv-x="124" 
d="M20 0v190h12v-84h1q15 31 45 32q30 -4 32 -39v-99h-12v85q-1 42 -22 43q-17 -1 -30 -17q-14 -18 -14 -43v-68h-12z" />
    <glyph glyph-name="i" unicode="i" horiz-adv-x="100" 
d="M63 0v125h-39v10h51v-135h-12zM69 188q11 -2 13 -13q-2 -13 -13 -14q-13 1 -14 14q1 11 14 13z" />
    <glyph glyph-name="j" unicode="j" horiz-adv-x="113" 
d="M9 7h12q-1 -38 27 -38q27 2 29 29v127h-40v10h52v-135q-4 -37 -40 -41q-19 0 -30 13q-10 13 -10 35zM82 188q11 -2 13 -13q-2 -13 -13 -14q-13 1 -14 14q1 11 14 13z" />
    <glyph glyph-name="k" unicode="k" horiz-adv-x="113" 
d="M88 135h16q-9 -10 -14 -17q-24 -29 -28 -31q-3 -4 -12 -13l65 -74h-16l-56 67l-13 -13v-54h-12v190h12v-121q15 13 29 30q14 14 29 36z" />
    <glyph glyph-name="l" unicode="l" horiz-adv-x="93" 
d="M63 0v180h-39v10h52v-190h-13z" />
    <glyph glyph-name="m" unicode="m" horiz-adv-x="160" 
d="M26 0v94q-1 11 -1 22q-1 10 -3 22h12l3 -17q13 16 32 17q14 0 21 -16q12 16 28 16q25 -1 26 -28v-110h-12v109q0 19 -16 19q-14 0 -25 -17v-111h-12v104q1 24 -14 24q-18 -2 -27 -20v-108h-12z" />
    <glyph glyph-name="n" unicode="n" horiz-adv-x="131" 
d="M37 56v-56h-12v68q0 26 -1 39q-2 16 -4 30h11l5 -39h1q13 36 48 40q30 -1 31 -41v-97h-12v91q1 37 -21 37q-23 -2 -36 -26q-10 -17 -10 -46z" />
    <glyph glyph-name="o" unicode="o" horiz-adv-x="124" 
d="M65 -1q-30 1 -43 25q-9 18 -9 44q0 30 12 49q15 20 40 21q50 -4 52 -70q-2 -68 -52 -69zM65 7q39 0 40 61q-1 59 -40 60q-40 -1 -40 -60q0 -61 40 -61z" />
    <glyph glyph-name="p" unicode="p" horiz-adv-x="132" 
d="M26 -52v140q0 29 -6 49l11 1l5 -22q11 21 36 22q23 -1 39 -20q14 -21 14 -51q0 -29 -14 -48q-15 -19 -40 -20q-21 1 -33 10v-61h-12zM38 101v-80q15 -15 30 -14q43 3 45 61q-2 55 -41 60q-22 0 -34 -27z" />
    <glyph glyph-name="q" unicode="q" horiz-adv-x="132" 
d="M112 -52h-12v61q-16 -10 -34 -10q-25 1 -40 20q-13 16 -13 48q0 30 14 52q14 18 39 19q23 -1 35 -22h1l4 22l12 -1q-7 -20 -6 -49v-140zM100 21v80q-13 27 -34 27q-40 -5 -41 -60q1 -57 44 -61q15 -1 31 14z" />
    <glyph glyph-name="r" unicode="r" horiz-adv-x="113" 
d="M37 55v-55h-12v94l-5 43h11l5 -38q19 39 46 39q28 -1 29 -41h-12q0 31 -18 31q-15 -2 -29 -19q-15 -23 -15 -54z" />
    <glyph glyph-name="s" unicode="s" horiz-adv-x="105" 
d="M96 124l-5 -10q-20 14 -37 14q-25 -3 -27 -25q0 -18 30 -27q44 -15 43 -43q-1 -18 -15 -28q-11 -6 -26 -6q-28 1 -51 20l7 10q22 -22 45 -22q26 1 28 25q1 21 -32 33q-43 13 -41 39q3 30 40 34q20 0 41 -14z" />
    <glyph glyph-name="t" unicode="t" horiz-adv-x="118" 
d="M100 135v-10h-49v-92q0 -26 21 -26q19 0 32 24l11 -2q-15 -29 -43 -30q-19 0 -26 11q-8 9 -7 30v85h-31v10h31v44h12v-44h49z" />
    <glyph glyph-name="u" unicode="u" horiz-adv-x="131" 
d="M99 81v54h12v-66q-1 -21 1 -38q1 -17 4 -31h-11l-5 38h-1q-14 -37 -48 -39q-31 1 -31 41v95h12v-89q-1 -40 21 -39q19 0 34 22q11 20 12 52z" />
    <glyph glyph-name="v" unicode="v" horiz-adv-x="107" 
d="M93 135h13l-43 -135h-14l-43 135h13l37 -119z" />
    <glyph glyph-name="w" unicode="w" horiz-adv-x="131" 
d="M29 0l-24 135h14l18 -117h1l24 83h13l24 -83l19 117h13l-24 -135h-13l-26 86l-26 -86h-13z" />
    <glyph glyph-name="x" unicode="x" horiz-adv-x="125" 
d="M113 135l-41 -62l52 -73h-16l-43 65l-43 -65h-16l53 73l-43 62h14l35 -53l34 53h14z" />
    <glyph glyph-name="y" unicode="y" horiz-adv-x="131" 
d="M116 135h14l-50 -128q-2 -3 -3 -6q-7 -16 -13 -25q-12 -17 -27 -17q-23 2 -31 26l10 5q7 -20 21 -21q14 0 24 25l11 22l-44 119h13l37 -104z" />
    <glyph glyph-name="z" unicode="z" horiz-adv-x="125" 
d="M24 135h87v-10l-84 -115h87v-10h-102v10l84 115h-72v10z" />
    <glyph glyph-name="braceleft" unicode="{" horiz-adv-x="88" 
d="M43 50v-40q-1 -27 26 -30l-1 -1q-23 2 -31 10q-7 9 -6 26v38q2 26 -20 30v1q22 3 20 29v42q0 16 6 25q6 8 31 10l1 -1q-28 -3 -26 -32v-42q2 -28 -21 -31v-1q23 -4 21 -33z" />
    <glyph glyph-name="bar" unicode="|" horiz-adv-x="41" 
d="M18 -62v254h11v-254h-11z" />
    <glyph glyph-name="braceright" unicode="}" horiz-adv-x="88" 
d="M50 117v40q1 30 -25 32v1q25 0 32 -12q5 -9 5 -25v-39q-3 -26 20 -30q-23 -5 -20 -30v-41q0 -15 -6 -23q-9 -10 -31 -11v1q26 3 25 31v41q-3 27 21 32q-24 4 -21 33z" />
    <glyph glyph-name="asciitilde" unicode="~" horiz-adv-x="185" 
d="M156 113l8 -6q-16 -29 -38 -29q-8 0 -31 9q-4 1 -5 2q-21 8 -25 8q-18 0 -31 -26l-8 6q17 31 37 31q13 -1 33 -9q12 -6 18 -8q7 -3 12 -2q17 1 30 24z" />
    <glyph glyph-name="currency" unicode="&#xa4;" 
d="M82 130l-28 27l8 8l28 -27q16 12 38 13q21 -1 38 -13l28 27l8 -8l-28 -27q13 -18 13 -38q0 -21 -13 -37l28 -28l-8 -8l-28 28q-17 -14 -38 -14q-22 0 -38 14l-28 -28l-8 8l28 28q-14 16 -13 37q-1 20 13 38zM128 43q45 3 49 49q-4 45 -49 49q-46 -4 -49 -49q3 -46 49 -49
z" />
    <glyph glyph-name="section" unicode="&#xa7;" 
d="M154 89l-48 37q-14 -6 -14 -21q-1 -9 10 -18l48 -38q13 5 14 21q0 7 -9 17q-1 1 -1 2zM132 48l-15 12q-2 0 -5 3q-33 21 -32 40q0 18 20 29q-10 9 -10 22q1 32 37 34q40 -2 40 -40h-12q0 29 -27 30q-26 -2 -26 -22q0 -14 19 -28q2 -1 3 -1l15 -12l4 -4q33 -21 33 -39
q-1 -18 -20 -29q9 -10 10 -22q-2 -30 -37 -32q-41 2 -40 38h12q-2 -27 27 -28q25 1 26 20q0 12 -18 25z" />
    <glyph glyph-name="dieresis" unicode="&#xa8;" 
d="M90 167q1 12 14 14q13 -2 15 -14q-2 -13 -15 -14q-13 1 -14 14zM137 167q1 13 14 14q13 -2 15 -14q-2 -13 -15 -14q-13 1 -14 14z" />
    <glyph glyph-name="degree" unicode="&#xb0;" 
d="M27 141q4 44 50 49q44 -5 49 -49q-5 -46 -49 -50q-46 4 -50 50zM38 141q3 -36 39 -39q34 3 38 39q-4 34 -38 38q-36 -4 -39 -38z" />
    <glyph glyph-name="plusminus" unicode="&#xb1;" 
d="M196 110v-11h-62v-63h-12v63h-62v11h62v62h12v-62h62zM196 23v-11h-136v11h136z" />
    <glyph glyph-name="periodcentered" unicode="&#xb7;" 
d="M128 117q23 -3 26 -26q-3 -23 -26 -25q-25 1 -26 25q2 23 26 26z" />
    <glyph glyph-name="multiply" unicode="&#xd7;" 
d="M196 32l-8 -8l-60 60l-60 -60l-8 8l60 60l-60 60l8 8l60 -60l60 60l8 -8l-60 -60z" />
    <glyph glyph-name="agrave" unicode="&#xe0;" 
d="M174 138v-90q-1 -30 6 -48l-11 -1l-5 20q-11 -19 -36 -20q-25 1 -38 18q-15 18 -14 52q0 34 18 54q14 14 35 15q18 -1 33 -11v11h12zM162 35v80q-16 12 -30 13q-44 -4 -44 -60q1 -56 40 -61q22 0 34 28zM116 187l41 -33l-6 -8l-44 31z" />
    <glyph glyph-name="aacute" unicode="&#xe1;" 
d="M174 138v-90q-1 -30 6 -48l-11 -1l-5 20q-11 -19 -36 -20q-25 1 -39 20q-13 16 -13 50q0 35 16 52q14 16 37 17q18 -1 33 -11v11h12zM162 35v80q-16 12 -30 13q-44 -4 -44 -60q1 -56 40 -61q22 0 34 28zM121 146l-9 11l44 30l6 -7z" />
    <glyph glyph-name="egrave" unicode="&#xe8;" 
d="M106 188l41 -33l-6 -8l-44 30zM173 21l5 -12q-28 -10 -48 -10q-30 0 -44 23q-10 18 -10 45q3 68 55 71q47 -4 49 -72h-92q2 -60 42 -59q20 -1 43 14zM88 76h80q-3 48 -39 52q-38 -5 -41 -52z" />
    <glyph glyph-name="eacute" unicode="&#xe9;" 
d="M173 21l5 -12q-28 -10 -48 -10q-24 1 -37 13q-17 19 -17 55q3 68 55 71q47 -4 49 -72h-92q2 -60 42 -59q20 -1 43 14zM88 76h80q-3 48 -39 52q-38 -5 -41 -52zM122 147l-9 11l44 30l6 -8z" />
    <glyph glyph-name="ecircumflex" unicode="&#xea;" 
d="M127 173l-35 -27l-6 6l41 37l42 -37l-6 -6zM173 21l5 -12q-28 -10 -48 -10q-26 0 -39 16q-15 17 -15 52q3 68 55 71q47 -4 49 -72h-92q2 -60 42 -59q20 -1 43 14zM88 76h80q-3 48 -39 52q-38 -5 -41 -52z" />
    <glyph glyph-name="igrave" unicode="&#xec;" 
d="M118 188l41 -33l-6 -8l-44 30zM136 0v125h-39v10h51v-135h-12z" />
    <glyph glyph-name="iacute" unicode="&#xed;" 
d="M133 0v125h-39v10h51v-135h-12zM121 147l-9 11l44 30l6 -8z" />
    <glyph glyph-name="ograve" unicode="&#xf2;" 
d="M106 188l41 -33l-5 -8l-45 30zM128 -1q-30 1 -43 25q-9 17 -9 44q1 67 52 70q50 -4 52 -70q0 -25 -9 -44q-14 -24 -43 -25zM128 7q39 0 40 61q-1 59 -40 60q-40 -1 -40 -60q0 -61 40 -61z" />
    <glyph glyph-name="oacute" unicode="&#xf3;" 
d="M128 -1q-27 1 -41 21q-12 17 -11 48q1 67 52 70q50 -4 52 -70q0 -30 -12 -48q-13 -20 -40 -21zM128 7q39 0 40 61q-1 59 -40 60q-40 -1 -40 -60q0 -61 40 -61zM123 147l-10 11l45 30l6 -8z" />
    <glyph glyph-name="divide" unicode="&#xf7;" 
d="M196 98v-11h-136v11h136zM139 52q-1 -10 -11 -11q-10 1 -11 11q0 10 11 11q10 -1 11 -11zM139 132q-1 -10 -11 -11q-10 1 -11 11q1 10 11 11q10 -1 11 -11z" />
    <glyph glyph-name="ugrave" unicode="&#xf9;" 
d="M101 188l41 -33l-6 -8l-45 30zM159 81v54h12v-66q-1 -21 1 -38q1 -17 4 -31h-11l-5 38h-1q-14 -37 -48 -39q-31 1 -31 41v95h12v-89q-1 -40 21 -39q19 0 33 22q12 17 13 52z" />
    <glyph glyph-name="uacute" unicode="&#xfa;" 
d="M159 81v54h12v-66q-1 -21 1 -38q1 -17 4 -31h-11l-5 38h-1q-14 -37 -48 -39q-31 1 -31 41v95h12v-89q-1 -40 21 -39q18 0 34 23q11 20 12 51zM118 147l-9 11l44 30l6 -8z" />
    <glyph glyph-name="udieresis" unicode="&#xfc;" 
d="M87 167q1 13 14 14q13 -1 14 -14q-1 -13 -14 -14q-13 1 -14 14zM134 167q1 13 14 14q13 -1 14 -14q-1 -13 -14 -14q-13 1 -14 14zM159 81v54h12v-66q-1 -21 1 -38q1 -17 4 -31h-11l-5 38h-1q-14 -37 -48 -39q-31 1 -31 41v95h12v-89q-1 -40 21 -39t36 27q9 16 10 47z" />
    <glyph glyph-name="amacron" unicode="&#x101;" 
d="M174 138v-90q-1 -30 6 -48l-11 -1l-5 20q-11 -19 -36 -20q-25 1 -40 21q-12 18 -12 49q0 29 14 49q15 19 39 20q18 -1 33 -11v11h12zM162 35v80q-16 12 -30 13q-44 -4 -44 -60q1 -56 40 -61q22 0 34 28zM166 162h-74v10h74v-10z" />
    <glyph glyph-name="emacron" unicode="&#x113;" 
d="M173 21l5 -12q-28 -10 -48 -10q-24 1 -36 13q-18 18 -18 55q3 68 55 71q47 -4 49 -72h-92q2 -60 42 -59q20 -1 43 14zM88 76h80q-3 48 -39 52q-38 -5 -41 -52zM168 162h-74v10h74v-10z" />
    <glyph glyph-name="ecaron" unicode="&#x11b;" 
d="M173 21l5 -12q-28 -10 -48 -10q-31 1 -44 24q-11 19 -10 44q3 68 55 71q47 -4 49 -72h-92q2 -60 42 -59q20 -1 43 14zM88 76h80q-3 48 -39 52q-38 -5 -41 -52zM130 162l36 26l6 -6l-42 -36l-42 36l6 6z" />
    <glyph glyph-name="imacron" unicode="&#x12b;" 
d="M127 0v125h-39v10h52v-135h-13zM168 162h-74v10h74v-10z" />
    <glyph glyph-name="nacute" unicode="&#x144;" 
d="M97 56v-56h-12v68q0 20 -2 37q-1 17 -3 32h11l5 -39h1q13 36 48 40q30 -1 31 -41v-97h-12v91q1 37 -21 37q-23 -1 -35 -24q-11 -17 -11 -48zM118 147l-9 10l44 31l6 -8z" />
    <glyph glyph-name="ncaron" unicode="&#x148;" 
d="M97 56v-56h-12v68q0 20 -2 37q-1 17 -3 32h11l5 -39h1q13 36 48 40q30 -1 31 -41v-97h-12v91q1 37 -21 37q-23 -1 -35 -25q-11 -16 -11 -47zM134 162l36 26l6 -6l-42 -36l-42 36l6 6z" />
    <glyph glyph-name="omacron" unicode="&#x14d;" 
d="M128 -1q-26 1 -40 19q-12 18 -12 50q1 67 52 70q50 -4 52 -70q-1 -32 -14 -51q-13 -17 -38 -18zM128 7q39 0 40 61q-1 59 -40 60q-40 -1 -40 -60q0 -61 40 -61zM165 162h-74v10h74v-10z" />
    <glyph glyph-name="umacron" unicode="&#x16b;" 
d="M159 81v54h12v-66q-1 -21 1 -38q1 -17 4 -31h-11l-5 38h-1q-14 -37 -48 -39q-31 1 -31 41v95h12v-89q-1 -40 21 -39q19 0 35 24q11 21 11 50zM163 162h-74v10h74v-10z" />
    <glyph glyph-name="uni01CE" unicode="&#x1ce;" 
d="M174 138v-90q-1 -30 6 -48l-11 -1l-5 20q-11 -19 -36 -20q-25 1 -39 19q-14 19 -13 51q0 34 17 53q14 15 36 16q18 -1 33 -11v11h12zM162 35v80q-16 12 -30 13q-44 -4 -44 -60q1 -56 40 -61q22 0 34 28zM130 162l36 26l6 -6l-42 -36l-42 36l6 6z" />
    <glyph glyph-name="uni01D0" unicode="&#x1d0;" 
d="M124 0v125h-40v10h52v-135h-12zM130 162l35 26l6 -6l-41 -36l-42 36l6 6z" />
    <glyph glyph-name="uni01D2" unicode="&#x1d2;" 
d="M128 -1q-27 1 -40 20q-12 18 -12 49q1 67 52 70q50 -4 52 -70q-1 -27 -8 -42q-15 -26 -44 -27zM128 7q39 0 40 61q-1 59 -40 60q-40 -1 -40 -60q0 -61 40 -61zM128 162l36 26l6 -6l-42 -36l-41 36l5 6z" />
    <glyph glyph-name="uni01D4" unicode="&#x1d4;" 
d="M159 81v54h12v-66q-1 -21 1 -38q1 -17 4 -31h-11l-5 38h-1q-14 -37 -48 -39q-31 1 -31 41v95h12v-89q-1 -40 21 -39t36 27q9 17 10 47zM126 162l36 26l6 -6l-42 -36l-42 36l6 6z" />
    <glyph glyph-name="uni01D6" unicode="&#x1d6;" 
d="M87 167q1 13 14 14q13 -1 14 -14q-1 -13 -14 -14q-13 1 -14 14zM134 167q1 13 14 14q13 -1 14 -14q-1 -13 -14 -14q-13 1 -14 14zM159 81v54h12v-66q-1 -21 1 -38q1 -17 4 -31h-11l-5 38h-1q-14 -37 -48 -39q-31 1 -31 41v95h12v-89q-1 -40 21 -39t36 27q9 17 10 47z
M161 197h-74v10h74v-10z" />
    <glyph glyph-name="uni01D8" unicode="&#x1d8;" 
d="M87 167q1 13 14 14q13 -1 14 -14q-1 -13 -14 -14q-13 1 -14 14zM134 167q1 13 14 14q13 -1 14 -14q-1 -13 -14 -14q-13 1 -14 14zM159 81v54h12v-66q-1 -21 1 -38q1 -17 4 -31h-11l-5 38h-1q-14 -37 -48 -39q-31 1 -31 41v95h12v-89q-1 -40 21 -39q21 1 35 25
q10 21 11 49zM107 184l-9 11l44 30l6 -7z" />
    <glyph glyph-name="uni01DA" unicode="&#x1da;" 
d="M87 167q1 13 14 14q13 -1 14 -14q-1 -13 -14 -14q-13 1 -14 14zM134 167q1 13 14 14q13 -1 14 -14q-1 -13 -14 -14q-13 1 -14 14zM159 81v54h12v-66q-1 -21 1 -38q1 -17 4 -31h-11l-5 38h-1q-14 -37 -48 -39q-31 1 -31 41v95h12v-89q-1 -40 21 -39q21 1 35 26
q10 16 11 48zM126 199l36 27l6 -6l-42 -36l-42 36l6 6z" />
    <glyph glyph-name="uni01DC" unicode="&#x1dc;" 
d="M87 167q1 13 14 14q13 -1 14 -14q-1 -13 -14 -14q-13 1 -14 14zM134 167q1 13 14 14q13 -1 14 -14q-1 -13 -14 -14q-13 1 -14 14zM159 81v54h12v-66q-1 -21 1 -38q1 -17 4 -31h-11l-5 38h-1q-14 -37 -48 -39q-31 1 -31 41v95h12v-89q-1 -40 21 -39q21 1 35 26
q10 16 11 48zM109 225l41 -33l-6 -8l-44 31z" />
    <glyph glyph-name="uni0251" unicode="&#x251;" 
d="M174 138v-90q-1 -30 6 -48l-11 -1l-5 20q-11 -19 -36 -20q-23 1 -36 16q-16 16 -16 54q1 63 53 69q18 -1 33 -11v11h12zM162 35v80q-16 12 -30 13q-44 -4 -44 -60q1 -56 40 -61q22 0 34 28z" />
    <glyph glyph-name="uni0261" unicode="&#x261;" 
d="M86 -23l8 7q13 -14 33 -15q33 4 35 43v17q-16 -16 -38 -17q-26 0 -38 24q-9 16 -9 36q2 64 49 66q19 0 37 -15l4 15h12q-7 -24 -6 -71v-57q-2 -47 -48 -51q-23 2 -39 18zM161 43v65q-14 19 -35 20q-35 -2 -37 -53q1 -48 36 -53q22 1 36 21z" />
    <glyph glyph-name="caron" unicode="&#x2c7;" 
d="M128 161l36 27l6 -6l-42 -37l-42 37l6 6z" />
    <glyph glyph-name="uni02C9" unicode="&#x2c9;" 
d="M165 162h-74v10h74v-10z" />
    <glyph glyph-name="Alpha" unicode="&#x391;" 
d="M126 158l-31 -84h64zM88 56l-21 -56h-23l69 178h27l72 -178h-24l-22 56h-78z" />
    <glyph glyph-name="Beta" unicode="&#x392;" 
d="M63 178h69q46 -3 51 -44q-1 -28 -22 -40q-1 -1 0 -1q28 -7 32 -42q-3 -51 -59 -51h-71v178zM84 160v-60h44q34 5 34 34q-4 24 -33 26h-45zM84 82v-64h48q37 1 40 32q-3 31 -35 32h-53z" />
    <glyph glyph-name="Gamma" unicode="&#x393;" 
d="M70 178h116v-18h-96v-160h-20v178z" />
    <glyph glyph-name="uni0394" unicode="&#x394;" 
d="M124 180l89 -180h-170zM125 132l-49 -112h103z" />
    <glyph glyph-name="Epsilon" unicode="&#x395;" 
d="M163 101v-18h-73v-65h96v-18h-116v178h110v-18h-90v-59h73z" />
    <glyph glyph-name="Zeta" unicode="&#x396;" 
d="M69 176h128l-100 -157h100v-19h-138l101 157h-91v19z" />
    <glyph glyph-name="Eta" unicode="&#x397;" 
d="M84 86v-86h-21v178h21v-74h89v74h20v-178h-20v86h-89z" />
    <glyph glyph-name="Theta" unicode="&#x398;" 
d="M84 101h88v-18h-88v18zM127 166q-56 -3 -60 -73q1 -74 61 -76q58 4 61 75q-4 71 -62 74zM128 186q77 -4 83 -94q-5 -92 -84 -93q-79 3 -82 94q4 90 83 93z" />
    <glyph glyph-name="Iota" unicode="&#x399;" 
d="M118 178h20v-178h-20v178z" />
    <glyph glyph-name="Kappa" unicode="&#x39a;" 
d="M161 178h26q-31 -54 -80 -85q50 -31 87 -93h-28q-29 50 -83 86v-86h-21v178h21v-78q49 31 78 78z" />
    <glyph glyph-name="Lambda" unicode="&#x39b;" 
d="M113 178h27l71 -178h-23l-63 158l-58 -158h-22z" />
    <glyph glyph-name="Mu" unicode="&#x39c;" 
d="M47 178h31l51 -102l50 102h30v-178h-20v149l-56 -112h-9l-57 115v-152h-20v178z" />
    <glyph glyph-name="Nu" unicode="&#x39d;" 
d="M61 178h22l91 -125v125h21v-178h-11l-102 142v-142h-21v178z" />
    <glyph glyph-name="Xi" unicode="&#x39e;" 
d="M61 178h131l-83 -77h83l-85 -83h88v-18h-134l83 82h-80l80 78h-83v18z" />
    <glyph glyph-name="Omicron" unicode="&#x39f;" 
d="M127 166q-57 -4 -61 -73q2 -73 63 -76q57 3 61 75q-4 71 -63 74zM129 186q77 -3 82 -93q-4 -92 -82 -94q-80 2 -84 94q4 89 84 93z" />
    <glyph glyph-name="Pi" unicode="&#x3a0;" 
d="M86 158v-158h-20v158h-20v18h163v-18h-22v-158h-20v158h-81z" />
    <glyph glyph-name="Rho" unicode="&#x3a1;" 
d="M70 177h60q52 -1 55 -54q-3 -52 -55 -53h-39v-70h-21v177zM91 159v-71h38q31 2 34 34q-3 35 -34 37h-38z" />
    <glyph glyph-name="Sigma" unicode="&#x3a3;" 
d="M62 178h131v-18h-101l75 -72l-77 -70h106v-18h-136v18l77 70l-75 72v18z" />
    <glyph glyph-name="Tau" unicode="&#x3a4;" 
d="M137 0h-21v158h-64v18h152v-18h-67v-158z" />
    <glyph glyph-name="Upsilon" unicode="&#x3a5;" 
d="M43 178h26l59 -86l59 86h26l-75 -107v-71h-20v70z" />
    <glyph glyph-name="Phi" unicode="&#x3a6;" 
d="M117 36v110q-53 -8 -54 -55q2 -48 54 -55zM137 0h-20v17q-72 7 -73 74q1 66 73 74v13h20v-13q73 -7 75 -75q-3 -68 -75 -74v-16zM137 146v-111q53 5 55 55q-2 49 -55 56z" />
    <glyph glyph-name="Chi" unicode="&#x3a7;" 
d="M72 0h-27l70 91l-67 87h27l53 -69l53 69h27l-67 -87l70 -91h-27l-56 74z" />
    <glyph glyph-name="Psi" unicode="&#x3a8;" 
d="M45 178h21q1 -67 50 -76v76h21v-77q50 7 53 77h21q-2 -87 -74 -97v-81h-21v81q-71 8 -71 97z" />
    <glyph glyph-name="uni03A9" unicode="&#x3a9;" 
d="M57 0v19h35q-43 38 -42 87q5 69 77 74q75 -3 79 -77q-2 -52 -43 -84h35v-19h-59v23q46 32 47 79q-3 56 -59 58q-55 -4 -57 -54q-1 -43 46 -83v-23h-59z" />
    <glyph glyph-name="alpha" unicode="&#x3b1;" 
d="M197 120v-22q-24 -11 -27 -37q0 -29 27 -43v-19q-26 5 -35 27q-15 -27 -51 -27q-51 3 -52 59q4 60 53 64q34 -1 50 -29q12 23 35 27zM78 58q2 -40 34 -43q37 1 39 47q-5 37 -35 41q-37 -2 -38 -45z" />
    <glyph glyph-name="beta" unicode="&#x3b2;" 
d="M138 90h-32v16h11q31 3 33 38q-4 21 -28 23q-31 -1 -32 -33v-106q17 -12 38 -12q35 3 39 38q1 33 -29 36zM90 -52h-21v189q4 48 53 50q41 -2 48 -40q0 -29 -15 -41v-1q-1 -1 0 0q32 -10 32 -49q-4 -55 -60 -57q-20 0 -37 8v-59z" />
    <glyph glyph-name="gamma" unicode="&#x3b3;" 
d="M188 113l16 -15q-60 -58 -94 -161h-21q10 35 27 69q-6 81 -64 86l8 19q56 -6 72 -76q23 42 56 78z" />
    <glyph glyph-name="delta" unicode="&#x3b4;" 
d="M182 158l-8 -19q-62 33 -74 15q-3 -15 39 -34q43 -21 43 -64q-5 -55 -54 -57q-52 2 -54 59q0 40 34 56q-1 0 -3 1q-32 22 -26 43q20 44 103 0zM162 57q-4 39 -34 42q-33 -3 -35 -41q1 -40 34 -42q32 2 35 41z" />
    <glyph glyph-name="epsilon" unicode="&#x3b5;" 
d="M166 113l-7 -18q-42 22 -49 -6q-1 -22 22 -23h28v-17h-29q-26 -2 -23 -21q12 -28 55 -3l4 -19q-68 -24 -78 22q-1 21 14 29q-14 13 -12 35q1 21 22 27q25 6 53 -6z" />
    <glyph glyph-name="zeta" unicode="&#x3b6;" 
d="M168 168l17 -10l-37 -62q-45 25 -58 -8q-1 -14 23 -36l4 -4q31 -27 29 -43q-2 -39 -60 -32l3 20q33 -3 36 8q3 12 -16 27q-1 1 -1 2q-40 34 -37 59q0 21 21 32q24 10 48 1z" />
    <glyph glyph-name="eta" unicode="&#x3b7;" 
d="M189 71v-125h-20v126q-3 27 -26 28q-24 -3 -28 -26v-74h-20v87q-1 8 -4 8q-5 -1 -14 -10l-10 16q18 23 34 19q7 -3 11 -15q11 15 36 15q39 -2 41 -49z" />
    <glyph glyph-name="theta" unicode="&#x3b8;" 
d="M158 78h-60q4 -61 31 -62q25 0 29 62zM129 176q47 -1 49 -84q-1 -93 -49 -94q-49 2 -51 94q2 81 51 84zM98 98h60q-2 56 -29 58q-28 -2 -31 -58z" />
    <glyph glyph-name="iota" unicode="&#x3b9;" 
d="M112 119h20v-92q-1 -9 11 -8l1 -18q-32 -2 -32 17v101z" />
    <glyph glyph-name="kappa" unicode="&#x3ba;" 
d="M157 120l18 -14q-29 -22 -55 -42q7 -6 13 -11q30 -22 46 -35l-11 -18q-9 6 -17 13q-19 17 -54 45v-58h-21v120h21v-51q31 24 60 51z" />
    <glyph glyph-name="lambda" unicode="&#x3bb;" 
d="M190 16l-13 -17q-17 9 -36 72l-9 30l-43 -98h-21l55 122q-8 31 -19 34q-11 2 -29 -8q-3 -1 -5 -2l-4 20q37 20 57 4q9 -7 30 -75q25 -81 37 -82z" />
    <glyph glyph-name="uni03BC" unicode="&#x3bc;" 
d="M73 118h20v-69q2 -30 30 -32q26 2 29 34v67h20v-73q0 -24 10 -37l-16 -10q-8 6 -10 16q-15 -14 -32 -14q-25 0 -31 11v-47h-20v154z" />
    <glyph glyph-name="nu" unicode="&#x3bd;" 
d="M156 116h23q-15 -90 -60 -116h-20q-7 95 -22 104l19 14q16 -16 21 -95q32 27 39 93z" />
    <glyph glyph-name="xi" unicode="&#x3be;" 
d="M172 174v-20q-59 13 -67 -20q-2 -28 32 -31h35v-19h-30q-44 -4 -44 -36q-2 -25 38 -35q40 -9 41 -31q-5 -53 -69 -39l4 19q40 -10 45 17q0 11 -27 18q-53 10 -51 50q-1 33 29 46q-26 11 -23 46q14 50 87 35z" />
    <glyph glyph-name="omicron" unicode="&#x3bf;" 
d="M127 103q-32 -3 -34 -44q1 -44 35 -45q33 1 35 44q-3 43 -36 45zM127 121q52 -3 55 -62q-2 -59 -54 -61q-52 2 -54 62q3 58 53 61z" />
    <glyph glyph-name="pi" unicode="&#x3c0;" 
d="M107 101v-101h-20v101h-14q-7 0 -19 -2q-5 -1 -10 -1v18q12 1 24 3h144v-18h-43v-68q0 -10 11 -11l-1 -20q-30 0 -30 26v73h-42z" />
    <glyph glyph-name="rho" unicode="&#x3c1;" 
d="M94 11v-64h-21l1 98q2 72 57 74q47 -4 52 -58q-1 -61 -53 -63q-25 2 -36 13zM163 60q-3 39 -34 40q-32 -2 -34 -45q1 -37 35 -40q31 1 33 45z" />
    <glyph glyph-name="sigma" unicode="&#x3c3;" 
d="M124 119h67v-19h-32q13 -18 14 -43q-3 -56 -55 -59q-52 2 -53 60q4 57 53 61q3 0 7 -1zM117 99q-31 -3 -33 -42q1 -40 34 -42q33 2 35 42q-3 39 -36 42z" />
    <glyph glyph-name="tau" unicode="&#x3c4;" 
d="M155 16v-17q-31 -1 -30 18v76h-34q-5 0 -16 -2q-4 -1 -6 -1v18q2 0 6 1q11 2 16 2h96v-18h-43v-68q0 -10 11 -9z" />
    <glyph glyph-name="upsilon" unicode="&#x3c5;" 
d="M74 118h21q-4 -106 33 -103q37 0 34 103h20q4 -124 -54 -121q-58 -6 -54 121z" />
    <glyph glyph-name="phi" unicode="&#x3c6;" 
d="M118 17v83q-33 -9 -34 -40q1 -36 34 -43zM137 0v-52h-19v52q-52 5 -53 61q2 49 53 59v50h19v-50q51 -10 54 -61q-3 -55 -54 -59zM137 100v-83q32 5 34 42q-3 34 -34 41z" />
    <glyph glyph-name="chi" unicode="&#x3c7;" 
d="M81 -46h-22l56 90q-27 56 -38 58q-5 3 -12 -1l-4 19q10 4 21 3q18 -3 45 -59l37 59h23l-50 -80q31 -68 44 -73q2 -1 5 1h4l7 -18q-14 -5 -22 -4q-17 3 -50 74z" />
    <glyph glyph-name="psi" unicode="&#x3c8;" 
d="M49 117h19q-5 -86 50 -101v101h19v-100q56 13 50 100h20q5 -106 -70 -119v-50h-19v50q-74 10 -69 119z" />
    <glyph glyph-name="omega" unicode="&#x3c9;" 
d="M94 121l3 -21q-37 -11 -38 -48q1 -35 27 -37q30 4 32 43v21h20v-20q1 -42 32 -44q23 4 26 40q0 31 -37 45l2 21q53 -15 56 -66q-3 -55 -45 -57q-31 1 -44 21q-18 -23 -44 -21q-45 2 -45 57q4 53 55 66z" />
    <glyph glyph-name="uni0401" unicode="&#x401;" 
d="M192 0h-128v177h124v-19h-102v-57h93v-20h-93v-61h106v-20zM95 189v27h20v-27h-20zM138 189v27h21v-27h-21z" />
    <glyph glyph-name="uni0410" unicode="&#x410;" 
d="M48 0l66 178h27l67 -178h-24l-18 46h-77l-17 -46h-24zM127 153l-32 -87h64z" />
    <glyph glyph-name="uni0411" unicode="&#x411;" 
d="M60 0v176h124v-20h-103v-52h56q56 -2 59 -50q-2 -54 -54 -54h-82zM138 85h-57v-66h60q31 0 33 34q-1 29 -36 32z" />
    <glyph glyph-name="uni0412" unicode="&#x412;" 
d="M59 0v178h86q38 -3 43 -42q-3 -32 -27 -42q33 -10 36 -43q-3 -49 -54 -51h-84zM137 158h-57v-56h49q31 1 35 32q-2 22 -27 24zM137 82h-57v-62h57q35 2 37 30q-4 29 -37 32z" />
    <glyph glyph-name="uni0413" unicode="&#x413;" 
d="M94 0h-22v177h112v-20h-90v-157z" />
    <glyph glyph-name="uni0414" unicode="&#x414;" 
d="M86 136v42h106v-158h27l-1 -59h-21v39h-139v-39h-20l-2 59h18q32 38 32 116zM171 20v139h-63v-21q-1 -80 -28 -118h91z" />
    <glyph glyph-name="uni0415" unicode="&#x415;" 
d="M192 0h-128v177h124v-19h-102v-57h93v-20h-93v-61h106v-20z" />
    <glyph glyph-name="uni0416" unicode="&#x416;" 
d="M95 96l-80 82h30l73 -77v77h22v-77l75 77h28l-80 -83l83 -95h-30l-76 90v-90h-22v90l-78 -90h-30z" />
    <glyph glyph-name="uni0417" unicode="&#x417;" 
d="M82 131h-22q4 52 67 53q60 -2 66 -46q0 -32 -26 -41q-2 -2 0 -2q34 -8 34 -44q-3 -51 -73 -53q-67 2 -73 58h22q4 -37 51 -40q48 2 51 34q-3 33 -40 37h-28v19h24q34 3 35 31q-3 25 -43 27q-42 -1 -45 -33z" />
    <glyph glyph-name="uni0418" unicode="&#x418;" 
d="M58 0v178h22v-141l95 141h23v-177h-22v144l-96 -145h-22z" />
    <glyph glyph-name="uni0419" unicode="&#x419;" 
d="M58 0v178h22v-141l95 141h23v-177h-22v144l-96 -145h-22zM84 225h20q0 -18 25 -17q21 0 23 17h20q-7 -34 -44 -35q-41 1 -44 35z" />
    <glyph glyph-name="uni041A" unicode="&#x41a;" 
d="M59 0v179h22v-79l80 78h2h28l-84 -82l89 -96h-29l-86 92v-92h-22z" />
    <glyph glyph-name="uni041B" unicode="&#x41b;" 
d="M96 177h109v-177h-21v158h-66v-52q-1 -62 -15 -83q-14 -23 -52 -23v21q28 -1 38 23q4 11 6 30q1 16 1 56v47z" />
    <glyph glyph-name="uni041C" unicode="&#x41c;" 
d="M39 0v178h32l58 -145l55 145h33v-178h-21v150l-59 -150h-17l-60 148v-148h-21z" />
    <glyph glyph-name="uni041D" unicode="&#x41d;" 
d="M83 84v-84h-22v178h22v-74h90v74h22v-178h-22v84h-90z" />
    <glyph glyph-name="uni041E" unicode="&#x41e;" 
d="M127 165q-57 -3 -60 -71q1 -75 60 -76q60 1 62 73q-4 71 -62 74zM128 186q79 -4 84 -93q-3 -93 -85 -94q-79 3 -83 94q4 89 84 93z" />
    <glyph glyph-name="uni041F" unicode="&#x41f;" 
d="M60 0v178h136v-178h-22v158h-92v-158h-22z" />
    <glyph glyph-name="uni0420" unicode="&#x420;" 
d="M62 0v177h72q55 -2 60 -51q-1 -54 -57 -56h-53v-70h-22zM133 158h-49v-68h51q34 0 35 34q-4 32 -37 34z" />
    <glyph glyph-name="uni0421" unicode="&#x421;" 
d="M185 60h23q-12 -62 -80 -62q-78 4 -80 95q4 90 87 93q61 -3 71 -62h-23q-9 39 -48 41q-64 0 -65 -72q2 -73 58 -77q51 1 57 44z" />
    <glyph glyph-name="uni0422" unicode="&#x422;" 
d="M117 0v157h-58v20h138v-20h-59v-157h-21z" />
    <glyph glyph-name="uni0423" unicode="&#x423;" 
d="M123 46l-66 131h25l53 -104l41 104h23l-58 -146q-13 -26 -21 -31q-16 -4 -43 2v21q20 -7 32 -1q7 5 14 24z" />
    <glyph glyph-name="uni0424" unicode="&#x424;" 
d="M117 195h22v-27q91 -3 90 -70q4 -70 -90 -71v-27h-22v27q-93 -1 -90 71q-2 66 90 70v27zM117 47v101q-69 -3 -68 -51q-3 -50 68 -50zM139 148v-101q71 0 68 50q0 47 -68 51z" />
    <glyph glyph-name="uni0425" unicode="&#x425;" 
d="M113 90l-59 89h26l47 -71l47 71h26l-59 -88l63 -91h-27l-50 74l-49 -73h-26z" />
    <glyph glyph-name="uni0426" unicode="&#x426;" 
d="M48 0v177h21v-158h93v158h21v-158h25l-1 -56h-20v37h-139z" />
    <glyph glyph-name="uni0427" unicode="&#x427;" 
d="M67 131v47h21v-47q-1 -22 15 -30q4 -2 23 -2q24 -1 42 1v78h21v-178h-21v80q-65 -6 -77 2q-26 10 -24 49z" />
    <glyph glyph-name="uni0428" unicode="&#x428;" 
d="M233 0h-210v177h21v-157h73v157h21v-157h74v156h21v-176z" />
    <glyph glyph-name="uni0429" unicode="&#x429;" 
d="M226 0h-218v177h21v-158h75v158h21v-158h75v158h22v-157h26l-2 -57h-20v37z" />
    <glyph glyph-name="uni042A" unicode="&#x42a;" 
d="M108 19h48q37 -1 39 38q-2 30 -37 31h-50v-69zM108 177v-69h53q50 -2 56 -50q-4 -57 -59 -58h-72v158h-47v19h69z" />
    <glyph glyph-name="uni042B" unicode="&#x42b;" 
d="M197 178h22v-178h-22v178zM37 0v177h22v-71h54q52 -2 56 -53q-4 -52 -59 -53h-73zM59 19h49q35 0 38 34q-3 32 -36 34h-51v-68z" />
    <glyph glyph-name="uni042C" unicode="&#x42c;" 
d="M62 0v177h22v-71h53q55 -1 57 -52q-3 -54 -60 -54h-72zM84 19h49q36 0 39 35q-2 33 -37 34h-51v-69z" />
    <glyph glyph-name="uni042D" unicode="&#x42d;" 
d="M75 128h-25q15 55 78 57q73 -4 80 -93q-6 -92 -80 -95q-72 1 -80 62h25q3 -42 54 -42q52 2 58 67h-87v19h87q-10 59 -56 61q-46 -2 -54 -36z" />
    <glyph glyph-name="uni042E" unicode="&#x42e;" 
d="M152 165q-56 -4 -62 -71q2 -78 63 -79q58 4 61 78q-4 68 -62 72zM68 86h-27v-84h-21v178h21v-75h28q10 76 84 79q77 -5 83 -91q-4 -93 -84 -95q-78 2 -84 88z" />
    <glyph glyph-name="uni042F" unicode="&#x42f;" 
d="M88 0h-27l45 72q-46 4 -46 54q2 51 58 52h77v-178h-21v71h-43zM174 158h-53q-38 -1 -39 -33q0 -33 37 -34h55v67z" />
    <glyph glyph-name="uni0430" unicode="&#x430;" 
d="M177 91v-63q2 -12 13 -9v-18h-16q-17 -1 -17 17q-18 -18 -45 -20q-43 2 -46 34q0 21 17 34q13 9 43 10q26 1 29 12q0 30 -31 30q-31 -1 -31 -25h-22q6 44 53 43q50 -3 53 -45zM156 51v16q-10 -6 -25 -7q-6 0 -12 -1q-31 -5 -29 -26q3 -22 36 -16q26 7 30 34z" />
    <glyph glyph-name="uni0431" unicode="&#x431;" 
d="M163 187h18q-1 -21 -25 -28q-2 -1 -9 -1q-29 -3 -40 -6q-26 -7 -26 -47q17 24 48 25q60 -2 63 -63q-3 -67 -63 -69q-62 3 -65 74v22q0 58 33 74q6 3 35 7q9 1 17 3q14 3 14 9zM87 63q2 -44 42 -50q39 0 40 52q-3 46 -41 48q-39 -2 -41 -50z" />
    <glyph glyph-name="uni0432" unicode="&#x432;" 
d="M75 0v131h68q31 -3 34 -32q0 -24 -19 -31q23 -9 23 -32q-2 -35 -39 -36h-67zM131 115h-36v-38h41q18 2 20 21q-3 16 -25 17zM135 60h-40v-44h39q24 2 26 20q-2 23 -25 24z" />
    <glyph glyph-name="uni0433" unicode="&#x433;" 
d="M105 114v-114h-21v130h88v-16h-67z" />
    <glyph glyph-name="uni0434" unicode="&#x434;" 
d="M89 95v35h92v-114h23l-2 -47h-19v31h-111v-31h-18l-2 47h17q20 30 20 79zM92 16h69v98h-52v-22q-1 -50 -17 -76z" />
    <glyph glyph-name="uni0435" unicode="&#x435;" 
d="M189 60h-100q2 -42 38 -47q31 1 38 26h22q-9 -39 -60 -41q-58 3 -60 72q5 63 60 66q62 -1 62 -76zM89 77h77q-5 40 -39 42q-36 -3 -38 -42z" />
    <glyph glyph-name="uni0436" unicode="&#x436;" 
d="M95 70l-56 61h28l51 -57v57h20v-57l50 57h27l-56 -61l59 -70h-26l-55 66v-66h-19v66l-54 -66h-27l58 69v1z" />
    <glyph glyph-name="uni0437" unicode="&#x437;" 
d="M96 95h-21q6 38 53 40q47 -2 51 -34q1 -26 -22 -33q24 -3 27 -30q-2 -38 -52 -39q-58 1 -60 43h21q1 -28 38 -28q30 1 31 23q-2 22 -26 23h-23v17h25q16 2 19 20q-1 21 -29 21q-28 -2 -32 -23z" />
    <glyph glyph-name="uni0438" unicode="&#x438;" 
d="M95 0h-23v131h21v-102l68 102h23v-131h-21v103z" />
    <glyph glyph-name="uni0439" unicode="&#x439;" 
d="M83 180h18q2 -20 26 -20q23 1 26 20h19q-8 -34 -45 -35q-40 0 -44 35zM95 0h-23v131h21v-102l68 102h23v-131h-21v103z" />
    <glyph glyph-name="uni043A" unicode="&#x43a;" 
d="M74 0v131h21v-60l55 60h27l-59 -63l64 -68h-29l-58 64v-64h-21z" />
    <glyph glyph-name="uni043B" unicode="&#x43b;" 
d="M100 104v27h89v-130h-21v113h-47v-23q-1 -63 -11 -74q-9 -17 -43 -16v18q23 1 28 15q5 10 5 70z" />
    <glyph glyph-name="uni043C" unicode="&#x43c;" 
d="M76 0h-21v131h30l44 -103l44 103h28v-131h-21v102l-43 -102h-17l-44 103v-103z" />
    <glyph glyph-name="uni043D" unicode="&#x43d;" 
d="M74 0v131h21v-54h66v54h21v-131h-21v61h-66v-61h-21z" />
    <glyph glyph-name="uni043E" unicode="&#x43e;" 
d="M127 120q-37 -3 -39 -53q1 -51 41 -52q36 2 39 52q-2 50 -41 53zM129 137q57 -3 61 -70q-3 -67 -63 -68q-59 1 -61 68q3 66 63 70z" />
    <glyph glyph-name="uni043F" unicode="&#x43f;" 
d="M74 0v130h108v-130h-20v113h-68v-113h-20z" />
    <glyph glyph-name="uni0440" unicode="&#x440;" 
d="M88 133v-17q21 22 46 22q49 -3 55 -67q-2 -71 -58 -73q-29 1 -44 22v-64h-20v177h21zM167 70q-5 49 -36 51q-42 -2 -43 -54q3 -53 43 -55q34 7 36 58z" />
    <glyph glyph-name="uni0441" unicode="&#x441;" 
d="M165 48h23q-8 -49 -59 -50q-59 2 -61 69q1 68 65 70q46 -4 53 -46h-22q-5 25 -31 28q-42 -2 -43 -53q1 -49 39 -52q32 -1 36 34z" />
    <glyph glyph-name="uni0442" unicode="&#x442;" 
d="M72 115v16h112v-16h-47v-115h-20v115h-45z" />
    <glyph glyph-name="uni0443" unicode="&#x443;" 
d="M122 1l-57 130h25l43 -104l35 104h23l-54 -150q-12 -28 -18 -27q-17 -2 -33 2v19q16 -3 25 1q4 4 11 25z" />
    <glyph glyph-name="uni0444" unicode="&#x444;" 
d="M118 15v103q-60 -3 -58 -52q-1 -51 58 -51zM118 135v46h21v-46q78 -5 79 -69q-1 -65 -79 -67v-43h-21v43q-80 1 -80 67q1 65 80 69zM139 118v-103q57 3 57 52q0 47 -57 51z" />
    <glyph glyph-name="uni0445" unicode="&#x445;" 
d="M91 0h-25l49 69l-46 63h25l33 -46l33 46h25l-45 -63l50 -69h-26l-37 51z" />
    <glyph glyph-name="uni0446" unicode="&#x446;" 
d="M62 0v131h20v-114h68v114h20v-114h24l-2 -47h-18v30h-112z" />
    <glyph glyph-name="uni0447" unicode="&#x447;" 
d="M79 83v48h21v-45q-1 -15 23 -14h33v59h21v-131h-21v53h-35q-42 -2 -42 30z" />
    <glyph glyph-name="uni0448" unicode="&#x448;" 
d="M41 0v131h21v-114h56v114h20v-114h56v114h21v-131h-174z" />
    <glyph glyph-name="uni0449" unicode="&#x449;" 
d="M205 0h-174v131h20v-114h56v114h20v-114h55v114h21v-114h22l-2 -45h-18v28z" />
    <glyph glyph-name="uni044A" unicode="&#x44a;" 
d="M92 0v112h-34v16h55v-50h45q37 -1 40 -39q-2 -39 -40 -39h-66zM156 61h-43v-45h41q23 0 24 22q0 23 -22 23z" />
    <glyph glyph-name="uni044B" unicode="&#x44b;" 
d="M200 0h-21v129h21v-129zM56 0v129h21v-51h44q38 -2 41 -38q-3 -39 -41 -40h-65zM118 62h-41v-46h41q20 1 22 24q-2 20 -22 22z" />
    <glyph glyph-name="uni044C" unicode="&#x44c;" 
d="M75 0v129h21v-51h44q38 -2 41 -38q-4 -39 -41 -40h-65zM137 62h-41v-46h41q20 1 22 23q-2 21 -22 23z" />
    <glyph glyph-name="uni044D" unicode="&#x44d;" 
d="M90 90h-22q8 44 59 47q57 -5 61 -69q-2 -68 -61 -69q-55 1 -59 48h22q2 -30 37 -33q36 3 39 47h-57v17h56q-7 39 -38 41q-29 -2 -37 -29z" />
    <glyph glyph-name="uni044E" unicode="&#x44e;" 
d="M150 119q-38 -3 -40 -52q-1 -51 40 -53q37 1 39 52q-2 52 -39 53zM88 62h-23v-60h-20v129h20v-53h23q9 57 62 59q57 -3 61 -71q-2 -66 -61 -68q-58 2 -62 64z" />
    <glyph glyph-name="uni044F" unicode="&#x44f;" 
d="M115 131h66v-131h-20v53h-30l-32 -53h-24l34 54q-32 6 -33 38q0 38 39 39zM161 114h-42q-20 -3 -22 -22q3 -22 23 -23h41v45z" />
    <glyph glyph-name="uni0451" unicode="&#x451;" 
d="M189 60h-100q2 -42 38 -47q31 1 38 25h22q-8 -38 -60 -40q-59 2 -60 71q4 63 60 66q61 -1 62 -75zM89 76h77q-5 40 -39 42q-36 -3 -38 -42zM98 179q8 -2 10 -11q-1 -10 -10 -10q-11 0 -11 10q1 10 11 11zM154 179q10 -1 11 -11q-1 -10 -11 -10t-10 10t10 11z" />
    <glyph glyph-name="emdash" unicode="&#x2014;" 
d="M1 92h254v-10h-254v10z" />
    <glyph glyph-name="uni2016" unicode="&#x2016;" 
d="M111 -48h-11v235h11v-235zM156 -48h-11v235h11v-235z" />
    <glyph glyph-name="quoteleft" unicode="&#x2018;" 
d="M177 125v49q1 27 30 31v-10q-19 -2 -20 -21v-15h17v-34h-27z" />
    <glyph glyph-name="quoteright" unicode="&#x2019;" 
d="M79 205v-48q-2 -30 -30 -32v9q19 2 20 23v12h-17v36h27z" />
    <glyph glyph-name="quotedblleft" unicode="&#x201c;" 
d="M202 138v36q2 19 19 23v-11q-7 -4 -7 -14v-10h7v-24h-19zM163 138v36q2 19 19 23v-11q-8 -3 -8 -14v-10h8v-24h-19z" />
    <glyph glyph-name="quotedblright" unicode="&#x201d;" 
d="M54 197v-36q-3 -21 -19 -24v11q6 5 7 15v10h-7v24h19zM93 197v-36q-2 -22 -19 -24v11q7 4 8 15v10h-8v24h19z" />
    <glyph glyph-name="ellipsis" unicode="&#x2026;" 
d="M215 98q11 -2 12 -12q-2 -13 -12 -13q-12 1 -13 13q1 10 13 12zM42 98q11 -2 12 -12q-2 -13 -12 -13q-12 1 -13 13q1 10 13 12zM127 98q10 -1 11 -12q-1 -13 -11 -13q-12 1 -13 13q1 10 13 12z" />
    <glyph glyph-name="perthousand" unicode="&#x2030;" 
d="M151 24q3 44 32 47q19 -2 21 -25q-4 -46 -32 -47q-21 1 -21 25zM162 22q-1 -18 11 -17q16 1 20 41q-1 16 -11 17q-18 -2 -20 -41zM146 188h11l-94 -188h-11zM60 142q3 43 32 46q20 -1 21 -25q-3 -48 -32 -49q-21 0 -21 28zM71 140q-1 -19 11 -18q17 1 20 41q-1 16 -11 17
q-17 -2 -20 -40zM92 24q3 44 32 47q20 -1 21 -25q-3 -46 -32 -47q-21 1 -21 25zM103 22q-1 -18 11 -17q17 1 20 41q-1 16 -11 17q-18 -2 -20 -41z" />
    <glyph glyph-name="minute" unicode="&#x2032;" 
d="M73 171l-41 -52q-4 -3 -8 -1q-3 2 -1 6l27 61q3 5 17 1q8 -11 6 -15z" />
    <glyph glyph-name="second" unicode="&#x2033;" 
d="M49 167l-39 -49q-7 -4 -9 5l25 56q6 10 19 6q11 -8 4 -18zM99 170l-41 -51q-3 -3 -7 -2q-3 3 -1 7l26 57q5 9 18 5q11 -8 5 -16z" />
    <glyph glyph-name="uni203B" unicode="&#x203b;" 
d="M41 12l81 81l-77 77q-5 4 -1 8q3 3 8 -1l77 -77l80 80q3 2 6 -2q2 -4 -1 -7l-78 -78l79 -79q2 -9 -6 -8l-80 80l-80 -80q-9 -3 -8 6zM62 112q17 -2 19 -19q-2 -17 -19 -19q-18 1 -19 19q1 17 19 19zM129 43q17 -2 19 -19q-2 -17 -19 -19q-18 1 -19 19q1 17 19 19z
M195 112q17 -2 19 -19q-2 -17 -19 -19q-18 1 -19 19q1 17 19 19zM129 181q17 -2 19 -19q-2 -17 -19 -19q-18 1 -19 19q1 17 19 19z" />
    <glyph glyph-name="uni2103" unicode="&#x2103;" 
d="M29 164q4 44 49 49q44 -5 49 -49q-5 -46 -49 -50q-45 4 -49 50zM39 164q3 -36 39 -39q35 3 39 39q-4 34 -39 38q-36 -4 -39 -38zM225 150h-12q-4 25 -31 28q-46 -1 -46 -87q-1 -85 45 -84q31 2 34 33h12q-5 -40 -47 -42q-29 0 -42 22q-15 25 -15 70q0 52 18 78
q14 20 41 20q37 -3 43 -38z" />
    <glyph glyph-name="uni2116" unicode="&#x2116;" 
d="M108 0l-68 168v-1v-167h-12v184h17l63 -158l1 1v157h12v-184h-13zM180 17q-24 0 -36 18q-12 15 -11 42q1 55 47 59q47 -3 48 -59q-1 -27 -10 -40q-14 -20 -38 -20zM180 26q36 0 37 51q-1 50 -37 51q-36 -1 -36 -51q0 -51 36 -51zM211 0h-59v10h59v-10z" />
    <glyph glyph-name="uni2160" unicode="&#x2160;" 
d="M137 1h-18v185h18v-185z" />
    <glyph glyph-name="uni2161" unicode="&#x2161;" 
d="M108 1h-18v185h18v-185zM166 1h-18v185h18v-185z" />
    <glyph glyph-name="uni2162" unicode="&#x2162;" 
d="M137 1h-18v185h18v-185zM101 0h-18v185h18v-185zM173 1h-18v185h18v-185z" />
    <glyph glyph-name="uni2163" unicode="&#x2163;" 
d="M55 1h-18v185h17zM136 1l-64 185h18l55 -164l56 164h18l-64 -185h-19z" />
    <glyph glyph-name="uni2164" unicode="&#x2164;" 
d="M118 1l-64 185h18l56 -164l55 164h18l-64 -185h-19z" />
    <glyph glyph-name="uni2165" unicode="&#x2165;" 
d="M101 1l-64 185h18l55 -164l56 164h18l-64 -185h-19zM219 1h-17v185h17v-185z" />
    <glyph glyph-name="uni2166" unicode="&#x2166;" 
d="M199 1h-17v185h17v-185zM85 1l-64 185h18l55 -164l56 164h18l-64 -185h-19zM235 1h-17v185h17v-185z" />
    <glyph glyph-name="uni2167" unicode="&#x2167;" 
d="M76 1l-64 185h18l55 -164l56 164h18l-64 -185h-19zM185 1h-17v185h17v-185zM215 1h-18v185h18v-185zM244 1h-17v185h17v-185z" />
    <glyph glyph-name="uni2168" unicode="&#x2168;" 
d="M52 1h-17v184h17v-184zM201 0l-54 82l-53 -82h-20l63 95l-60 90h20l50 -78l51 78h20l-60 -90l63 -95h-20z" />
    <glyph glyph-name="uni2169" unicode="&#x2169;" 
d="M182 1l-54 82l-54 -82h-19l63 95l-61 90h20l51 -78l50 78h21l-61 -90l63 -95h-19z" />
    <glyph glyph-name="uni216A" unicode="&#x216a;" 
d="M164 1l-54 82l-53 -82h-20l64 95l-61 90h20l50 -78l51 78h20l-60 -90l63 -95h-20zM219 1h-18v185h18v-185z" />
    <glyph glyph-name="uni216B" unicode="&#x216b;" 
d="M144 1l-54 82l-53 -82h-20l64 95l-61 90h20l50 -78l51 78h20l-60 -90l63 -95h-20zM199 1h-18v185h18v-185zM239 1h-18v185h18v-185z" />
    <glyph glyph-name="uni2170" unicode="&#x2170;" 
d="M136 1h-16v133h16v-133zM136 163h-16v23h16v-23z" />
    <glyph glyph-name="uni2171" unicode="&#x2171;" 
d="M107 1h-15v133h15v-133zM108 163h-17v23h17v-23zM164 1h-15v133h15v-133zM165 163h-17v23h17v-23z" />
    <glyph glyph-name="uni2172" unicode="&#x2172;" 
d="M135 1h-15v133h15v-133zM136 163h-17v23h17v-23zM103 0h-15v133h15v-133zM104 162h-17v23h17v-23zM168 1h-15v133h15v-133zM169 163h-17v23h17v-23z" />
    <glyph glyph-name="uni2173" unicode="&#x2173;" 
d="M63 2h-15v132h15v-132zM64 163h-17v23h17v-23zM141 1l-51 133h16l44 -114l43 114h16l-51 -133h-17z" />
    <glyph glyph-name="uni2174" unicode="&#x2174;" 
d="M119 1l-51 132h17l43 -114l43 114h17l-52 -132h-17z" />
    <glyph glyph-name="uni2175" unicode="&#x2175;" 
d="M98 1l-51 133h17l43 -114l43 114l16 -1l-51 -132h-17zM208 1h-15v133h15v-133zM209 163h-17v23h17v-23z" />
    <glyph glyph-name="uni2176" unicode="&#x2176;" 
d="M189 2h-15v132h15v-132zM190 163h-17v23h17v-23zM76 1l-51 133h17l43 -114l43 114h17l-52 -133h-17zM230 2h-15v132h15v-132zM231 163h-17v23h17v-23z" />
    <glyph glyph-name="uni2177" unicode="&#x2177;" 
d="M73 1l-50 133h16l43 -114l43 114h17l-51 -133h-18zM169 2h-15v132h15v-132zM170 163h-17v23h17v-23zM201 2h-16v132h16v-132zM201 163h-16v23h16v-23zM232 2h-15v132h15v-132zM233 163h-17v23h17v-23z" />
    <glyph glyph-name="uni2178" unicode="&#x2178;" 
d="M64 2h-16v132h16v-132zM65 163h-17v23h17v-23zM190 2l-40 57l-41 -57h-19l51 68l-47 64h19l37 -53l37 53h20l-48 -64l49 -68h-18z" />
    <glyph glyph-name="uni2179" unicode="&#x2179;" 
d="M169 2l-40 57l-42 -57h-18l51 68l-47 64h19l36 -53l38 53h19l-48 -64l50 -68h-18z" />
    <glyph glyph-name="arrowleft" unicode="&#x2190;" 
d="M256 94v-8h-210q19 -22 20 -46q-27 35 -66 51q38 13 66 49q-2 -28 -20 -46h210z" />
    <glyph glyph-name="arrowup" unicode="&#x2191;" 
d="M132 -36h-8v207q-25 -21 -46 -19q36 25 50 66q12 -39 50 -66q-29 1 -46 19v-207z" />
    <glyph glyph-name="arrowright" unicode="&#x2192;" 
d="M0 94h210q-19 17 -20 46q27 -36 66 -49q-40 -16 -66 -51q-1 22 20 46h-210v8z" />
    <glyph glyph-name="arrowdown" unicode="&#x2193;" 
d="M132 218v-210q19 19 46 19q-37 -26 -50 -63q-14 37 -50 63q20 1 46 -19v210h8z" />
    <glyph glyph-name="element" unicode="&#x2208;" 
d="M188 12v-12h-70q-51 0 -51 54t51 55h70v-12h-71q-34 -1 -37 -36h105v-12h-105q2 -37 37 -37h71z" />
    <glyph glyph-name="product" unicode="&#x220f;" 
d="M203 161v-160q-2 -20 25 -19v-6h-79v6q25 -1 25 19v177h-92v-177q-1 -20 25 -19v-6h-79v6q26 -1 25 19v160q-1 25 -24 25v6h198v-6q-24 0 -24 -25z" />
    <glyph glyph-name="summation" unicode="&#x2211;" 
d="M195 190l2 -40h-6q-1 1 -2 3q-3 27 -37 26h-67l70 -92l-75 -87h95q24 -2 34 29h6q-2 -7 -4 -16q-5 -17 -7 -39q-3 1 -8 2q-8 2 -12 1h-128h-9q-4 -1 -6 -1l89 100l-89 116q13 -2 27 -2h127z" />
    <glyph glyph-name="radical" unicode="&#x221a;" 
d="M124 0l128 218h4v-11l-136 -234h-6l-82 154l-29 -16l-3 9l47 26z" />
    <glyph glyph-name="proportional" unicode="&#x221d;" 
d="M47 82q2 45 42 48q26 -1 41 -36q16 35 50 34q23 -1 27 -7q-1 -5 -3 -5q-3 -1 -8 0t-7 1q-34 3 -51 -41q17 -28 49 -27q3 0 10 1q4 1 6 1q6 0 6 -3q-8 -12 -29 -12q-33 -1 -45 33q-17 -37 -45 -35q-41 1 -43 48zM55 80q1 -30 30 -31q21 0 38 34q1 3 3 6q-12 24 -37 25
q-33 -2 -34 -34z" />
    <glyph glyph-name="infinity" unicode="&#x221e;" 
d="M128 76q2 2 4 3q18 17 29 21q40 12 52 -29q-2 -38 -38 -39q-22 2 -44 23q-3 3 -3 4l-4 -4q-21 -21 -43 -23q-37 1 -38 39q11 41 52 29q10 -5 28 -21q2 -1 5 -3zM120 68q-22 17 -31 20q-28 7 -33 -22q4 -25 30 -21q12 2 29 18zM136 68q1 -2 4 -5q17 -17 30 -18
q25 -4 30 21q-6 29 -33 22q-10 -3 -31 -20z" />
    <glyph glyph-name="angle" unicode="&#x2220;" 
d="M41 1l121 160l9 -6l-109 -144h153v-10h-174z" />
    <glyph glyph-name="uni2225" unicode="&#x2225;" 
d="M108 -30h-9l126 248h9zM31 -30h-9l126 248h9z" />
    <glyph glyph-name="logicaland" unicode="&#x2227;" 
d="M200 -6h-13l-56 184l-62 -182h-13l67 198h16z" />
    <glyph glyph-name="logicalor" unicode="&#x2228;" 
d="M69 192l59 -187l60 187h12l-64 -201h-16l-64 201h13z" />
    <glyph glyph-name="intersection" unicode="&#x2229;" 
d="M191 0v92q-2 57 -63 59q-62 -2 -63 -59v-92h-15v92q1 71 78 74q76 -3 78 -74v-92h-15z" />
    <glyph glyph-name="union" unicode="&#x222a;" 
d="M191 68v93h15v-91q-2 -71 -78 -73q-77 2 -78 73v91h15v-93q1 -57 63 -58q61 1 63 58z" />
    <glyph glyph-name="integral" unicode="&#x222b;" 
d="M122 35l3 84q2 56 26 58q7 -1 8 -7q-1 -5 -5 -5q-3 0 -6 3q-2 3 -3 3q-9 3 -11 -51l-3 -86q-2 -84 -27 -81q-8 1 -7 7q0 5 5 5q3 0 5 -3t3 -3q9 -4 12 76z" />
    <glyph glyph-name="uni222E" unicode="&#x222e;" 
d="M133 89l-1 -48q19 3 21 24q-2 19 -20 24zM122 42l2 47q-19 -5 -20 -24q1 -19 18 -23zM134 120v-25q23 -6 25 -30q-3 -27 -28 -30v-1q-1 -34 -5 -54q-6 -26 -22 -27q-8 1 -7 7q0 5 5 5q3 0 5 -3t3 -3q10 0 12 57v19q-23 6 -24 30q1 25 26 30l2 24q2 57 25 58q7 -1 8 -7
q-1 -5 -5 -5q-3 0 -6 3q-2 3 -3 3q-10 1 -11 -51z" />
    <glyph glyph-name="therefore" unicode="&#x2234;" 
d="M59 17q1 14 17 16q14 -2 16 -16q-2 -16 -16 -17q-16 1 -17 17zM164 17q1 14 16 16q15 -2 17 -16q-2 -16 -17 -17q-15 1 -16 17zM111 106q1 14 17 16q15 -2 17 -16q-2 -16 -17 -17q-16 1 -17 17z" />
    <glyph glyph-name="uni2235" unicode="&#x2235;" 
d="M59 105q1 15 17 17q14 -2 16 -17q-2 -16 -16 -17q-16 1 -17 17zM164 105q1 15 16 17q15 -2 17 -17q-2 -16 -17 -17q-15 1 -16 17zM111 17q1 15 17 17q15 -2 17 -17q-2 -16 -17 -17q-16 1 -17 17z" />
    <glyph glyph-name="uni2236" unicode="&#x2236;" 
d="M111 47q1 16 17 18q15 -2 17 -18q-2 -16 -17 -17q-16 1 -17 17zM111 137q1 15 17 17q15 -2 17 -17q-2 -16 -17 -17q-16 1 -17 17z" />
    <glyph glyph-name="uni2237" unicode="&#x2237;" 
d="M171 140q11 -2 13 -13q-2 -12 -13 -13q-12 1 -13 13q1 11 13 13zM171 49q11 -2 13 -12q-2 -12 -13 -13q-12 1 -13 13q1 10 13 12zM85 140q11 -2 13 -13q-2 -12 -13 -13q-12 1 -13 13q1 11 13 13zM85 49q11 -2 13 -12q-2 -12 -13 -13q-12 1 -13 13q1 10 13 12z" />
    <glyph glyph-name="uni223D" unicode="&#x223d;" 
d="M226 49h-11q-3 53 -40 55q-18 0 -44 -27q-28 -28 -49 -28q-51 0 -52 66h10q1 -55 40 -55q20 0 45 26q27 29 50 29q48 -2 51 -66z" />
    <glyph glyph-name="approxequal" unicode="&#x2248;" 
d="M212 118v-14q-22 -18 -42 -17q-17 0 -45 11q-25 10 -38 10q-21 0 -43 -19v13q22 18 42 18q16 0 44 -12q25 -9 39 -9q20 -1 43 19zM212 80v-14q-22 -18 -42 -17q-17 0 -45 10q-25 10 -38 10q-21 0 -43 -19v14q21 17 42 17q16 0 44 -12q25 -9 39 -9q19 -1 43 20z" />
    <glyph glyph-name="uni224C" unicode="&#x224c;" 
d="M228 12h-204v11h204v-11zM228 48h-204v11h204v-11zM226 87h-11q-3 52 -40 54q-18 0 -44 -26q-28 -28 -49 -28q-50 0 -52 65h10q1 -55 40 -55q20 0 45 26q27 29 50 29q48 -2 51 -65z" />
    <glyph glyph-name="notequal" unicode="&#x2260;" 
d="M101 57h-58v12h68l20 27h-88v12h97l45 59h13l-45 -59h60v-12h-69l-20 -27h89v-12h-99l-44 -58h-13z" />
    <glyph glyph-name="equivalence" unicode="&#x2261;" 
d="M212 111h-168v12h168v-12zM212 41h-168v12h168v-12zM212 76h-168v12h168v-12z" />
    <glyph glyph-name="lessequal" unicode="&#x2264;" 
d="M215 59v-16l-174 48v16l174 48v-15l-152 -41zM215 12v-13l-174 47v15z" />
    <glyph glyph-name="greaterequal" unicode="&#x2265;" 
d="M215 61v-15l-174 -47v13zM215 107v-16l-174 -48v16l152 40l-152 41v15z" />
    <glyph glyph-name="uni226E" unicode="&#x226e;" 
d="M113 61l23 52l-78 -30zM213 21v-12l-94 38l-21 -48h-12l23 52l-66 26v11l99 39l16 40h12l-14 -34l57 23v-12l-63 -25l-27 -62z" />
    <glyph glyph-name="uni226F" unicode="&#x226f;" 
d="M98 -1h-12l15 34l-58 -24v13l64 25l26 62l-90 36v11l95 -37l20 48h12l-22 -53l65 -26v-11l-98 -39zM143 104l-22 -52l77 31z" />
    <glyph glyph-name="uni2299" unicode="&#x2299;" 
d="M128 76q-14 1 -15 15q1 13 15 15q13 -2 15 -15q-2 -14 -15 -15zM128 9q74 7 82 82q-8 75 -82 83q-75 -8 -82 -83q7 -75 82 -82zM128 184q84 -9 93 -93q-8 -84 -93 -91q-86 7 -93 91q8 84 93 93z" />
    <glyph glyph-name="perpendicular" unicode="&#x22a5;" 
d="M52 11h70v150h12v-150h70v-10h-152v10z" />
    <glyph glyph-name="uni2312" unicode="&#x2312;" 
d="M234 58l-1 -2q-4 0 -14 11q-39 42 -88 45h-7q-50 -3 -88 -45q-10 -11 -13 -11l-1 2q35 71 105 72q73 0 107 -72z" />
    <glyph glyph-name="uni2460" unicode="&#x2460;" 
d="M128 219q115 -11 126 -126q-11 -112 -126 -123q-116 11 -126 123q10 115 126 126zM128 214q-111 -11 -121 -121q10 -107 121 -118q110 11 121 118q-11 110 -121 121zM125 3v134h-47v11q46 -1 50 36h13v-181h-16z" />
    <glyph glyph-name="uni2461" unicode="&#x2461;" 
d="M128 219q115 -11 126 -126q-11 -112 -126 -123q-116 11 -126 123q10 115 126 126zM128 214q-111 -11 -121 -121q10 -107 121 -118q110 11 121 118q-11 110 -121 121zM91 125h-18q3 55 59 59q53 -3 56 -50q0 -36 -56 -66q-17 -9 -23 -14q-24 -17 -23 -37h100v-14h-118
q-1 27 14 44q15 18 49 37q41 21 39 49q-3 34 -40 37q-38 -4 -39 -45z" />
    <glyph glyph-name="uni2462" unicode="&#x2462;" 
d="M128 219q115 -11 126 -126q-11 -112 -126 -123q-116 11 -126 123q10 115 126 126zM128 214q-111 -11 -121 -121q10 -107 121 -118q110 11 121 118q-11 110 -121 121zM115 92v13q51 -2 51 35q-2 30 -38 32q-37 -3 -39 -39h-16q-1 23 17 41q14 12 41 12q50 -3 52 -45
q0 -29 -26 -40q31 -10 32 -45q-4 -51 -58 -54q-62 -2 -64 55h16q1 -41 45 -42q41 3 45 41q-3 38 -58 36z" />
    <glyph glyph-name="uni2463" unicode="&#x2463;" 
d="M128 219q115 -11 126 -126q-11 -112 -126 -123q-116 11 -126 123q10 115 126 126zM128 214q-111 -11 -121 -121q10 -107 121 -118q110 11 121 118q-11 110 -121 121zM139 4v45h-82v14l84 120h15v-121h25v-13h-25v-45h-17zM139 158l-66 -96h66v96z" />
    <glyph glyph-name="uni2464" unicode="&#x2464;" 
d="M128 219q115 -11 126 -126q-11 -112 -126 -123q-116 11 -126 123q10 115 126 126zM128 214q-111 -11 -121 -121q10 -107 121 -118q110 11 121 118q-11 110 -121 121zM68 53h16q5 -37 45 -37q39 2 43 46q-3 43 -45 46q-24 0 -39 -19l-14 2l15 94h89v-14h-75l-12 -61
q18 12 40 12q54 -4 57 -60q-4 -56 -57 -60q-60 0 -63 51z" />
    <glyph glyph-name="uni2465" unicode="&#x2465;" 
d="M128 219q115 -11 126 -126q-11 -112 -126 -123q-116 11 -126 123q10 115 126 126zM128 214q-111 -11 -121 -121q10 -107 121 -118q110 11 121 118q-11 110 -121 121zM186 141h-17q-7 30 -35 31q-49 1 -50 -82q18 28 47 28q55 -2 57 -58q-2 -57 -57 -58q-64 0 -64 86
q2 96 66 98q45 -2 53 -45zM131 104q-39 -3 -41 -44q2 -44 41 -45q38 1 41 46q0 42 -41 43z" />
    <glyph glyph-name="uni2466" unicode="&#x2466;" 
d="M128 219q115 -11 126 -126q-11 -112 -126 -123q-116 11 -126 123q10 115 126 126zM128 214q-111 -11 -121 -121q10 -107 121 -118q110 11 121 118q-11 110 -121 121zM70 166v17h115v-16q-63 -75 -73 -163h-18q9 81 72 162h-96z" />
    <glyph glyph-name="uni2467" unicode="&#x2467;" 
d="M128 219q115 -11 126 -126q-11 -112 -126 -123q-116 11 -126 123q10 115 126 126zM128 214q-111 -11 -121 -121q10 -107 121 -118q110 11 121 118q-11 110 -121 121zM128 93q-44 -2 -44 -39q2 -37 45 -39q40 2 43 40q-2 36 -44 38zM127 171q-35 -2 -36 -32q0 -31 38 -32
q34 0 35 35q0 28 -37 29zM100 102q-29 14 -26 39q4 41 52 44q52 -3 54 -44q0 -29 -24 -40q31 -14 32 -45q-2 -54 -64 -55q-53 4 -56 53q0 35 32 48z" />
    <glyph glyph-name="uni2468" unicode="&#x2468;" 
d="M128 219q115 -11 126 -126q-11 -112 -126 -123q-116 11 -126 123q10 115 126 126zM128 214q-111 -11 -121 -121q10 -107 121 -118q110 11 121 118q-11 110 -121 121zM70 45h17q6 -30 35 -30q48 -1 50 80v1q-17 -28 -49 -28q-54 2 -56 58q2 58 58 60q63 -1 64 -92
q-3 -89 -66 -92q-48 1 -53 43zM125 172q-41 -3 -41 -47q1 -42 41 -43q38 2 41 44q-2 43 -41 46z" />
    <glyph glyph-name="uni2469" unicode="&#x2469;" 
d="M128 219q115 -11 126 -126q-11 -112 -126 -123q-116 11 -126 123q10 115 126 126zM128 214q-111 -11 -121 -121q10 -107 121 -118q110 11 121 118q-11 110 -121 121zM207 94q0 78 -34 78q-35 -1 -35 -80q-1 -78 35 -77q34 -1 34 79zM173 186q48 0 47 -94q0 -92 -47 -91
q-49 -1 -48 93q-1 92 48 92zM82 3v134h-46v11q45 -1 50 36h13v-181h-17z" />
    <glyph glyph-name="uni2474" unicode="&#x2474;" 
d="M44 212h13q-39 -58 -39 -119t39 -117h-13q-44 57 -44 118t44 118zM212 -24h-13q38 56 39 118q-1 58 -39 118h13q45 -59 44 -119q1 -62 -44 -117zM125 3v134h-47v11q46 -1 50 36h13v-181h-16z" />
    <glyph glyph-name="uni2475" unicode="&#x2475;" 
d="M44 212h13q-39 -58 -39 -119t39 -117h-13q-44 57 -44 118t44 118zM212 -24h-13q38 56 39 118q-1 58 -39 118h13q45 -59 44 -119q1 -62 -44 -117zM91 125h-18q3 55 59 59q53 -3 56 -50q0 -36 -56 -66q-17 -9 -23 -14q-24 -17 -23 -37h100v-14h-118q-1 27 14 44
q15 18 49 37q41 21 39 49q-3 34 -40 37q-38 -4 -39 -45z" />
    <glyph glyph-name="uni2476" unicode="&#x2476;" 
d="M44 212h13q-39 -58 -39 -119t39 -117h-13q-44 57 -44 118t44 118zM212 -24h-13q38 56 39 118q-1 58 -39 118h13q45 -59 44 -119q1 -62 -44 -117zM115 92v13q51 -2 51 35q-2 30 -38 32q-37 -3 -39 -39h-16q-1 23 17 41q14 12 41 12q50 -3 52 -45q0 -29 -26 -40
q31 -10 32 -45q-4 -51 -58 -54q-62 -2 -64 55h16q1 -41 45 -42q41 3 45 41q-3 38 -58 36z" />
    <glyph glyph-name="uni2477" unicode="&#x2477;" 
d="M44 212h13q-39 -58 -39 -119t39 -117h-13q-44 57 -44 118t44 118zM212 -24h-13q38 56 39 118q-1 58 -39 118h13q45 -59 44 -119q1 -62 -44 -117zM139 4v45h-82v14l84 120h15v-121h25v-13h-25v-45h-17zM139 158l-66 -96h66v96z" />
    <glyph glyph-name="uni2478" unicode="&#x2478;" 
d="M44 212h13q-39 -58 -39 -119t39 -117h-13q-44 57 -44 118t44 118zM212 -24h-13q38 56 39 118q-1 58 -39 118h13q45 -59 44 -119q1 -62 -44 -117zM68 53h16q5 -37 45 -37q39 2 43 46q-3 43 -45 46q-24 0 -39 -19l-14 2l15 94h89v-14h-75l-12 -61q18 12 40 12q54 -4 57 -60
q-4 -56 -57 -60q-60 0 -63 51z" />
    <glyph glyph-name="uni2479" unicode="&#x2479;" 
d="M44 212h13q-39 -58 -39 -119t39 -117h-13q-44 57 -44 118t44 118zM212 -24h-13q38 56 39 118q-1 58 -39 118h13q45 -59 44 -119q1 -62 -44 -117zM186 141h-17q-7 30 -35 31q-49 1 -50 -82q18 28 47 28q55 -2 57 -58q-2 -57 -57 -58q-64 0 -64 86q2 96 66 98q45 -2 53 -45
zM131 104q-39 -3 -41 -44q2 -44 41 -45q38 1 41 46q0 42 -41 43z" />
    <glyph glyph-name="uni247A" unicode="&#x247a;" 
d="M44 212h13q-39 -58 -39 -119t39 -117h-13q-44 57 -44 118t44 118zM212 -24h-13q38 56 39 118q-1 58 -39 118h13q45 -59 44 -119q1 -62 -44 -117zM70 166v17h115v-16q-63 -75 -73 -163h-18q9 81 72 162h-96z" />
    <glyph glyph-name="uni247B" unicode="&#x247b;" 
d="M44 212h13q-39 -58 -39 -119t39 -117h-13q-44 57 -44 118t44 118zM212 -24h-13q38 56 39 118q-1 58 -39 118h13q45 -59 44 -119q1 -62 -44 -117zM128 93q-44 -2 -44 -39q2 -37 45 -39q40 2 43 40q-2 36 -44 38zM127 171q-35 -2 -36 -32q0 -31 38 -32q34 0 35 35
q0 28 -37 29zM100 102q-29 14 -26 39q4 41 52 44q52 -3 54 -44q0 -29 -24 -40q31 -14 32 -45q-2 -54 -64 -55q-53 4 -56 53q0 35 32 48z" />
    <glyph glyph-name="uni247C" unicode="&#x247c;" 
d="M44 212h13q-39 -58 -39 -119t39 -117h-13q-44 57 -44 118t44 118zM212 -24h-13q38 56 39 118q-1 58 -39 118h13q45 -59 44 -119q1 -62 -44 -117zM70 45h17q6 -30 35 -30q48 -1 50 80v1q-17 -28 -49 -28q-54 2 -56 58q2 58 58 60q63 -1 64 -92q-3 -89 -66 -92
q-48 1 -53 43zM125 172q-41 -3 -41 -47q1 -42 41 -43q38 2 41 44q-2 43 -41 46z" />
    <glyph glyph-name="uni247D" unicode="&#x247d;" 
d="M44 212h13q-39 -58 -39 -119t39 -117h-13q-44 57 -44 118t44 118zM212 -24h-13q38 56 39 118q-1 58 -39 118h13q45 -59 44 -119q1 -62 -44 -117zM210 94q0 78 -35 78t-34 -80q-2 -79 34 -77q35 -1 35 79zM175 186q48 0 47 -94q0 -92 -47 -91q-49 -1 -47 93q-2 92 47 92z
M85 3v134h-47v11q47 -1 50 36h13v-181h-16z" />
    <glyph glyph-name="uni247E" unicode="&#x247e;" 
d="M44 212h13q-39 -58 -39 -119t39 -117h-13q-44 57 -44 118t44 118zM212 -24h-13q38 56 39 118q-1 58 -39 118h13q45 -59 44 -119q1 -62 -44 -117zM82 3v134h-46v11q45 -1 50 36h13v-181h-17zM181 3v134h-47v11q47 -1 50 36h13v-181h-16z" />
    <glyph glyph-name="uni247F" unicode="&#x247f;" 
d="M44 212h13q-39 -58 -39 -119t39 -117h-13q-44 57 -44 118t44 118zM212 -24h-13q38 56 39 118q-1 58 -39 118h13q45 -59 44 -119q1 -62 -44 -117zM76 3v134h-46v11q45 -1 50 36h13v-181h-17zM128 125h-16q2 56 54 59q49 -2 52 -50q0 -36 -51 -66q-16 -9 -22 -14
q-22 -17 -22 -37h92v-14h-108q-1 28 13 44q14 18 45 37q38 21 36 49q-2 34 -36 37q-36 -4 -37 -45z" />
    <glyph glyph-name="uni2480" unicode="&#x2480;" 
d="M44 212h13q-39 -58 -39 -119t39 -117h-13q-44 57 -44 118t44 118zM212 -24h-13q38 56 39 118q-1 58 -39 118h13q45 -59 44 -119q1 -62 -44 -117zM76 3v134h-46v11q45 -1 50 36h13v-181h-17zM152 91v13q51 -2 51 35q-2 30 -38 32q-37 -3 -39 -39h-16q-1 23 17 41
q13 12 41 12q50 -3 52 -45q-1 -29 -26 -40q31 -10 32 -45q-4 -51 -58 -54q-62 -2 -64 55h16q1 -41 45 -42q41 3 45 41q-3 38 -58 36z" />
    <glyph glyph-name="uni2481" unicode="&#x2481;" 
d="M44 212h13q-39 -58 -39 -119t39 -117h-13q-44 57 -44 118t44 118zM212 -24h-13q38 56 39 118q-1 58 -39 118h13q45 -59 44 -119q1 -62 -44 -117zM76 3v134h-46v11q45 -1 50 36h13v-181h-17zM185 4v45h-82v14l84 120h15v-121h25v-13h-25v-45h-17zM185 158l-66 -96h66v96z
" />
    <glyph glyph-name="uni2482" unicode="&#x2482;" 
d="M44 212h13q-39 -58 -39 -119t39 -117h-13q-44 57 -44 118t44 118zM212 -24h-13q38 56 39 118q-1 58 -39 118h13q45 -59 44 -119q1 -62 -44 -117zM76 3v134h-46v11q45 -1 50 36h13v-181h-17zM105 53h17q5 -37 43 -37q40 2 43 46q-3 43 -44 46q-24 0 -39 -19l-13 2l14 94
h89v-14h-75l-11 -61q18 12 39 12q53 -4 56 -60q-4 -56 -56 -60q-59 0 -63 51z" />
    <glyph glyph-name="uni2483" unicode="&#x2483;" 
d="M44 212h13q-39 -58 -39 -119t39 -117h-13q-44 57 -44 118t44 118zM212 -24h-13q38 56 39 118q-1 58 -39 118h13q45 -59 44 -119q1 -62 -44 -117zM76 3v134h-46v11q45 -1 50 36h13v-181h-17zM223 141h-16q-8 30 -35 31q-49 1 -50 -82q18 28 47 28q55 -2 57 -58
q-2 -57 -58 -58q-63 0 -63 86q2 96 66 98q45 -2 52 -45zM168 104q-38 -3 -40 -44q2 -44 41 -45q38 1 41 46q0 43 -42 43z" />
    <glyph glyph-name="uni2484" unicode="&#x2484;" 
d="M44 212h13q-39 -58 -39 -119t39 -117h-13q-44 57 -44 118t44 118zM212 -24h-13q38 56 39 118q-1 58 -39 118h13q45 -59 44 -119q1 -62 -44 -117zM76 3v134h-46v11q45 -1 50 36h13v-181h-17zM108 166v17h107v-16q-59 -74 -68 -163h-17q8 80 67 162h-89z" />
    <glyph glyph-name="uni2485" unicode="&#x2485;" 
d="M44 212h13q-39 -58 -39 -119t39 -117h-13q-44 57 -44 118t44 118zM212 -24h-13q38 56 39 118q-1 58 -39 118h13q45 -59 44 -119q1 -62 -44 -117zM76 3v134h-46v11q45 -1 50 36h13v-181h-17zM166 93q-44 -2 -44 -39q2 -37 45 -39q39 2 42 40q-2 36 -43 38zM165 171
q-35 -2 -36 -32q0 -31 38 -32q34 0 35 35q0 28 -37 29zM137 102q-28 14 -25 39q4 41 52 44q52 -3 54 -44q0 -29 -24 -40q31 -14 32 -45q-2 -54 -64 -55q-53 4 -56 53q0 35 31 48z" />
    <glyph glyph-name="uni2486" unicode="&#x2486;" 
d="M44 212h13q-39 -58 -39 -119t39 -117h-13q-44 57 -44 118t44 118zM212 -24h-13q38 56 39 118q-1 58 -39 118h13q45 -59 44 -119q1 -62 -44 -117zM76 3v134h-46v11q45 -1 50 36h13v-181h-17zM108 45h17q6 -30 35 -30q46 -1 50 80l-1 1q-17 -28 -48 -28q-54 2 -56 58
q2 58 58 60q63 0 63 -92q-2 -89 -65 -92q-49 0 -53 43zM163 172q-42 -2 -42 -47q1 -42 42 -43q38 2 41 44q-2 42 -41 46z" />
    <glyph glyph-name="uni2487" unicode="&#x2487;" 
d="M212 -24h-13q38 56 39 118q-1 58 -39 118h13q45 -59 44 -119q1 -62 -44 -117zM55 125h-13q2 56 44 59q37 -3 40 -50q0 -36 -39 -66q-11 -7 -18 -15q-18 -17 -18 -36h74v-14h-85q3 -4 10 -15q3 -6 7 -12h-13q-44 57 -44 118t44 118h13q-39 -58 -39 -119q-1 -42 21 -87
q0 7 0 6q1 21 10 35q11 18 35 37q30 21 29 49q-2 34 -29 37q-27 -4 -29 -45zM205 94q0 78 -33 78q-32 -1 -32 -80q-1 -79 33 -77q32 -1 32 79zM173 186q44 0 44 -94q0 -92 -44 -91q-46 -1 -45 93q-2 93 45 92z" />
    <glyph glyph-name="uni2488" unicode="&#x2488;" 
d="M89 3v134h-47v11q47 -1 50 36h13v-181h-16zM214 3h-19v23h19v-23z" />
    <glyph glyph-name="uni2489" unicode="&#x2489;" 
d="M60 125h-18q3 55 59 59q53 -3 56 -50q0 -36 -56 -66q-17 -9 -23 -14q-24 -17 -23 -37h100v-14h-118q-1 27 14 44q15 18 49 37q41 21 39 49q-3 34 -40 37q-37 -4 -39 -45zM219 3h-19v23h19v-23z" />
    <glyph glyph-name="uni248A" unicode="&#x248a;" 
d="M84 92v13q53 -2 52 35q-2 30 -38 32q-37 -3 -39 -39h-16q-1 23 17 41q13 12 41 12q50 -3 52 -45q-1 -29 -26 -40q31 -10 32 -45q-4 -51 -58 -54q-63 -2 -64 55h16q1 -41 45 -42q41 3 45 41q-3 38 -59 36zM220 3h-19v23h19v-23z" />
    <glyph glyph-name="uni248B" unicode="&#x248b;" 
d="M114 4v45h-83v14l84 120h15v-121h25v-13h-25v-45h-16zM114 158l-66 -96h66v96zM225 3h-19v23h19v-23z" />
    <glyph glyph-name="uni248C" unicode="&#x248c;" 
d="M37 53h16q6 -37 45 -37q40 2 43 46q-3 43 -45 46q-24 0 -39 -19l-13 2l14 94h90v-14h-76l-11 -61q18 12 39 12q54 -4 57 -60q-4 -56 -57 -60q-59 0 -63 51zM219 3h-19v23h19v-23z" />
    <glyph glyph-name="uni248D" unicode="&#x248d;" 
d="M155 141h-17q-6 30 -34 31q-48 1 -51 -82q18 28 48 28q55 -2 57 -58q-2 -57 -58 -58q-63 0 -63 86q1 96 65 98q46 -2 53 -45zM100 104q-39 -3 -41 -44q2 -44 41 -45q39 1 42 46q0 42 -42 43zM219 3h-18v23h18v-23z" />
    <glyph glyph-name="uni248E" unicode="&#x248e;" 
d="M38 166v17h115v-16q-63 -75 -73 -163h-18q9 81 72 162h-96zM218 3h-19v23h19v-23z" />
    <glyph glyph-name="uni248F" unicode="&#x248f;" 
d="M97 93q-43 -1 -43 -39q2 -37 44 -39q40 2 43 40q-2 36 -44 38zM97 171q-36 -2 -37 -32q0 -31 38 -32q34 0 35 35q0 28 -36 29zM69 102q-28 13 -25 39q4 41 51 44q53 -3 55 -44q0 -29 -25 -40q31 -14 32 -45q-2 -54 -64 -55q-53 4 -56 53q0 35 32 48zM219 3h-19v23h19v-23
z" />
    <glyph glyph-name="uni2490" unicode="&#x2490;" 
d="M40 45h17q5 -30 35 -30q46 -1 50 80l-1 1q-17 -28 -48 -28q-54 2 -56 58q2 58 58 60q63 0 63 -92q-2 -90 -66 -92q-48 0 -52 43zM95 172q-42 -2 -42 -47q1 -42 42 -43q37 1 40 44q-2 42 -40 46zM219 3h-18v23h18v-23z" />
    <glyph glyph-name="uni2491" unicode="&#x2491;" 
d="M194 94q0 78 -35 78t-34 -80q-1 -78 34 -77q35 -1 35 79zM159 186q48 0 48 -94q0 -92 -48 -91q-48 -1 -47 93q-2 92 47 92zM69 3v134h-47v11q47 -1 50 36h13v-181h-16zM234 3h-19v23h19v-23z" />
    <glyph glyph-name="uni2492" unicode="&#x2492;" 
d="M68 3v134h-47v11q46 -1 50 36h13v-181h-16zM166 3v134h-46v11q45 -1 49 36h14v-181h-17zM235 3h-19v23h19v-23z" />
    <glyph glyph-name="uni2493" unicode="&#x2493;" 
d="M65 3v134h-47v11q45 -1 50 36h13v-181h-16zM118 125h-17q3 56 58 59q53 -2 56 -50q0 -36 -56 -66q-17 -9 -23 -14q-24 -17 -23 -37h100v-14h-118q-1 27 14 44q15 18 49 37q41 21 39 49q-3 34 -40 37q-37 -4 -39 -45zM238 3h-19v23h19v-23z" />
    <glyph glyph-name="uni2494" unicode="&#x2494;" 
d="M65 3v134h-47v11q45 -1 50 36h13v-181h-16zM140 91v13q51 -2 51 35q-2 30 -38 32q-37 -3 -39 -39h-16q-1 23 17 41q14 12 41 12q50 -3 52 -45q0 -29 -26 -40q31 -10 32 -45q-4 -51 -58 -54q-62 -2 -64 55h16q1 -41 45 -42q41 3 45 41q-2 38 -58 36zM238 3h-19v23h19v-23z
" />
    <glyph glyph-name="uni2495" unicode="&#x2495;" 
d="M65 3v134h-47v11q45 -1 50 36h13v-181h-16zM174 4v45h-83v14l84 120h15v-121h25v-13h-25v-45h-16zM174 158l-67 -96h67v96zM238 3h-19v23h19v-23z" />
    <glyph glyph-name="uni2496" unicode="&#x2496;" 
d="M65 3v134h-47v11q45 -1 50 36h13v-181h-16zM94 53h16q5 -37 45 -37q40 2 43 46q-3 43 -45 46q-24 0 -39 -19l-14 2l15 94h90v-14h-76l-11 -61q18 12 39 12q54 -4 57 -60q-4 -56 -57 -60q-59 0 -63 51zM238 3h-19v23h19v-23z" />
    <glyph glyph-name="uni2497" unicode="&#x2497;" 
d="M65 3v134h-47v11q45 -1 50 36h13v-181h-16zM212 141h-17q-7 30 -34 31q-50 1 -51 -82q18 28 47 28q56 -2 58 -58q-2 -56 -58 -58q-64 0 -64 86q2 96 66 98q45 -2 53 -45zM157 104q-39 -3 -41 -44q2 -44 41 -45q38 1 41 46q0 42 -41 43zM238 3h-19v23h19v-23z" />
    <glyph glyph-name="uni2498" unicode="&#x2498;" 
d="M65 3v134h-47v11q45 -1 50 36h13v-181h-16zM97 166v17h114v-16q-63 -75 -73 -163h-18q9 81 72 162h-95zM238 3h-19v23h19v-23z" />
    <glyph glyph-name="uni2499" unicode="&#x2499;" 
d="M65 3v134h-47v11q45 -1 50 36h13v-181h-16zM154 93q-43 -1 -43 -39q2 -37 44 -39q40 2 43 40q-2 36 -44 38zM154 171q-36 -2 -37 -32q0 -31 38 -32q34 0 35 35q0 28 -36 29zM126 102q-28 13 -25 39q4 41 51 44q53 -3 55 -44q0 -29 -25 -40q31 -14 32 -45q-2 -54 -63 -55
q-54 4 -57 53q0 35 32 48zM238 3h-19v23h19v-23z" />
    <glyph glyph-name="uni249A" unicode="&#x249a;" 
d="M65 3v134h-47v11q45 -1 50 36h13v-181h-16zM96 45h17q6 -30 35 -30q48 -1 50 80v1q-17 -28 -49 -28q-54 2 -56 58q2 58 58 60q63 -1 64 -92q-3 -89 -66 -92q-48 1 -53 43zM151 172q-41 -3 -41 -47q1 -42 41 -43q38 2 41 44q-2 43 -41 46zM238 3h-19v23h19v-23z" />
    <glyph glyph-name="uni249B" unicode="&#x249b;" 
d="M38 125h-14q2 56 46 59q40 -3 43 -50q-1 -36 -42 -66q-14 -10 -19 -15q-19 -16 -18 -36h77v-14h-91q-1 28 11 44q12 18 37 37q32 21 31 49q-2 34 -31 37q-29 -4 -30 -45zM196 94q0 78 -35 78t-34 -80q-1 -78 35 -77q34 -1 34 79zM162 186q47 0 47 -94q0 -92 -47 -91
q-49 -1 -48 93q-2 92 48 92zM236 3h-18v23h18v-23z" />
    <glyph glyph-name="SF100000" unicode="&#x2500;" 
d="M0 96h256v-13h-256v13z" />
    <glyph glyph-name="uni2501" unicode="&#x2501;" 
d="M0 104h256v-29h-256v29z" />
    <glyph glyph-name="SF110000" unicode="&#x2502;" 
d="M121 218v-254h13v254h-13z" />
    <glyph glyph-name="uni2503" unicode="&#x2503;" 
d="M112 218v-254h29v254h-29z" />
    <glyph glyph-name="uni2504" unicode="&#x2504;" 
d="M14 96h56v-13h-56v13zM100 96h56v-13h-56v13zM186 96h56v-13h-56v13z" />
    <glyph glyph-name="uni2505" unicode="&#x2505;" 
d="M14 104h56v-29h-56v29zM100 104h56v-29h-56v29zM186 104h56v-29h-56v29z" />
    <glyph glyph-name="uni2506" unicode="&#x2506;" 
d="M120 204h13v-57h-13v57zM133 118v-57h-13v57h13zM133 32v-55h-13v55h13z" />
    <glyph glyph-name="uni2507" unicode="&#x2507;" 
d="M141 204v-57h-29v57h29zM141 118v-57h-29v57h29zM141 32v-55h-29v55h29z" />
    <glyph glyph-name="uni2508" unicode="&#x2508;" 
d="M12 96h40v-13h-40v13zM76 96h40v-13h-40v13zM140 96h40v-13h-40v13zM204 96h40v-13h-40v13z" />
    <glyph glyph-name="uni2509" unicode="&#x2509;" 
d="M12 104h40v-29h-40v29zM76 104h40v-29h-40v29zM140 104h40v-29h-40v29zM204 104h40v-29h-40v29z" />
    <glyph glyph-name="uni250A" unicode="&#x250a;" 
d="M133 206v-40h-13v40h13zM133 142v-40h-13v40h13zM133 78v-40h-13v40h13zM133 14v-38h-13v38h13z" />
    <glyph glyph-name="uni250B" unicode="&#x250b;" 
d="M141 206v-40h-29v40h29zM141 142v-40h-29v40h29zM141 78v-40h-29v40h29zM141 14v-38h-29v38h29z" />
    <glyph glyph-name="SF010000" unicode="&#x250c;" 
d="M256 96v-13h-122v-119h-13v132h135z" />
    <glyph glyph-name="uni250D" unicode="&#x250d;" 
d="M256 104v-29h-122v-111h-13v140h135z" />
    <glyph glyph-name="uni250E" unicode="&#x250e;" 
d="M256 96v-13h-114v-119h-29v132h143z" />
    <glyph glyph-name="uni250F" unicode="&#x250f;" 
d="M256 104v-29h-114v-111h-29v140h143z" />
    <glyph glyph-name="SF030000" unicode="&#x2510;" 
d="M0 83v13h134v-132h-13v119h-121z" />
    <glyph glyph-name="uni2511" unicode="&#x2511;" 
d="M0 104h134v-140h-13v111h-121v29z" />
    <glyph glyph-name="uni2512" unicode="&#x2512;" 
d="M0 96h142v-132h-29v119h-113v13z" />
    <glyph glyph-name="uni2513" unicode="&#x2513;" 
d="M0 104h142v-140h-29v111h-113v29z" />
    <glyph glyph-name="SF020000" unicode="&#x2514;" 
d="M134 218v-122h122v-13h-135v135h13z" />
    <glyph glyph-name="uni2515" unicode="&#x2515;" 
d="M134 218v-114h122v-29h-135v143h13z" />
    <glyph glyph-name="uni2516" unicode="&#x2516;" 
d="M142 218v-122h114v-13h-143v135h29z" />
    <glyph glyph-name="uni2517" unicode="&#x2517;" 
d="M142 218v-114h114v-29h-143v143h29z" />
    <glyph glyph-name="SF040000" unicode="&#x2518;" 
d="M0 96h121v122h13v-135h-134v13z" />
    <glyph glyph-name="uni2519" unicode="&#x2519;" 
d="M0 104h121v114h13v-143h-134v29z" />
    <glyph glyph-name="uni251A" unicode="&#x251a;" 
d="M0 96h113v122h29v-135h-142v13z" />
    <glyph glyph-name="uni251B" unicode="&#x251b;" 
d="M0 104h113v114h29v-143h-142v29z" />
    <glyph glyph-name="SF080000" unicode="&#x251c;" 
d="M134 218v-122h122v-13h-122v-119h-13v254h13z" />
    <glyph glyph-name="uni251D" unicode="&#x251d;" 
d="M134 218v-114h122v-29h-122v-111h-13v254h13z" />
    <glyph glyph-name="uni251E" unicode="&#x251e;" 
d="M142 218v-122h114v-13h-122v-119h-13v127h-8v127h29z" />
    <glyph glyph-name="uni251F" unicode="&#x251f;" 
d="M134 218v-122h122v-13h-114v-119h-29v124h8v130h13z" />
    <glyph glyph-name="uni2520" unicode="&#x2520;" 
d="M142 218v-122h114v-13h-114v-119h-29v254h29z" />
    <glyph glyph-name="uni2521" unicode="&#x2521;" 
d="M142 218v-114h114v-29h-122v-111h-13v111h-8v143h29z" />
    <glyph glyph-name="uni2522" unicode="&#x2522;" 
d="M134 218v-114h122v-29h-114v-111h-29v140h8v114h13z" />
    <glyph glyph-name="uni2523" unicode="&#x2523;" 
d="M142 218v-114h114v-29h-114v-111h-29v254h29z" />
    <glyph glyph-name="SF090000" unicode="&#x2524;" 
d="M134 218v-254h-13v119h-121v13h121v122h13z" />
    <glyph glyph-name="uni2525" unicode="&#x2525;" 
d="M134 218v-254h-13v111h-121v29h121v114h13z" />
    <glyph glyph-name="uni2526" unicode="&#x2526;" 
d="M142 218v-127h-8v-127h-13v119h-121v13h113v122h29z" />
    <glyph glyph-name="uni2527" unicode="&#x2527;" 
d="M134 218v-130h8v-124h-29v119h-113v13h121v122h13z" />
    <glyph glyph-name="uni2528" unicode="&#x2528;" 
d="M142 218v-254h-29v119h-113v13h113v122h29z" />
    <glyph glyph-name="uni2529" unicode="&#x2529;" 
d="M142 218v-143h-8v-111h-13v111h-121v29h113v114h29z" />
    <glyph glyph-name="uni252A" unicode="&#x252a;" 
d="M134 218v-114h8v-140h-29v111h-113v29h121v114h13z" />
    <glyph glyph-name="uni252B" unicode="&#x252b;" 
d="M142 218v-254h-29v111h-113v29h113v114h29z" />
    <glyph glyph-name="SF060000" unicode="&#x252c;" 
d="M0 96h256v-13h-122v-119h-13v119h-121v13z" />
    <glyph glyph-name="uni252D" unicode="&#x252d;" 
d="M0 104h134v-8h122v-13h-122v-120h-13v112h-121v29z" />
    <glyph glyph-name="uni252E" unicode="&#x252e;" 
d="M0 96h121v8h135v-29h-122v-111h-13v119h-121v13z" />
    <glyph glyph-name="uni252F" unicode="&#x252f;" 
d="M0 104h256v-29h-122v-111h-13v111h-121v29z" />
    <glyph glyph-name="uni2530" unicode="&#x2530;" 
d="M0 96h256v-13h-114v-119h-29v119h-113v13z" />
    <glyph glyph-name="uni2531" unicode="&#x2531;" 
d="M0 104h142v-8h114v-13h-114v-119h-29v111h-113v29z" />
    <glyph glyph-name="uni2532" unicode="&#x2532;" 
d="M0 96h113v8h143v-29h-114v-111h-29v119h-113v13z" />
    <glyph glyph-name="uni2533" unicode="&#x2533;" 
d="M0 104h256v-29h-114v-111h-29v111h-113v29z" />
    <glyph glyph-name="SF070000" unicode="&#x2534;" 
d="M0 96h121v122h13v-122h122v-13h-256v13z" />
    <glyph glyph-name="uni2535" unicode="&#x2535;" 
d="M134 218v-122h122v-13h-122v-8h-134v29h121v114h13z" />
    <glyph glyph-name="uni2536" unicode="&#x2536;" 
d="M134 218v-114h122v-29h-135v8h-121v13h121v122h13z" />
    <glyph glyph-name="uni2537" unicode="&#x2537;" 
d="M134 218v-114h122v-29h-256v29h121v114h13z" />
    <glyph glyph-name="uni2538" unicode="&#x2538;" 
d="M142 218v-122h114v-13h-256v13h113v122h29z" />
    <glyph glyph-name="uni2539" unicode="&#x2539;" 
d="M142 218v-122h114v-13h-114v-8h-142v29h113v114h29z" />
    <glyph glyph-name="uni253A" unicode="&#x253a;" 
d="M142 218v-114h114v-29h-143v8h-113v13h113v122h29z" />
    <glyph glyph-name="uni253B" unicode="&#x253b;" 
d="M142 218v-114h114v-29h-256v29h113v114h29z" />
    <glyph glyph-name="SF050000" unicode="&#x253c;" 
d="M134 218v-122h122v-13h-122v-119h-13v119h-121v13h121v122h13z" />
    <glyph glyph-name="uni253D" unicode="&#x253d;" 
d="M134 218v-122h122v-13h-122v-119h-13v111h-121v29h121v114h13z" />
    <glyph glyph-name="uni253E" unicode="&#x253e;" 
d="M134 218v-114h122v-29h-122v-111h-13v119h-121v13h121v122h13z" />
    <glyph glyph-name="uni253F" unicode="&#x253f;" 
d="M134 218v-114h122v-29h-122v-111h-13v111h-121v29h121v114h13z" />
    <glyph glyph-name="uni2540" unicode="&#x2540;" 
d="M142 218v-122h114v-13h-122v-119h-13v119h-121v13h113v122h29z" />
    <glyph glyph-name="uni2541" unicode="&#x2541;" 
d="M134 218v-122h122v-13h-114v-119h-29v119h-113v13h121v122h13z" />
    <glyph glyph-name="uni2542" unicode="&#x2542;" 
d="M142 218v-122h114v-13h-114v-119h-29v119h-113v13h113v122h29z" />
    <glyph glyph-name="uni2543" unicode="&#x2543;" 
d="M142 218v-122h114v-13h-122v-119h-13v111h-121v29h113v114h29z" />
    <glyph glyph-name="uni2544" unicode="&#x2544;" 
d="M142 218v-114h114v-29h-122v-111h-13v119h-121v13h113v122h29z" />
    <glyph glyph-name="uni2545" unicode="&#x2545;" 
d="M134 218v-122h122v-13h-114v-119h-29v111h-113v29h121v114h13z" />
    <glyph glyph-name="uni2546" unicode="&#x2546;" 
d="M134 218v-114h122v-29h-114v-111h-29v119h-113v13h121v122h13z" />
    <glyph glyph-name="uni2547" unicode="&#x2547;" 
d="M142 218v-114h114v-29h-122v-111h-13v111h-121v29h113v114h29z" />
    <glyph glyph-name="uni2548" unicode="&#x2548;" 
d="M134 218v-114h122v-29h-114v-111h-29v111h-113v29h121v114h13z" />
    <glyph glyph-name="uni2549" unicode="&#x2549;" 
d="M142 218v-122h114v-13h-114v-119h-29v111h-113v29h113v114h29z" />
    <glyph glyph-name="uni254A" unicode="&#x254a;" 
d="M142 218v-114h114v-29h-114v-111h-29v119h-113v13h113v122h29z" />
    <glyph glyph-name="uni254B" unicode="&#x254b;" 
d="M142 218v-114h114v-29h-114v-111h-29v111h-113v29h113v114h29z" />
    <glyph glyph-name="filledbox" unicode="&#x25a0;" 
d="M230 -14h-204v202h204v-202z" />
    <glyph glyph-name="H22073" unicode="&#x25a1;" 
d="M230 -14h-204v202h204v-202zM37 177v-180h182v180h-182z" />
    <glyph glyph-name="triagup" unicode="&#x25b2;" 
d="M221 0h-186l93 188z" />
    <glyph glyph-name="uni25B3" unicode="&#x25b3;" 
d="M128 164l-76 -153h152zM221 0h-186l93 188z" />
    <glyph glyph-name="uni25C6" unicode="&#x25c6;" 
d="M128 0l-96 94l96 96l96 -96z" />
    <glyph glyph-name="uni25C7" unicode="&#x25c7;" 
d="M128 13l81 81l-81 81l-81 -81zM128 0l-96 94l96 96l96 -96z" />
    <glyph glyph-name="circle" unicode="&#x25cb;" 
d="M128 9q74 7 82 82q-8 75 -82 83q-75 -8 -82 -83q7 -75 82 -82zM128 184q84 -9 93 -93q-8 -84 -93 -91q-86 7 -93 91q8 84 93 93z" />
    <glyph glyph-name="uni25CE" unicode="&#x25ce;" 
d="M128 184q84 -9 93 -93q-8 -84 -93 -91q-86 7 -93 91q8 84 93 93zM128 178q-80 -8 -87 -87q7 -79 87 -86q79 7 87 86q-8 79 -87 87zM128 156q59 -6 65 -64q-6 -60 -65 -65q-60 5 -65 65q5 58 65 64zM128 149q-53 -6 -58 -57q5 -53 58 -58q53 5 58 58q-6 51 -58 57z" />
    <glyph glyph-name="H18533" unicode="&#x25cf;" 
d="M128 184q84 -9 93 -93q-8 -84 -93 -91q-86 7 -93 91q8 84 93 93z" />
    <glyph glyph-name="uni2605" unicode="&#x2605;" 
d="M128 179l24 -70h71l-58 -44l21 -67l-58 39l-58 -39l21 67l-58 44h71z" />
    <glyph glyph-name="uni2606" unicode="&#x2606;" 
d="M83 12l45 34l45 -33l1 1l-18 54l46 34h-57l-17 55h-1l-17 -55h-56l45 -34l-17 -55zM128 179l24 -70h71l-58 -44l21 -67l-58 40l-58 -40l20 67l-57 44h71z" />
    <glyph glyph-name="female" unicode="&#x2640;" 
d="M83 129q3 -42 45 -45q41 3 45 45q-4 41 -45 45q-42 -4 -45 -45zM84 19v12h38v42q-48 9 -51 56q5 51 57 57q51 -6 57 -57q-4 -47 -51 -56v-42h38v-12h-38v-29h-12v29h-38z" />
    <glyph glyph-name="male" unicode="&#x2642;" 
d="M83 46q3 -43 45 -46q41 3 45 46q-4 41 -45 45q-42 -4 -45 -45zM84 137l-3 5q33 22 45 43h5q8 -17 38 -39l6 -3l-2 -6q-23 9 -39 26v-61q46 -9 51 -56q-5 -50 -57 -55q-53 5 -57 55q3 46 51 56v60q-17 -15 -38 -25z" />
    <glyph glyph-name="uni3000" unicode="&#x3000;" 
 />
    <glyph glyph-name="uni3001" unicode="&#x3001;" 
d="M100 -12l-8 -11q-24 28 -64 52l8 10q41 -25 64 -51z" />
    <glyph glyph-name="uni3002" unicode="&#x3002;" 
d="M65 44q-29 -3 -31 -31q2 -26 31 -29q28 3 31 29q-3 28 -31 31zM65 54q37 -4 41 -41q-4 -35 -41 -39q-38 3 -41 39q3 37 41 41z" />
    <glyph glyph-name="uni3003" unicode="&#x3003;" 
d="M130 132l-45 -87h-4l28 84q3 10 11 11q9 1 10 -8zM175 132l-45 -87h-4l28 84q2 10 10 11q12 0 11 -8z" />
    <glyph glyph-name="uni3005" unicode="&#x3005;" 
d="M109 189l24 -12q1 -1 1 -4t-6 -6l-3 -1q-7 -16 -17 -28h60q2 -1 7 3q5 3 8 3q16 -11 21 -22q-1 -7 -6 -7h-6q-3 0 -5 -5l-1 -1q-23 -33 -50 -63q37 -31 10 -41q-7 0 -22 25q-5 8 -6 11q-13 17 -27 29l1 2q19 -8 35 -19q30 34 52 74q-1 1 -2 1h-75q-26 -29 -47 -38
q-4 0 -3 4q62 56 51 89q1 7 6 6z" />
    <glyph glyph-name="uni3008" unicode="&#x3008;" 
d="M195 213l-62 -123l62 -122l-7 -3l-65 125l65 126z" />
    <glyph glyph-name="uni3009" unicode="&#x3009;" 
d="M61 213l7 3l65 -126l-65 -125l-7 3l62 122z" />
    <glyph glyph-name="uni300A" unicode="&#x300a;" 
d="M185 211l-65 -121l65 -120l-6 -3l-67 123l67 125zM208 212l-64 -122l64 -121l-5 -2l-67 123l67 125z" />
    <glyph glyph-name="uni300B" unicode="&#x300b;" 
d="M71 211l6 4l67 -125l-67 -123l-6 3l65 120zM48 212l5 3l67 -125l-67 -123l-5 2l64 121z" />
    <glyph glyph-name="uni300C" unicode="&#x300c;" 
d="M210 201h-78v-229h-8v238h86v-9z" />
    <glyph glyph-name="uni300D" unicode="&#x300d;" 
d="M46 -21h78v231h8v-238h-86v7z" />
    <glyph glyph-name="uni300E" unicode="&#x300e;" 
d="M115 207h72v-27h-46v-206h-26v233zM182 202h-62v-223h16v206h46v17z" />
    <glyph glyph-name="uni300F" unicode="&#x300f;" 
d="M141 -26h-72v26h46v207h26v-233zM74 -21h62v223h-16v-206h-46v-17z" />
    <glyph glyph-name="uni3010" unicode="&#x3010;" 
d="M114 -35v251h62q-34 -57 -34 -125q-2 -75 34 -126h-62z" />
    <glyph glyph-name="uni3011" unicode="&#x3011;" 
d="M142 -35h-62q35 51 34 126q-1 68 -34 125h62v-251z" />
    <glyph glyph-name="uni3013" unicode="&#x3013;" 
d="M55 157h146v-40h-146v40zM55 74h146v-40h-146v40z" />
    <glyph glyph-name="uni3014" unicode="&#x3014;" 
d="M188 207l-56 -29v-178l53 -25l-2 -8l-59 29v187l61 32z" />
    <glyph glyph-name="uni3015" unicode="&#x3015;" 
d="M68 207l3 8l61 -32v-187l-59 -29l-2 8l53 25v178z" />
    <glyph glyph-name="uni3016" unicode="&#x3016;" 
d="M116 214h64q-39 -44 -40 -124q1 -80 40 -122h-64v246zM121 209v-236h48q-35 45 -34 117q-1 71 34 119h-48z" />
    <glyph glyph-name="uni3017" unicode="&#x3017;" 
d="M140 214v-246h-64q38 42 40 122q-2 80 -40 124h64zM135 209h-48q34 -48 34 -119q0 -72 -34 -117h48v236z" />
    <glyph glyph-name="uni3041" unicode="&#x3041;" 
d="M125 29l-19 -6q-1 3 -2 5q-2 -1 -3 -2q-32 -23 -51 -7q-8 6 -8 20v3q0 8 7 25q2 3 3 5q10 14 24 25q9 7 23 13v1q-1 3 1 11q1 7 1 11h-24h-18l-2 19q10 -2 22 -1h13h12v1q1 6 2 14v3q0 2 -1 7q-1 4 0 7h6q4 0 15 -2q3 -1 7 -1q-4 -7 -9 -23q-1 -3 -1 -4q24 3 45 9l2 -19
q-25 -7 -50 -8q-2 -9 -4 -19q12 3 24 3h3q1 4 1 11h2l22 -4q-2 -5 -3 -9q16 -3 29 -12q19 -13 20 -38v-5q-1 -24 -17 -39q-12 -15 -34 -21q-2 -2 -2 0l-15 13v3q16 2 30 13q16 13 17 30v5q-2 25 -33 35q-13 -32 -39 -59v-3q1 -4 4 -10zM114 94v-10q0 -9 1 -17q0 -2 1 -2l2 2
q11 14 20 36q-4 -1 -3 -1q-14 -2 -21 -4v-4zM97 78v11v2q-22 -12 -29 -28q-13 -20 -2 -27q5 -6 17 1q8 3 17 11q-3 15 -3 30z" />
    <glyph glyph-name="uni3042" unicode="&#x3042;" 
d="M56 157h15h16q6 1 8 1v5q3 16 3 26q0 4 -1 10h5q4 0 13 -2h13q0 -4 -3 -10q-1 -3 -1 -5q-1 -4 -2 -11q-2 -7 -2 -10q4 0 11 2q27 3 45 10v-25q-27 -7 -55 -11h-5q-1 -10 -2 -24q13 3 31 6q-1 0 0 4q1 3 1 4l-1 1q0 3 3 5l24 -4l1 -2q-2 -3 -1 -2q-1 -1 -3 -7
q23 -2 40 -15q22 -24 23 -49v-7q-1 -37 -39 -60q-15 -9 -24 -10h-1q-13 13 -22 19q24 3 43 16q18 15 19 37v3q-2 24 -21 39q-4 1 -11 3q-2 0 -2 1q-5 2 -11 3q-14 -39 -43 -73q4 -13 7 -18q-4 -1 -11 -4t-10 -3q-4 0 -5 6q-7 -6 -11 -6q-19 -14 -37 -15h-4q-23 2 -25 34v4
q0 29 29 59q13 12 37 23q0 6 1 18q1 13 1 11q-5 0 -16 -1h-16h-15q-4 -1 -3 1q-4 4 -6 14q-1 0 -1 1q-2 6 0 9q10 -2 21 -1zM94 29l-1 3q-3 25 -3 50q-24 -13 -37 -38q-6 -10 -6 -20q0 -15 13 -15q12 0 25 11q3 5 9 9zM114 93v-24q-1 -18 1 -18q19 26 26 48q-18 -4 -24 -5
q-1 -1 -3 -1z" />
    <glyph glyph-name="uni3043" unicode="&#x3043;" 
d="M39 154l24 -6q1 -4 -2 -7v-6q0 -34 13 -66l3 -6q5 -13 11 -15q2 -2 4 -1q5 0 11 6l2 2q7 5 13 14h2l11 -19v-3q-9 -9 -17 -16q-13 -12 -23 -11q-16 -1 -32 32q-10 19 -17 65l-3 21q0 4 -2 12v4h2zM219 77l-22 -8q-15 36 -38 68l17 9h2q27 -36 41 -69z" />
    <glyph glyph-name="uni3044" unicode="&#x3044;" 
d="M17 167l1 1q17 -3 34 -7q-1 -3 -2 -8q-3 -7 -2 -10q-2 -6 -1 -12v-7q0 -25 4 -42q5 -21 14 -40q7 -17 17 -16q6 -1 15 7t16 19h2l12 -18q1 -2 0 -3q-4 -11 -14 -18q-16 -13 -33 -14q-24 1 -38 31q-4 6 -7 19q-3 9 -4 14q-6 28 -9 56q-1 3 -2 9t-1 10q-1 5 -1 14
q-1 9 -1 15zM166 141l23 7h2q17 -22 39 -65q7 -14 9 -22l-24 -11h-4q-16 47 -46 88z" />
    <glyph glyph-name="uni3045" unicode="&#x3045;" 
d="M173 175l-6 -21q-26 4 -51 14h-2q-5 1 -5 5l7 18q27 -13 57 -16zM184 91v-5q-2 -54 -51 -87l-17 14q32 18 42 48q4 12 4 23q0 1 1 2q0 9 -6 19q-9 13 -27 8q-11 -5 -20 -9q-8 -5 -13 -7q-5 -3 -7 -2l-18 23q1 1 2 1h6q6 -1 30 8l8 2q17 6 27 6h5q13 -1 24 -12
q9 -16 10 -32z" />
    <glyph glyph-name="uni3046" unicode="&#x3046;" 
d="M101 183l10 24h1q39 -17 70 -21l1 -1q-1 -4 -3 -10q-3 -11 -3 -16l-1 -1q-7 0 -19 4q-2 0 -2 1q-15 3 -40 12q-9 3 -13 5zM59 119h7q10 -1 28 6q13 2 26 7q15 4 32 5h3q22 -2 33 -18q9 -13 9 -33v-9q-2 -62 -55 -108q-2 1 -3 -1q-2 -1 -3 -1h-1l-2 2q-7 6 -19 14v2
q54 35 56 97v5q-2 26 -22 27h-4q-10 0 -27 -8l-2 -1q-15 -5 -27 -14q-2 -1 -3 -2q-3 -3 -5 -2l-21 29v3z" />
    <glyph glyph-name="uni3047" unicode="&#x3047;" 
d="M166 165l-11 -19q-26 8 -51 22v1l11 17q33 -17 51 -21zM144 133l20 -11v-3q-14 -9 -33 -33q-4 -5 -5 -7h7q10 0 14 -6q4 -4 6 -11q1 -24 3 -27q5 -12 18 -12h4q16 0 30 6v-24q-15 -3 -31 -3h-11q-14 0 -22 7q-7 8 -8 19q-2 12 -3 24q-4 7 -10 9h-4q-1 0 -2 -1q-2 -1 -2 0
q-9 -5 -18 -18q-10 -10 -23 -27q-2 -3 -5 -7q-1 -2 -2 -3l-19 15q47 46 75 91q-7 -3 -22 -5q-15 -3 -21 -5q-2 -1 -3 -2q-3 -2 -5 -1l-10 24l28 2q35 1 53 9h1z" />
    <glyph glyph-name="uni3048" unicode="&#x3048;" 
d="M110 205h2q30 -17 49 -23q1 -2 3 -2q4 -2 5 -3l-8 -21l-3 -1q-31 11 -59 28v2q4 9 11 20zM46 125h5q27 0 53 5q18 1 34 7q4 2 6 4h2l23 -14q1 -1 1 -5q-13 -9 -33 -34q-7 -10 -11 -15h7q11 0 19 -6q5 -7 7 -20q4 -23 6 -27q3 -12 14 -13h12q8 -1 17 1q8 1 19 4v-27
q-17 -1 -32 -2h-21q-20 1 -28 13q-7 8 -10 30q-2 13 -3 15q-5 9 -13 9q-12 0 -21 -12q-25 -28 -43 -55h-2q-12 10 -25 16v1q29 26 70 77q16 19 24 34l-1 2q-11 -5 -31 -9q-11 -2 -22 -5q-2 -1 -5 -3t-5 -1z" />
    <glyph glyph-name="uni3049" unicode="&#x3049;" 
d="M164 137l10 17q19 -11 38 -24l-11 -16q-24 18 -37 23zM88 178l26 -3l2 -2q-6 -11 -7 -27q0 -6 0 -3q4 0 12 2q10 2 16 3v-18q-9 -3 -17 -5q-10 -2 -12 -2v-29q23 9 41 9h6q17 -1 30 -8q15 -12 16 -29v-4q-1 -23 -19 -35q-15 -10 -40 -15l-2 1l-11 16v2q50 6 51 32
q-1 23 -31 24q-17 -1 -41 -13v-11q0 -7 1 -20t1 -18v-5q-1 -10 -11 -14t-23 2q-32 11 -32 32q-1 14 17 27q11 9 25 17v16v9q1 7 1 11q-9 -2 -26 -1h-7l-2 21q0 -1 2 -1q5 -1 12 -1h4q5 0 16 1q2 0 3 1v13v6q0 4 -2 13v5zM87 63q-23 -16 -22 -23q0 -5 6 -9q5 -5 14 -5
q3 0 4 3q-1 16 -2 31v3z" />
    <glyph glyph-name="uni304A" unicode="&#x304a;" 
d="M229 138l1 -1l-12 -21h-2q-24 16 -49 29v2l12 17l2 1q29 -15 48 -27zM72 194h7q5 0 15 -2q9 -2 15 -1l1 -2q-6 -20 -7 -41q1 0 9 3q16 4 24 8l1 -25q-18 -6 -36 -10q-2 -9 -1 -18v-17q29 13 54 14h4q24 -1 40 -10q19 -14 20 -36v-5q-1 -14 -6 -24q-6 -12 -18 -20
q-22 -14 -53 -18q-6 10 -16 23q16 1 33 7q21 8 28 20q6 11 0 25q-9 13 -30 14h-5q-22 0 -49 -14q-1 -4 1 -8l2 -32q1 -9 1 -16v-5q-2 -17 -15 -24q-14 -2 -29 5q-36 13 -36 34q-1 15 14 31q17 17 35 27q-1 11 -1 21t1 21q-30 -4 -36 -3h-7l-3 25l1 2q11 -2 22 -2q14 -1 24 2
q0 19 -4 51zM77 50q-2 -1 -3 -2q-17 -11 -20 -20t4 -15q11 -10 19 -4q3 2 3 9q-1 7 -2 17q0 2 -1 7t0 8z" />
    <glyph glyph-name="uni304B" unicode="&#x304b;" 
d="M171 148v3q3 2 9 7q5 4 9 7q3 1 9 -6q10 -9 19 -21q17 -20 31 -41v-3l-24 -15q-29 44 -53 69zM122 135h15q15 0 20 -8q6 -8 6 -19v-4q-1 -14 -3 -29t-6 -30q-9 -35 -28 -45q-12 -7 -34 -7h-5l-3 1q-2 4 -6 10q-4 9 -6 15v1q3 0 10 -1q7 -2 11 -1h4q12 -1 19 9q4 4 9 17
q1 1 2 3q8 22 9 48v6q-2 11 -10 12q-6 0 -33 -3q-14 -44 -38 -82q-9 -16 -21 -28q-5 0 -12 4q-4 3 -5 4h-3q-6 1 -6 5q21 18 39 54q10 19 19 39q-16 -1 -29 -8l-1 -1q-4 -3 -7 -2l-14 29l1 2q8 -3 28 -1q6 1 10 2q9 3 19 3q1 5 3 10q5 18 6 40v4l-1 2q-1 3 0 5q27 -5 33 -6
q0 -5 -4 -10l-1 -1q-3 -5 -4 -15v-4q-1 -4 -2 -11q-2 -8 -2 -11q10 1 21 2z" />
    <glyph glyph-name="uni304C" unicode="&#x304c;" 
d="M222 94l-1 -2l-21 -12q-20 37 -49 68v3l19 11q27 -27 52 -68zM229 161v-2l-13 -11h-2q-14 20 -24 26v2l12 10h2q10 -8 25 -25zM215 195v2l12 10h2q0 -1 2 -3q11 -9 17 -14q6 -6 6 -10l-12 -11h-2q-11 15 -25 26zM69 191l34 -8q-1 -3 -4 -8q-1 -3 -2 -5q-2 -4 -3 -11v-5
q-1 -5 -3 -13q-1 -6 -1 -9q2 0 8 1q5 0 8 1q2 -1 6 0q3 1 6 1h4q9 0 19 -4q10 -8 10 -20v-12q0 -28 -9 -63q-7 -35 -27 -39q-16 -6 -31 -7h-7q-2 6 -12 26l1 2q17 -4 21 -3h4q14 0 21 13q5 10 9 27q6 29 6 46q-1 12 -14 12q-6 -2 -15 -3q-10 -1 -15 -2q-20 -68 -55 -111
l-2 -1q-4 3 -24 11v2q23 26 36 51q6 10 15 33l4 10l-30 -10q-5 -4 -9 -3l-11 28l2 2q2 -1 5 -1q4 -1 9 0q7 1 21 4q12 3 19 4q-1 3 1 6q2 12 3 24t2 23v11z" />
    <glyph glyph-name="uni304D" unicode="&#x304d;" 
d="M168 186h2q8 -14 9 -21q-8 -5 -25 -11q-5 -2 -7 -2q2 -5 7 -14q5 -10 8 -14l18 6q11 4 18 7h3l9 -18l-1 -3q-5 -2 -12 -4t-11 -3q-7 -4 -13 -4q1 -3 3 -6q11 -20 28 -39q0 -1 1 -2q4 -5 4 -8l-22 -21q-33 20 -80 21h-6q-13 -1 -21 -4q-14 -9 -9 -22q1 -5 11 -11
q10 -7 23 -8q15 -3 30 -3h5q6 -1 12 1l-2 -28h-7q-94 5 -97 54v5q0 16 20 29q18 9 40 9h10q21 0 50 -9h1q-2 3 -6 10q-4 6 -13 25q-11 -3 -21 -4q-27 -4 -55 -5l-2 1l-12 19l1 2h7q28 0 57 5q7 0 14 2q-6 13 -13 28q-22 -6 -43 -9l-6 9q-3 3 -4 6q-4 2 -4 7h2q21 2 44 8
l-6 12q-4 7 -5 12q-1 1 -2 4t-1 6l27 5q6 -17 12 -32q15 4 30 12z" />
    <glyph glyph-name="uni304E" unicode="&#x304e;" 
d="M205 172l-1 -3l-14 -10h-2q-6 5 -11 11q-11 13 -18 19v2l15 10h3q3 -4 7 -8q8 -7 21 -21zM233 189v-2l-13 -11h-2q-14 16 -30 30v2l15 10h2q16 -13 28 -29zM137 184l11 -19v-3q-13 -9 -34 -15q0 -3 4 -7q3 -5 4 -7q2 -6 7 -12q19 6 39 15l10 -20q-17 -11 -36 -16
q9 -15 21 -30q2 -4 8 -11t9 -10l1 -2l-25 -16q-29 13 -59 14h-11q-16 -1 -28 -6q-17 -14 -5 -29q8 -6 19 -8q3 -2 9 -2h13h5h14h3q6 2 8 1v-26h-26q-24 0 -46 9q-28 12 -29 36v6q1 21 24 33q16 6 42 7h11q8 0 24 -2q7 -1 14 -1q-11 13 -19 29q-3 0 -7 -1h-5q-34 -7 -60 -7
h-8l-11 25h12q33 0 65 6q-6 13 -13 26q-20 -6 -41 -6h-4l-13 22h6q9 0 18 2q11 0 22 4q-9 18 -20 36l32 6h2q0 -15 9 -36q17 6 34 15z" />
    <glyph glyph-name="uni304F" unicode="&#x304f;" 
d="M144 205h2l27 -19v-3q-10 -9 -20 -25q-20 -26 -40 -50q-1 -2 -3 -4q-8 -10 -7 -16q0 -9 8 -15q3 -6 13 -17q3 -4 5 -5q12 -17 26 -34q2 -4 5 -8q12 -14 18 -24v-2l-25 -16h-2q-5 7 -12 21q-8 12 -12 19q-7 12 -24 34q-6 7 -11 16q-10 13 -12 16q-3 6 -2 13v4q0 12 10 24
q2 3 5 7q7 9 11 15q18 20 30 46q6 10 10 23z" />
    <glyph glyph-name="uni3050" unicode="&#x3050;" 
d="M110 205h2q13 -9 28 -15v-2q-4 -4 -9 -11q-1 -2 -1 -3q-19 -31 -40 -59q-7 -8 -11 -15q-6 -10 -5 -12q0 -7 8 -15q1 -1 2 -1q45 -51 63 -76q0 -1 2 -3q3 -5 3 -8l-24 -16h-2q-18 33 -59 83q-14 14 -18 24q-7 11 3 29q2 3 7 11q4 7 7 11q35 48 44 78zM144 138v3l13 13h2
q1 -2 5 -5q13 -9 19 -14q0 -1 1 -2q2 -1 3 -3q-1 -3 -2 -3l-6 -6q-4 -3 -6 -5h-2l-6 4q-13 13 -21 18zM168 164l12 14q5 -1 15 -9q1 -1 3 -2q6 -7 12 -11v-2l-13 -13q-1 -2 -2 0q-14 10 -27 21v2z" />
    <glyph glyph-name="uni3051" unicode="&#x3051;" 
d="M49 93v-11q-1 -31 8 -48h2q3 4 8 14l6 10h2l8 -6q-13 -33 -12 -56v-6q-5 1 -11 -1q-7 -1 -11 -1q-7 10 -11 19q-13 33 -13 74v14q0 31 8 63q6 20 0 33q12 0 32 -8q0 -4 -3 -12q-2 -5 -2 -6q-11 -43 -11 -72zM159 191l37 -2q0 -4 -3 -9q-1 -4 -1 -6q-2 -8 -1 -13v-8
q-1 -10 1 -19q18 4 36 9l3 -24q-19 -6 -38 -9v-17q0 -25 -2 -37q-1 -15 -5 -25q-13 -34 -41 -54h-1q-2 0 -3 1q-2 2 -3 1q-9 6 -18 10l-1 1q29 19 40 41q10 21 10 63v12q-21 -2 -41 -1h-13h-3l-9 26l1 2q27 -4 33 -3h14q9 -1 17 1q-2 36 -9 60z" />
    <glyph glyph-name="uni3052" unicode="&#x3052;" 
d="M17 194l32 -8q-1 -6 -5 -14q-1 -3 -1 -5q-7 -22 -10 -41t-2 -35v-15q0 -23 10 -42h2q2 3 12 27l13 -11q-13 -24 -16 -60l-19 -2q-26 38 -26 92v13q-1 11 1 24q1 13 5 34q2 13 3 20q1 9 1 17v6zM185 185l14 12q3 -4 7 -7q13 -11 19 -17l-13 -14q-12 13 -27 26zM207 205
l13 13q2 -3 7 -7q15 -11 22 -17l-13 -14q-13 14 -29 25zM141 194h5q6 -1 13 -2q8 -1 16 -1q-3 -12 -3 -24v-4v-14q1 -8 2 -12q7 0 33 8h2q1 -14 3 -25q-9 -3 -26 -6q-6 -1 -9 -1q-1 1 -1 2q0 4 0 1q0 -4 1 -12v-9l-2 -28q-2 -13 -4 -25q-8 -26 -25 -45q-8 -10 -16 -18
q-13 7 -26 8l-1 1q24 18 37 46q11 27 11 59v13q0 16 0 5q-6 -2 -11 -1q-17 -2 -33 -1h-15l-6 25l1 1q13 -2 27 -2h13q14 -1 21 1q-3 18 -4 30q-2 22 -3 30z" />
    <glyph glyph-name="uni3053" unicode="&#x3053;" 
d="M125 169h8q16 0 47 7q2 0 3 1v-29q-22 -2 -41 -2h-23q-22 0 -41 4l-2 1l-6 28l1 1q38 -12 54 -11zM120 29h21q36 0 74 9v-32q-32 -6 -77 -6h-15q-30 0 -47 8q-17 6 -35 26v3l17 15q0 1 1 0q16 -16 29 -19q10 -5 32 -4z" />
    <glyph glyph-name="uni3054" unicode="&#x3054;" 
d="M53 151l-6 27l18 -4q22 -6 35 -5h4q10 -1 23 1q11 2 30 7v-31q-18 -3 -34 -3h-11q-12 -1 -26 1q-13 2 -33 7zM13 37l18 15q1 1 3 0q14 -15 27 -19q16 -7 39 -7h12q39 0 77 11v-35q-14 -2 -31 -2h-42h-17q-28 0 -40 4q-21 5 -40 25q-7 3 -6 8zM178 138v3l13 13h2
q12 -9 24 -19q2 -3 4 -5q-1 -1 -1 -2t-1 -1l-6 -6q-4 -3 -6 -5h-2q-14 12 -27 22zM202 164l12 14q5 -1 15 -9q1 -1 3 -2q6 -7 12 -11v-2l-13 -13q-2 -2 -2 0q-14 10 -27 21v2z" />
    <glyph glyph-name="uni3055" unicode="&#x3055;" 
d="M187 162l2 -1l6 -20v-4q-17 -6 -34 -10q25 -44 49 -66v-2l-23 -18h-3q-16 11 -35 17q-10 2 -18 3q-8 2 -15 2h-4q-14 -1 -27 -5q-15 -10 -15 -21q-1 -6 4 -10q6 -9 18 -12q13 -7 36 -6h12h17h1l-3 -26h-17q-33 1 -60 13q-32 12 -32 41v4q1 22 20 35q14 7 36 8h13
q32 0 52 -11l1 3q-18 21 -32 45q-38 -8 -77 -10l-10 23l1 2q7 -2 14 -1h4q28 -1 57 7q-2 1 -2 3q-1 1 -2 3q-11 21 -22 41v2q16 1 31 5q2 -20 17 -49q21 6 40 15z" />
    <glyph glyph-name="uni3056" unicode="&#x3056;" 
d="M165 178v2l13 13h2q5 -4 16 -13l9 -6q0 -2 1 -3l2 -2q0 -3 -1 -3q-2 -1 -3 -3q-7 -5 -9 -7t-2 0q-14 10 -28 22zM189 202l12 15q5 -1 15 -9q1 -1 3 -2q2 -3 5 -5q5 -4 7 -6q1 -2 0 -2l-12 -13q-2 -2 -2 0q-5 3 -14 10q-10 7 -14 11v1zM168 162h2l8 -25q-19 -6 -41 -12
q2 -3 5 -9q2 -3 3 -3q22 -38 40 -52l-22 -22q-29 23 -68 24h-4q-16 -1 -31 -5q-14 -6 -14 -18q-1 -22 35 -30q16 -3 35 -3h17l-4 -24h-11q-34 1 -58 11q-34 13 -35 44v3q0 22 20 35q16 7 42 8h8q20 0 48 -7q-16 20 -29 43q-1 -1 -3 -1q-15 -3 -31 -3q-18 -2 -36 -2h-6
q-2 -1 -2 1l-11 22h20q25 0 57 5q-1 1 -2 4q-1 2 -1 4q-17 32 -21 39v1l34 3q1 -6 1 -13q1 -12 12 -33q23 4 43 15z" />
    <glyph glyph-name="uni3057" unicode="&#x3057;" 
d="M55 199h2l32 -6q-2 -6 -3 -13v-138q-1 -19 6 -27q9 -11 21 -10h6q9 -1 17 4q12 4 23 11q16 9 28 25h2l12 -23q1 -2 0 -2q-21 -21 -42 -30q-20 -10 -44 -11h-3q-18 1 -33 10q-17 11 -20 29q-2 13 -1 29v131l-2 12q-1 4 -1 9z" />
    <glyph glyph-name="uni3058" unicode="&#x3058;" 
d="M47 199l34 -4l1 -4q-2 -4 -4 -11v-2v-2v-128q-1 -17 7 -31q8 -12 26 -12h4q34 -1 68 40h2l13 -21v-2q-16 -20 -38 -30q-25 -12 -49 -13h-7q-30 2 -44 25q-10 18 -9 47v123q-1 12 -4 25zM143 153v2l13 13h2l4 -4q14 -10 20 -16q3 -2 4 -4q0 -2 -2 -3q-6 -6 -12 -10
q-1 -2 -2 0q-6 4 -11 8q-11 9 -16 14zM167 178l12 13q5 0 14 -9l4 -2q6 -4 12 -11v-1l-13 -13q-1 -2 -2 0q-14 10 -27 21v2z" />
    <glyph glyph-name="uni3059" unicode="&#x3059;" 
d="M129 79v13q-1 10 -8 11q-6 -1 -10 -4q-9 -8 -9 -20v-6q1 -21 13 -21q7 0 12 11q2 7 2 16zM123 213l35 -6q-6 -14 -5 -31v-9h37h45v-29q-17 2 -35 3q-18 2 -40 2h-7v-31v-1q9 -13 10 -34v-17q0 -17 -10 -42q-9 -18 -22 -33q-9 -9 -19 -18h-2q-14 10 -29 14v2q37 17 53 51
q-22 -10 -39 0q-20 13 -20 40v5q5 41 42 46h5h7v18h-11q-43 -1 -85 -10l-2 1l-10 29l1 2q3 0 10 -1q8 -1 13 -1h12h17q30 2 55 3q-3 24 -5 39q-1 4 -1 8z" />
    <glyph glyph-name="uni305A" unicode="&#x305a;" 
d="M242 196l-13 -11q-20 18 -24 21l11 11q3 -3 7 -6q12 -9 19 -15zM225 179l-13 -11q-17 16 -27 23l13 11q10 -7 27 -23zM125 77v14q-1 11 -10 12q-7 0 -12 -8q-10 -11 -7 -28q3 -16 15 -15q13 0 14 25zM153 207l1 -2q-8 -13 -7 -36q0 1 0 -5h21q13 0 20 1h43v-28
q-35 6 -71 6h-14q0 13 0 -10v-23q2 -2 4 -5q8 -13 9 -32v-6q-1 -46 -29 -79q-9 -11 -22 -21q-1 -1 -2 0q-4 2 -12 5q-12 6 -20 7q16 7 30 20q18 15 21 32q-6 -2 -12 -2h-4q-34 3 -38 43v4q4 41 42 46h4q5 0 6 -1l2 22q-26 -1 -52 -5q-25 -2 -47 -8l-12 29l1 3q2 -1 8 -2
q9 -2 15 -1h5q10 -1 63 3q9 -1 19 1q-3 28 -8 47q18 -2 36 -3z" />
    <glyph glyph-name="uni305B" unicode="&#x305b;" 
d="M10 118l2 2q7 -2 15 -1h6q9 -1 19 1q13 1 22 2v21q0 16 -5 32l34 -2q0 -3 -2 -6v-1q-2 -11 -2 -21v-20q10 -1 13 1q8 0 25 2q16 1 25 2v7q1 10 1 14v17q-1 10 -4 23q0 -1 2 -1q14 -1 29 -1l1 -1q-1 -8 -2 -27q-1 -25 -1 -29q13 -1 18 1q18 0 36 2l4 -30q-14 4 -27 4h-14
q-6 -1 -19 -1v-8q-2 -25 -7 -37q-7 -18 -21 -18h-3q-8 0 -13 2v24h5q7 -1 10 13q2 8 4 19v3q-23 -1 -41 -2q-7 -1 -21 -2q-1 -44 2 -62q0 -22 18 -22h42q22 -1 47 5v-27l-34 -2q-10 -1 -17 -1h-13q-29 0 -42 5q-22 4 -25 31q-2 5 -3 13q-1 7 0 20v38q-13 -2 -47 -8
q-3 -2 -9 -2z" />
    <glyph glyph-name="uni305C" unicode="&#x305c;" 
d="M187 164v2l13 13h2q13 -9 25 -20v-1q3 -2 3 -3q0 -2 -1 -3q-3 -3 -7 -6t-5 -4q-2 -2 -2 0q-4 2 -10 7zM211 189l12 13q8 -2 18 -11q7 -4 12 -11q1 -1 0 -1l-13 -13q-1 -2 -1 0q-15 10 -28 21v2zM142 189l31 -3v-2l-3 -9q0 -8 -1 -24v-25h10q15 1 22 3q13 0 25 1q2 0 3 1
v-26h-34h-12h-15q-1 -5 -1 -12q-1 -7 -1 -11t-1 -11v-9q-3 -14 -13 -21q-9 -5 -28 0l-1 25h8q4 0 10 8q0 2 1 8q0 5 1 8q-1 6 1 13h-9q-1 -1 -3 -1q-23 -1 -50 -3v-37v-9q1 -5 1 -7v-6q1 -7 3 -10q5 -17 23 -17h24q31 0 62 7l-4 -30h-89q-8 0 -21 6q-8 4 -12 10
q-11 13 -10 39v52q-9 -2 -25 -3l-24 -3q-4 -2 -7 -1v26h24q15 0 32 2q-1 12 -2 26t-3 29l30 -4q0 -4 -1 -11q-2 -8 -1 -11v-27q14 0 28 2q16 0 31 1q2 0 3 1v42q0 3 -1 10q-1 8 -1 13z" />
    <glyph glyph-name="uni305D" unicode="&#x305d;" 
d="M113 145l-1 -2l-23 -11l-2 1q-1 1 -3 4q-12 28 -21 41q18 11 24 11q15 -22 26 -44zM172 199l31 -15v-2q-7 -3 -14 -15l-1 -1l-4 -6q-12 -19 -20 -28q-3 -4 -8 -10q-4 -3 -5 -5q7 1 21 2q13 1 21 3q25 3 30 3h5v-27h-9q-18 0 -45 -12q-18 -9 -30 -24q-14 -19 -9 -31
q8 -18 30 -24q16 -4 34 -5q-2 -4 -4 -10q-1 -8 -4 -17h-4q-8 1 -24 4q-3 1 -5 1q-2 1 -7 3q-6 3 -18 10q-24 14 -25 42v5q0 18 18 37q10 10 22 18q-45 -7 -83 -24q-2 -1 -5 -3q-10 -6 -15 -5q-4 0 -8 7q-1 2 -1 3q-1 1 -2 3q-6 13 -6 19q11 -4 36 2q2 0 4 1q5 1 15 4
q14 4 22 6h1q2 1 4 1q8 5 21 21q29 36 38 69h3z" />
    <glyph glyph-name="uni305E" unicode="&#x305e;" 
d="M89 146l-24 -11q-11 24 -25 48l21 8q8 -11 20 -33zM227 168l-13 -11q-12 13 -27 26l13 11q15 -13 27 -26zM252 190l-12 -11q-14 13 -26 26l13 11q13 -13 25 -26zM179 186v-2q-9 -8 -22 -26q-5 -8 -7 -11q-4 -5 -10 -12t-10 -13q-1 -2 -3 -4h-1q6 1 18 2q11 1 18 3h2
q25 4 40 4l2 -26h-9q-13 0 -40 -10h-2q-22 -9 -32 -22q-13 -15 -13 -28q-1 -14 10 -22q15 -14 45 -14h9l-9 -28q-28 3 -53 16q-28 15 -29 42v5q-1 15 17 36q9 12 23 22q-6 -2 -11 -3q-65 -13 -93 -32l-15 32h8q7 -1 15 1q9 1 22 5q13 2 33 7q5 2 8 3q1 2 5 6q8 10 11 15
q28 33 38 67q7 -2 19 -7q10 -5 16 -6z" />
    <glyph glyph-name="uni305F" unicode="&#x305f;" 
d="M175 116h9q12 0 19 -1h15l1 -27l-1 -1q-28 6 -43 6h-10q-11 0 -22 -3l4 25h13q9 1 15 1zM233 18l-3 -28q-17 -1 -33 -2h-10q-10 1 -22 2q-11 1 -22 3q-3 1 -5 1q-6 0 -8 3l-1 23q2 -1 8 -2q29 -6 45 -5h5q23 -1 46 5zM98 202h2l30 -8v-3q-7 -4 -10 -16q-3 -6 -7 -18
q-1 -4 -1 -5q10 1 32 6q5 1 8 2l2 -1v-26q-24 -5 -48 -6q0 -2 -2 -5v-2q-24 -86 -53 -137l-27 8l-1 2q35 63 58 133q-7 -1 -21 -2h-19l-2 1l-4 24l1 2q4 0 12 -1q8 -2 13 -1h8q8 -1 19 1q0 2 1 5q9 28 9 41v6z" />
    <glyph glyph-name="uni3060" unicode="&#x3060;" 
d="M169 114h9q5 0 30 -3l-1 -27q-24 6 -38 6h-8q-7 0 -21 -2q-6 -1 -8 -1l2 24q6 0 12 1q15 1 23 2zM168 9h10q26 -1 41 6l-2 -27q-19 -3 -35 -3h-7q-26 0 -60 11l4 22q2 -1 6 -2q28 -8 43 -7zM182 156v2l13 12q0 1 2 0q12 -8 23 -18q3 -4 5 -5q-1 -2 -3 -3q-5 -6 -12 -10
q-1 -2 -2 0q-13 10 -26 22zM206 180l12 15q4 -1 12 -8q3 -2 6 -3q6 -7 12 -11v-3l-14 -12q-1 -2 -2 0q-5 3 -13 10q-9 7 -13 11v1zM83 199h4l32 -8v-2q-7 -7 -8 -14q-8 -22 -9 -27q19 4 39 9l2 -1l-3 -26q-23 -5 -45 -6q-11 -40 -26 -77q-12 -36 -30 -67l-1 -1l-30 11
q22 29 43 84l18 48h-21h-15q-3 -1 -4 1l-4 25q5 0 15 -1q9 -2 15 -1h11h10q6 22 7 47v6z" />
    <glyph glyph-name="uni3061" unicode="&#x3061;" 
d="M114 199l1 -1q-6 -10 -7 -19q-3 -7 -5 -17q-1 -6 -1 -8q35 3 68 15v-27q-35 -11 -71 -13q-2 -15 -4 -28q0 -4 -2 -10v-7v-4q-1 -2 1 -2l4 2q44 23 70 23h7q22 -1 40 -16q13 -16 14 -37v-4q-1 -24 -21 -45q-19 -15 -51 -22l-28 -2h-6q-7 9 -11 18l-2 2q-5 3 -4 5h14
q12 -1 19 0q9 1 16 3q15 2 25 9q29 19 19 48q-8 16 -33 17h-3q-44 -2 -75 -45q-6 -1 -15 1q-4 1 -5 2q-2 1 -1 3v4q2 32 4 49q2 19 5 34h-6h-7q-17 0 -32 3q-2 0 -2 1l-2 26q18 -3 39 -3h13q2 11 3 19q1 9 1 17v4q0 3 -1 7z" />
    <glyph glyph-name="uni3062" unicode="&#x3062;" 
d="M246 180l-13 -12q-13 14 -28 28l13 12q2 -3 5 -5q16 -14 23 -23zM223 163l-13 -13q-5 4 -9 9l-19 19l13 12q5 -6 11 -11q9 -8 17 -16zM157 169h2v-28q-16 -7 -48 -10q-12 -2 -24 -3q-3 -28 -5 -40q-1 -12 0 -15q12 13 28 20q19 9 42 10h6q28 -1 44 -13q18 -16 19 -38v-5
q-1 -17 -13 -33q-9 -12 -30 -24q-25 -12 -65 -14l-15 24h6q10 0 19 2q18 1 30 7q37 14 38 39v4q-1 1 -2 3q-4 13 -10 18q-8 5 -19 6h-7q-52 -3 -77 -48l-21 6q4 45 9 89q-17 -2 -46 -1l-8 29q9 -1 19 -2q12 -1 18 -1h20v5q1 12 2 27v5q0 7 -3 13q8 -1 25 -2q6 -1 12 -1
q-2 -6 -5 -10q-7 -15 -8 -36q13 1 26 5q21 3 41 12z" />
    <glyph glyph-name="uni3063" unicode="&#x3063;" 
d="M159 157h5q25 -1 42 -15q17 -17 18 -42v-5q0 -17 -9 -30q-9 -14 -27 -26q-30 -20 -60 -21l-16 19q37 5 60 19q29 18 30 43v4q-4 29 -41 34h-4q-17 -1 -31 -5q-12 -5 -24 -9q-6 -3 -11 -6q-20 -9 -29 -15q-2 -1 -3 -2q-3 -3 -6 -2l-21 24q28 6 55 16q1 0 3 1q44 18 69 18z
" />
    <glyph glyph-name="uni3064" unicode="&#x3064;" 
d="M158 165h5q35 -1 59 -19q24 -24 26 -53v-5q-1 -23 -15 -43q-13 -16 -29 -26q-20 -14 -41 -19q-22 -7 -35 -7l-24 24v1q30 1 57 12q33 11 46 26q13 12 14 32v5q-1 17 -18 34q-15 13 -35 14h-5q-19 0 -50 -10q-24 -8 -54 -21q-3 -2 -5 -3q-13 -5 -17 -12h-3l-26 28v2
q19 3 58 17q27 10 42 14q2 0 4 1q31 8 46 8z" />
    <glyph glyph-name="uni3065" unicode="&#x3065;" 
d="M148 162h6q33 -1 58 -18q24 -20 26 -51v-7q-1 -22 -11 -39q-8 -14 -29 -28q-25 -19 -81 -27l-2 1q-9 10 -19 24q24 1 49 9q35 8 54 30q14 15 15 33v4q-2 22 -21 34q-14 9 -39 10h-4l-20 -2t-19 -3q-6 -2 -15 -4q-10 -3 -15 -4q-34 -11 -54 -26l-24 29q17 1 50 14q5 2 8 3
q7 2 15 4l14 4q37 10 58 10zM187 183l11 14q19 -12 30 -21l-12 -14q-5 3 -3 2q-17 13 -26 19zM212 204l11 14q15 -9 30 -21l-12 -14l-12 8q-8 7 -17 13z" />
    <glyph glyph-name="uni3066" unicode="&#x3066;" 
d="M24 151h3q30 5 86 17t87 18q15 3 30 5l2 -29h-6q-47 0 -69 -25q-26 -28 -26 -67v-4q0 -25 14 -39q13 -15 44 -14h17v-30h-15q-40 1 -63 22q-21 21 -21 58v10q0 38 32 78q-10 -2 -60 -15q-5 -2 -9 -3q-21 -6 -30 -11z" />
    <glyph glyph-name="uni3067" unicode="&#x3067;" 
d="M4 151h6q8 -1 42 8q19 4 37 9q33 7 65 14q27 3 40 9q0 -4 2 -11q4 -11 3 -15q-5 -2 -15 -3q-23 -4 -33 -11q-22 -17 -29 -43q-4 -12 -5 -20q-2 -9 -1 -15v-6q0 -24 15 -39t39 -15h5q8 0 16 2v-30h-8q-40 1 -63 17q-29 22 -30 63v5q-1 39 31 82l-80 -22q-4 -2 -7 -3
q-11 -3 -14 -7l-16 28v3zM188 137l14 13q20 -22 24 -27l-14 -12q-15 18 -24 26zM215 157l14 12q13 -13 23 -26l-15 -12z" />
    <glyph glyph-name="uni3068" unicode="&#x3068;" 
d="M185 159l22 -25v-2q-62 -19 -97 -41q-19 -12 -31 -30q-7 -10 -6 -17v-4q0 -18 19 -27q12 -7 34 -6h7q29 0 58 8l2 -30q-26 -1 -50 -2h-15q-36 0 -53 11q-25 14 -26 45v5q0 34 41 62q1 2 5 4q-9 35 -32 84l27 5q14 -31 30 -75l36 18q15 5 29 17z" />
    <glyph glyph-name="uni3069" unicode="&#x3069;" 
d="M167 175l16 9l6 -8q12 -15 18 -23l-16 -10q-11 16 -24 32zM194 193l14 8q15 -14 24 -31l-14 -9q-5 5 -12 16q-8 10 -12 16zM163 154l19 -21v-2q-21 -6 -40 -13q-34 -14 -62 -31q-18 -11 -25 -24q-7 -9 -7 -21v-3q0 -17 21 -26q13 -6 32 -6h4q10 -1 23 1q6 1 37 6l2 -29
q-20 -1 -42 -2h-21q-20 0 -41 7q-25 10 -34 24q-5 10 -5 24v4q-1 24 22 48q10 11 26 22q-11 42 -33 82l27 4q17 -36 29 -73q1 -1 3 1q14 7 31 12q3 1 10 4q8 3 16 8l1 1q4 3 7 3z" />
    <glyph glyph-name="uni306A" unicode="&#x306a;" 
d="M220 103h-2q-20 23 -44 40l14 19h2q18 -14 35 -28q7 -6 9 -11zM145 168v-26q-22 -7 -44 -11q-15 -52 -52 -111h-3l-23 9l-1 2q32 40 52 98q-17 -2 -33 -2l-3 27h8q13 -1 22 1h7q5 1 7 1q6 22 7 43v6q4 -2 14 -4t15 -4q0 -5 -3 -14q-2 -6 -2 -8l-2 -8q-1 -5 -1 -8
q17 3 35 9zM147 125h2l23 -5q0 -6 -1 -12q-1 -14 1 -42q1 -17 2 -25q28 -8 53 -23v-3l-10 -22q-4 0 -10 6q-2 1 -3 1q-14 7 -30 13q-1 -11 -3 -17q-2 -2 -5 -6q-2 -2 -2 -4q-10 -11 -33 -11h-6q-23 1 -34 13t-7 29q3 11 14 19q16 8 36 9h7q4 0 9 -1q-2 40 -3 81zM132 23h-4
q-16 -1 -20 -10q-5 -14 13 -17h9q18 1 20 24q-9 3 -18 3z" />
    <glyph glyph-name="uni306B" unicode="&#x306b;" 
d="M38 191l35 -11q-1 -5 -5 -14q-2 -5 -3 -7q-16 -39 -16 -79v-8q-1 -29 10 -46h1q1 3 5 10q3 7 5 11l11 -2q-2 -8 -3 -15q-6 -22 -5 -31v-6l-24 -5q-12 12 -18 39q-3 10 -4 22q-2 13 -1 29v11q0 32 8 64q2 12 3 19t1 14v5zM165 169h11q19 -1 39 -2v-26q-7 0 -20 1
q-12 1 -17 1h-11q-10 0 -29 -3q-17 -3 -25 -3l-2 27q7 0 23 2q20 3 31 3zM164 31h9q27 0 56 8l1 -27q-20 -7 -46 -7h-11q-47 -1 -71 22q-8 6 -8 12l18 11q17 -19 52 -19z" />
    <glyph glyph-name="uni306C" unicode="&#x306c;" 
d="M142 159h6q39 -1 62 -22q22 -24 23 -56v-4q0 -28 -12 -52q2 -2 5 -4q14 -7 21 -12l-13 -20q-13 10 -26 16q-19 -21 -55 -22h-6q-34 4 -36 29q2 29 44 33h4q17 0 39 -9q9 16 9 34v6q-1 25 -18 44q-16 14 -41 15h-4q-4 0 -6 -1q-4 -25 -14 -50q-5 -15 -13 -28q2 -3 7 -7
q2 -2 4 -2l-18 -18h-2q-2 1 -5 3q-2 1 -2 2q-6 -8 -13 -15q-22 -23 -43 -23h-3q-25 2 -27 34v5q-1 18 13 43q7 13 17 27q-1 1 -4 6q-8 16 -11 26q-2 3 -4 8v3l25 11q3 -18 11 -36q28 26 62 34q1 4 1 12v8q0 4 -2 13q-1 4 -1 9q16 -2 32 -5q1 -3 -2 -7l-1 -1q-2 -10 -2 -19
q0 -1 -1 -3v-5zM114 130q-14 -5 -24 -12q-7 -4 -17 -13l-4 -4q13 -19 24 -28q16 28 21 57zM34 36v-5q0 -11 10 -11q5 0 18 10l3 3q7 7 15 17q-16 14 -26 32l-6 -8q-14 -22 -14 -38zM154 26h-7q-5 0 -10 -3q-4 -5 -4 -9q1 -11 17 -12h5q14 0 31 15h-2q-2 1 -2 2q-14 6 -28 7z
" />
    <glyph glyph-name="uni306D" unicode="&#x306d;" 
d="M59 201h3l32 -5q0 -4 -3 -11q-2 -4 -2 -5q-6 -15 -7 -31l2 1q3 3 8 7h2q3 -3 8 -7q7 -5 11 -7q-15 -14 -30 -39q17 18 40 33q29 22 53 22h4q21 0 37 -28q9 -24 9 -41v-6q-1 -10 -2 -21q-2 -10 -5 -21q17 -8 31 -22l-14 -20h-2q-9 7 -19 16q-2 0 -6 3q-19 -28 -51 -29h-4
q-26 2 -38 19q-9 23 14 40q12 8 32 9h3q6 0 13 -2q7 -1 15 -3q3 14 3 31v16q-1 19 -11 29q-13 9 -30 3q-19 -8 -48 -34q-2 -2 -4 -3q-12 -11 -24 -23v-7q-1 -13 0 -28q1 -14 4 -35q1 -8 3 -17l-29 -2v30q1 22 1 34l-4 -6q-3 -3 -4 -5q-2 -3 -5 -8q-10 -17 -11 -26h-4l-24 16
v2q6 4 19 21q18 27 33 54v10q1 8 1 13q-6 -3 -11 -5q-22 -8 -31 -15l-11 27v2q37 5 54 12q-1 2 0 7q1 4 1 7q1 7 1 16v5q0 4 -3 27zM184 30q-14 3 -29 4q-22 -3 -17 -16q5 -9 16 -9q7 0 14 5q9 5 15 13q-1 0 0 1t1 2z" />
    <glyph glyph-name="uni306E" unicode="&#x306e;" 
d="M247 94v-7q-1 -35 -27 -63q-20 -24 -50 -36q-1 -1 -2 0q-10 10 -23 15v2q71 34 73 87v5q-1 23 -22 46q-18 14 -42 18q-9 -39 -22 -73q-17 -42 -31 -65q-14 -24 -32 -24q-30 1 -50 34q-10 18 -10 34v5q-1 6 1 14t7 19q8 19 18 30q21 28 54 41q27 10 46 10h11q44 -1 73 -27
q27 -29 28 -65zM36 77v-5q0 -16 10 -31q8 -12 19 -12q9 0 17 12q4 5 9 17l4 8q26 52 34 95q-22 -3 -38 -10q-25 -14 -41 -37q-15 -23 -14 -37z" />
    <glyph glyph-name="uni306F" unicode="&#x306f;" 
d="M41 199h3l27 -10q-2 -6 -7 -16l-2 -6q-8 -22 -13 -43q-4 -16 -5 -25q-2 -10 -1 -17v-9q0 -21 7 -47h2q2 3 5 10t6 11h2l8 -8v-2q-7 -26 -10 -49l-22 -5q-21 35 -21 88v15q-1 10 1 22t7 29q2 7 4 15q9 27 9 43v4zM148 194l35 -5q-3 -24 -3 -50q1 -17 1 1q21 1 42 6v-24
q-21 -5 -41 -6q1 -76 1 -72q5 -2 22 -10q2 -1 4 -1q14 -8 27 -18l-16 -19h-3q-9 6 -17 12l-12 6q-4 2 -6 4q-4 -14 -11 -20q-14 -14 -37 -15h-5q-16 1 -30 8q-15 9 -15 26v4q0 14 15 24q11 7 30 8h5q13 -1 25 -2q-4 47 -3 57v6h-9h-12q-22 0 -43 4l-3 25q9 -2 34 -4
q11 -2 20 -1h8h4q-1 26 -2 36v2q-1 11 -5 18zM132 31h-5q-15 0 -19 -5q-8 -10 6 -18q19 -8 37 4q5 4 7 14q-13 4 -26 5z" />
    <glyph glyph-name="uni3070" unicode="&#x3070;" 
d="M27 197h3l29 -11q0 -6 -9 -21q-21 -49 -20 -84v-8q0 -29 10 -53q1 2 3 8q5 11 8 17l12 -7q-9 -32 -8 -46v-7l-22 -6h-3q-22 43 -22 93v9q-1 18 11 63q7 22 8 46v7zM227 169l-13 -11q-7 5 -20 15q-4 3 -8 7l12 14q23 -18 29 -25zM248 188l-14 -12q-8 6 -16 13q-6 5 -11 10
l12 13q4 -4 8 -7q15 -11 21 -17zM140 191l32 -2q-4 -16 -5 -32q0 -4 -1 -17q1 -1 3 0q1 1 3 1q19 2 39 7v-25q-22 -5 -44 -7v-9q1 -5 1 -7q0 -9 2 -25q1 -13 3 -25v-5q17 -7 49 -24q3 -2 6 -3l-17 -22q-7 4 -14 7q-12 8 -24 15q-4 -14 -11 -21q-15 -13 -40 -14h-4
q-31 2 -39 20q-10 22 10 39q11 9 34 10h4q9 0 13 -1h10q-2 11 -6 63h-13h-12q-13 -1 -22 0q-10 1 -18 4v25q13 -4 21 -5q9 -2 18 -1h12h14v28q-1 3 -1 6q-1 13 -3 20zM123 31h-4q-14 -1 -19 -7q-8 -10 4 -19q19 -6 39 7q5 4 7 14q-12 4 -27 5z" />
    <glyph glyph-name="uni3071" unicode="&#x3071;" 
d="M25 197h3q11 -6 29 -11v-3q-6 -7 -8 -14q-2 -4 -4 -11q-8 -23 -10 -34q-6 -23 -6 -46v-11q0 -10 2 -17q2 -15 8 -27q1 2 3 8q5 9 7 14l14 -5q-1 -2 -2 -6q-10 -31 -9 -45v-4l-19 -6h-2q-10 14 -14 26q-11 29 -10 61v17q-1 16 9 57q0 2 1 4q8 31 8 47v6zM219 157
q-30 1 -31 29q2 27 31 29q28 -2 30 -29q-2 -28 -30 -29zM219 173q12 0 14 12q-1 13 -14 14q-15 -1 -15 -13q0 -13 15 -13zM122 136h12h9q-3 37 -6 55l34 -2v-2q-4 -4 -4 -13v-8v-28h1q2 2 4 2q18 2 35 8v-24q-13 -4 -40 -8q0 -8 1 -22q0 -15 1 -22v-13q1 -7 1 -10v-4
q25 -10 53 -25l-14 -24q-19 10 -40 21q-3 -12 -9 -19q-13 -14 -37 -15h-6q-41 5 -44 35q2 30 45 34h6q7 0 12 -1h9l-1 4q-1 21 -1 49v10h-13h-10q-22 0 -42 3q-2 0 -2 1v25q22 -7 46 -7zM120 31h-5q-20 -2 -20 -14q0 -11 20 -12h4q9 0 18 5q7 7 7 17q-12 3 -24 4z" />
    <glyph glyph-name="uni3072" unicode="&#x3072;" 
d="M18 169h7q36 0 72 22h2l22 -16v-2l-10 -8q-4 -2 -16 -12q-13 -14 -26 -41q-16 -32 -15 -52v-5q-1 -17 11 -29q13 -17 32 -17h4q25 0 42 19q16 17 20 50q1 16 2 35v13q-1 14 -3 30q-1 10 -1 22l24 5q0 -6 2 -10q1 -10 6 -17q2 -3 9 -18q13 -18 29 -34q1 -2 2 -3q6 -3 5 -6
l-21 -16h-3q-15 19 -27 40v-28q-1 -49 -22 -77q-23 -29 -63 -31h-3q-29 1 -50 17q-20 18 -20 48v8q-1 44 40 101q-6 -3 -17 -7q-8 -2 -15 -5l-1 -1q-4 -5 -7 -3l-11 26v2z" />
    <glyph glyph-name="uni3073" unicode="&#x3073;" 
d="M80 191h1l22 -15v-2q-24 -15 -38 -38q-16 -23 -26 -48q-5 -16 -5 -29v-4q4 -44 46 -48h4q19 0 31 10q14 11 21 25q14 31 15 68v9q0 15 -8 46q-1 6 -2 13q10 1 24 2q17 -50 54 -85l-21 -16q-15 15 -25 35q-1 -9 -2 -17q-3 -48 -14 -69q-23 -42 -73 -45h-5q-29 1 -51 19
q-19 19 -19 49v6q0 31 33 86q4 7 7 11q-5 -3 -16 -5q-15 -3 -20 -8l-11 26q8 1 16 3q36 6 53 16q1 0 3 2q4 3 6 3zM189 180l15 11q14 -16 26 -32l-15 -13q-12 17 -26 34zM212 199l14 13l4 -4q17 -16 24 -25l-13 -14q-13 16 -29 30z" />
    <glyph glyph-name="uni3074" unicode="&#x3074;" 
d="M84 191l20 -15v-2q-18 -11 -37 -41q-2 -4 -6 -11q-13 -22 -16 -34q-4 -10 -5 -16q-2 -7 -1 -12v-5q5 -44 46 -48h5q26 0 43 21q12 14 18 46q3 16 3 32v8q-1 11 -2 24q-2 12 -4 23q-4 7 -5 17q13 1 27 5q6 -43 53 -88l-21 -16q-8 7 -18 23q-6 9 -9 14v-16l-2 -22t-3 -22
q-6 -25 -16 -39q-26 -32 -66 -34h-4q-27 1 -48 17q-24 22 -24 48v4q0 10 5 29q0 2 1 3q0 4 9 24q12 24 27 48q-4 -2 -13 -4q-14 -4 -19 -7l-3 -3t-4 -1l-11 28h6q15 -1 41 8q16 4 31 14h2zM225 146h-4q-25 1 -27 29q2 27 27 30h4q25 -2 27 -31q-2 -27 -27 -28zM236 175
q-2 12 -13 14q-12 -1 -13 -14q0 -13 13 -13q12 0 13 13z" />
    <glyph glyph-name="uni3075" unicode="&#x3075;" 
d="M91 173l18 18q23 -10 47 -30l-18 -20q-22 18 -47 32zM95 125h25v-3q2 -16 7 -27l2 -6q7 -15 13 -22q0 -2 2 -4q17 -30 12 -46q-7 -22 -31 -24q-11 0 -23 3l-1 1l-3 22l1 1q17 -6 25 4q5 5 -1 22q-1 2 -1 5q-8 12 -13 26q-15 25 -14 44v4zM3 58l24 8q2 -11 8 -21
q2 -8 9 -8q1 0 5 1q3 2 5 3q2 2 6 5q3 3 11 12q4 -14 9 -27q-4 -3 -10 -10q-14 -14 -22 -15q-22 -6 -34 21q-9 14 -11 31zM182 73l19 13q28 -22 52 -57l-22 -16h-2q-14 21 -47 60z" />
    <glyph glyph-name="uni3076" unicode="&#x3076;" 
d="M92 173l17 18q3 -3 7 -5q29 -15 40 -27l-15 -18q-23 18 -49 32zM70 55l11 -21q1 -3 0 -3q-9 -11 -21 -19q-9 -7 -20 -7h-3q-15 0 -23 20q-6 9 -12 30v3l24 8q1 -9 7 -18q3 -12 12 -11q8 0 19 12zM254 23l-22 -14h-2q-20 34 -48 63l16 11h3l6 -6q6 -4 16 -14
q12 -14 24 -27q1 -2 2 -3q6 -6 5 -10zM184 158l14 11q15 -13 27 -31l-17 -11h-1q-5 6 -10 13q-6 9 -13 18zM254 157l-15 -11q-6 7 -17 20q-6 7 -8 11l15 9q14 -14 25 -29zM94 125h25v-3q2 -16 7 -27l2 -6q7 -15 13 -22q1 -4 3 -9q16 -27 11 -41q-7 -22 -31 -24q-12 0 -23 3
v1l-4 22l1 1q16 -6 25 4q5 5 -1 22q-1 2 -1 5q-8 12 -13 26q-15 25 -14 44v4z" />
    <glyph glyph-name="uni3077" unicode="&#x3077;" 
d="M155 159l-17 -18q-20 17 -45 29l13 21q19 -11 49 -32zM120 124v-4v-2q2 -17 12 -34q5 -12 11 -23q5 -9 10 -19q3 -9 4 -16v-4q-3 -29 -31 -32h-3q-7 1 -11 2q-6 0 -11 2l-2 24l13 -3q12 -2 15 12v4q0 10 -13 30v2q-21 37 -19 62q12 -2 25 -1zM69 55l13 -21
q-9 -12 -21 -24q-5 -5 -12 -7q-10 -3 -20 2q-8 5 -13 13q-13 15 -13 37l23 11q1 -9 4 -18q5 -15 15 -14q2 0 8 4q0 -1 2 1q7 6 14 16zM179 73l21 11q34 -28 53 -61l-22 -14q-16 26 -52 64zM220 119q-30 2 -31 31q2 27 31 30q29 -2 31 -31q-1 -29 -31 -30zM220 135
q13 0 14 14q-1 14 -14 15q-13 -1 -14 -14q0 -15 14 -15z" />
    <glyph glyph-name="uni3078" unicode="&#x3078;" 
d="M244 62l2 -2l-17 -26h-2q-39 20 -96 69q-4 2 -10 8q-7 5 -10 8h-2q-11 8 -17 5q-5 -4 -12 -11q-12 -12 -21 -22q-12 -13 -19 -26h-2l-28 25v3q10 0 23 12q2 3 4 4q4 3 11 9q6 5 11 9q20 24 39 24q13 0 35 -18q6 -5 18 -14q15 -11 31 -21q20 -15 62 -36z" />
    <glyph glyph-name="uni3079" unicode="&#x3079;" 
d="M244 50l2 -2l-17 -26h-2q-39 20 -96 69q-3 1 -8 6l-12 9q-12 9 -19 6q-5 -4 -12 -11q-12 -11 -21 -22q-13 -13 -19 -27h-2l-28 26v3q10 0 23 12q2 3 4 4l15 12l7 7q20 22 39 22q14 0 35 -17q6 -5 18 -14q15 -11 31 -21q30 -20 62 -36zM173 148v3l13 13h1q13 -9 24 -19
q1 -2 2 -2l3 -3q-1 -1 -1 -2t-1 -1l-4 -4l-9 -6q-1 -2 -2 0q-6 4 -11 8q-10 9 -15 13zM197 174l11 14q5 -1 14 -8q2 -2 5 -3q4 -7 12 -11v-2l-13 -13q-2 -2 -3 0q-13 10 -26 21v2z" />
    <glyph glyph-name="uni307A" unicode="&#x307a;" 
d="M201 127q-30 2 -31 31q2 28 31 31q29 -2 31 -31q-1 -31 -31 -31zM201 143q15 0 16 14q-1 15 -16 16q-13 -2 -14 -15q0 -15 14 -15zM244 49l2 -2l-17 -27h-2q-40 21 -96 70q-3 1 -8 6l-12 9q-12 9 -19 6q-5 -4 -12 -11q-12 -11 -21 -22q-12 -12 -19 -26h-2l-28 25v3
q9 0 22 11q3 2 5 4q4 3 11 10q6 6 11 10q20 22 39 22q11 0 31 -15l4 -2q7 -6 20 -16q14 -11 29 -20q30 -19 62 -35z" />
    <glyph glyph-name="uni307B" unicode="&#x307b;" 
d="M42 74v-11q0 -9 1 -18q0 -2 1 -3q1 -10 6 -19h2l8 29q7 0 14 -3q-1 -6 -4 -18q-5 -25 -4 -36v-10l-22 -6h-2q-22 30 -22 83v18q0 33 8 66l2 10q6 23 6 35v6q16 -5 32 -8q-15 -35 -21 -73q-1 -3 -2 -9q-4 -21 -3 -33zM204 191l3 -23q-14 -4 -25 -5q-3 -8 -2 -16v-20
q9 0 27 4q7 1 11 2l3 -22l-1 -2q-20 -4 -39 -5q0 -8 1 -16q2 -17 4 -43q27 -9 50 -27l-11 -22h-2q-23 15 -37 22q-1 -18 -17 -28q-14 -4 -27 -5h-4q-43 4 -46 35q2 28 45 32h4q13 0 20 -1q-1 1 -1 3q-2 10 -1 16q-1 3 -1 10q-1 13 -2 22q-22 -2 -44 -1h-12q-2 -1 -3 1l-5 23
l1 2q3 -1 10 -2q16 -2 25 -1h10h17v35h-37h-13l-7 24v3q17 -3 34 -3h12q29 0 60 8zM145 31h-4q-5 0 -12 -2h-2q-12 -5 -11 -10q1 -12 18 -14h6q11 0 18 10q3 5 4 16q-4 -1 -12 -1q-3 0 -5 1z" />
    <glyph glyph-name="uni307C" unicode="&#x307c;" 
d="M20 201h3q5 -2 14 -4t15 -3v-3q-5 -3 -8 -13q-2 -5 -2 -6q-3 -8 -6 -23q-3 -16 -5 -23q-5 -28 -5 -53v-15q0 -17 4 -27q7 10 15 23l13 -6q-11 -28 -11 -52v-8q-6 0 -10 -1q-8 -1 -14 -2q-21 36 -21 83v11q0 15 3 32q1 20 8 41q0 2 1 5q6 26 6 40v4zM230 146l-15 -11
q-19 25 -21 30l14 10q3 -5 7 -9q11 -12 15 -20zM218 183l12 11l6 -8q13 -13 18 -21l-13 -11q-5 6 -16 19q-5 6 -7 10zM190 191v-24q-7 0 -21 -2h-3q-2 -11 -1 -16v-20q20 1 36 6l4 -24q-21 -3 -40 -6v-5q0 -26 3 -52q26 -10 52 -30l-13 -22q-17 13 -38 24q-3 -17 -13 -22
q-13 -9 -33 -10h-4q-40 4 -42 31v4q0 14 14 25q10 7 31 7h5q7 0 15 -1v50q-9 -2 -17 -1h-13h-17q-10 1 -14 1l-7 25l3 1q20 -4 44 -4h14h6v16v21q-2 -1 -3 -1q-20 -1 -39 -1h-9l-9 25v3q15 -4 31 -4h12q9 -1 22 1q22 2 44 5zM123 34h-3q-21 -2 -22 -14q0 -12 21 -13
q8 0 14 3q8 7 9 21q-11 3 -19 3z" />
    <glyph glyph-name="uni307D" unicode="&#x307d;" 
d="M49 191v-2q-6 -8 -8 -19q-9 -28 -13 -47q-4 -17 -5 -27q-2 -11 -1 -19v-9q0 -23 6 -42q3 5 10 16q4 7 6 10l11 -2q-6 -17 -8 -33q-1 -4 -2 -10q-2 -8 -1 -15v-7l-22 -3q-3 1 -5 6l-1 2l-5 10t-4 14q-6 22 -6 47v20q0 20 8 61q3 17 5 26q3 11 3 25v4q4 -1 14 -3
q11 -3 18 -3zM227 128q-28 1 -29 28q1 26 29 28q25 -2 27 -28q-1 -27 -27 -28zM212 156q0 -14 15 -14q12 0 13 14q-1 13 -13 14q-15 -1 -15 -14zM107 182h12q29 0 66 7l4 -22l-1 -2q-12 -2 -24 -3l-1 -1q-2 -14 -2 -28v-8q8 0 18 2q9 1 14 3l3 -21q-15 -4 -35 -6
q0 -17 2 -33q1 -17 2 -25v-1q20 -9 53 -29l-11 -20l-2 -1q-9 6 -29 17q-5 3 -10 7q-2 -17 -12 -23q-13 -9 -31 -10h-5h-3q-39 6 -42 34q2 29 47 33h6h15q-1 15 -3 42v7h-14h-22q-12 -1 -24 1l-2 1q-2 12 -3 24q22 -3 45 -3h17h2v31v4l-1 1q-20 -2 -41 -1h-9l-8 24
q5 -1 15 -1q9 -1 14 0zM121 31h-6q-18 -2 -18 -13q0 -12 18 -13h4q11 0 18 9q2 2 4 12l1 2q-11 3 -21 3z" />
    <glyph glyph-name="uni307E" unicode="&#x307e;" 
d="M122 201l31 -3l1 -1q-2 -2 -6 -12q0 -2 -1 -5t-1 -17q10 0 31 4q8 1 13 2l-2 -23q-20 -4 -42 -5q0 -6 1 -16q0 -11 1 -16h2q22 1 44 7l-4 -23q-20 -6 -40 -7q1 -24 3 -48q31 -11 56 -31l-12 -18q-14 11 -43 23q-1 -20 -20 -29q-11 -6 -31 -6h-9q-24 1 -37 13
q-16 12 -8 33q6 11 19 16q17 6 34 6h10q8 -1 14 -2h3q0 9 -2 26q-1 7 -1 15h-21q-18 0 -36 2l-2 1l-5 22v2q3 -1 10 -2q18 -4 28 -3h20h5q0 11 -1 18v17h-6q-10 -1 -22 0q-11 0 -28 2l-2 1l-6 23q6 -1 19 -2q17 -2 26 -2h19v11q0 11 -2 27zM100 26h-6q-23 -3 -24 -17
q0 -6 10 -9q8 0 15 -1h6q11 0 22 4q6 5 7 16v4q-26 3 -30 3z" />
    <glyph glyph-name="uni307F" unicode="&#x307f;" 
d="M9 31v4q-1 12 10 32q8 14 18 21q25 20 57 21h2q4 6 7 12q11 21 25 42l-2 2q-35 -6 -48 -17q-2 3 -6 10q-7 14 -11 21l1 1h12q9 0 27 3q5 1 8 2q16 3 31 9h2l26 -25q0 -4 -5 -8h-1q-10 -7 -17 -14q-3 -3 -12 -18q-2 -4 -4 -7q-3 -4 -9 -16q11 -2 22 -5q9 -4 26 -12
q9 -4 14 -5q6 27 6 43v8h2l27 -8v-2q-8 -15 -12 -41q-2 -5 -1 -3q-1 -2 -3 -8q31 -18 46 -32l-12 -23h-2q-17 15 -35 29q-2 1 -5 3q-6 -14 -13 -25q-20 -28 -49 -46h-2q-9 10 -21 16v1q30 15 47 34q9 9 19 31l-1 1q-35 18 -64 24q-8 -15 -16 -29q-5 -9 -9 -17
q-24 -41 -51 -37q-23 6 -24 28zM40 60q-9 -12 -9 -15q-5 -18 9 -19q5 0 11 6l2 2q5 5 10 13q12 19 21 40q-24 -3 -44 -27z" />
    <glyph glyph-name="uni3080" unicode="&#x3080;" 
d="M177 148v3l10 17q33 -16 52 -31l-14 -21h-2q-28 22 -46 32zM65 74v6v1q-1 1 -2 3q-3 9 -6 9q-5 0 -8 -3q-8 -8 -8 -23v-4q1 -16 10 -16q7 0 12 10q2 5 2 17zM60 201l32 -4q-5 -15 -6 -40q20 2 41 8l-3 -28q-7 -1 -19 -2q-14 -2 -21 -2v-11v-11q-1 -5 1 -12q1 -3 2 -4
q1 -5 1 -11q1 -5 1 -14v-9q0 -15 -6 -27q-1 -2 -2 -3v-3v-4q0 -12 9 -17q5 -6 19 -5h21q13 0 26 3q9 0 16 9q10 13 11 38v6l26 -13v-4q-1 -26 -12 -41q-12 -16 -38 -18q-20 -3 -40 -3h-20q-18 1 -29 10q-13 11 -13 28v3q-36 2 -40 43v4q0 19 10 32q10 12 35 15q-1 -5 1 18
q-14 -2 -29 -1h-8q-2 -1 -3 1l-6 25q9 -2 18 -1h23h5q0 3 -1 11t0 12v6q0 2 -1 8q-2 5 -1 8z" />
    <glyph glyph-name="uni3081" unicode="&#x3081;" 
d="M137 197h5h2l25 -6q-1 -7 -3 -18q-1 -13 -2 -19q32 -3 52 -17q24 -24 25 -58v-6q-1 -30 -13 -48q-14 -20 -34 -30q-13 -8 -29 -13q-2 0 -6 6l-2 2q-3 4 -11 10h-2q63 14 68 71v3q-1 26 -18 42q-14 11 -36 14q-10 -42 -33 -75q8 -9 19 -16l-21 -19h-1l-9 9q-3 2 -4 4
q-12 -13 -15 -15q-24 -21 -46 -22h-3q-28 2 -30 39v5q0 19 13 44q1 2 3 4q11 18 20 25q-6 9 -16 30q-5 10 -7 16l28 14v-5v-2q4 -20 14 -39q34 23 68 26q3 11 3 23v4q0 8 -4 17zM133 129q-29 -5 -51 -21q2 -4 4 -7q3 -5 5 -7q0 -1 1 -3q10 -13 17 -19q6 10 12 22q1 2 3 8
q6 16 9 27zM39 41v-4q0 -12 7 -15q5 -4 15 2q12 5 27 21q1 1 2 3l3 3q-8 8 -14 19q-6 5 -13 18q-2 2 -2 4q-8 -9 -15 -19q-11 -20 -10 -32z" />
    <glyph glyph-name="uni3082" unicode="&#x3082;" 
d="M101 207h4l29 -8v-2q-3 -2 -6 -9q-1 -4 -2 -5q-5 -14 -7 -27q-1 -1 -1 -3q-1 -4 -2 -5h7h12q5 -1 16 1q4 1 7 2l-5 -25q-2 -2 -3 -1h-23h-16q-1 -7 -3 -20q-1 -14 -2 -21q25 -4 48 -1v-4l-4 -20q-2 -2 -3 -1h-21q-11 -1 -23 1q0 -3 -1 -7q-1 -5 0 -7v-10q-1 -16 10 -26
q10 -9 23 -9h6q20 0 29 10q10 12 10 27v4q0 17 -20 47q-1 2 -2 5l29 2q21 -24 22 -56v-5q-1 -27 -21 -44q-17 -14 -44 -15h-6q-25 1 -43 17q-17 12 -16 45v10q-1 8 1 16q-6 1 -17 5q-11 3 -16 5l2 25q16 -8 34 -10v5q1 6 3 17t4 18q-13 3 -22 6q-8 0 -8 3l2 25q15 -6 31 -9
q1 3 2 10q1 6 3 11q0 2 1 7q2 12 2 19v7z" />
    <glyph glyph-name="uni3083" unicode="&#x3083;" 
d="M145 159l-13 -13q-15 13 -32 23l13 14q4 -4 9 -7q16 -11 23 -17zM76 157v-4v-2q13 -23 15 -27l34 14q35 16 55 16h6q36 -4 40 -38v-5q-1 -21 -30 -37q-18 -8 -46 -9l-3 1l-10 16v2h11q20 0 36 7t17 25v4q-1 5 -3 9q-3 5 -10 7h-3q-3 1 -5 1q-6 0 -18 -4q-4 -1 -7 -1
q-5 -2 -13 -5q-4 -2 -8 -3q-6 -3 -17 -8q-11 -6 -16 -8q3 -7 10 -20q6 -14 10 -20q11 -26 22 -53l-20 -8q-5 17 -11 30q-1 3 -2 7l-28 54q-6 -5 -13 -7q-2 -1 -5 -3q-10 -6 -13 -11h-2l-19 18v3q18 4 43 17q-11 16 -22 33l22 9h3z" />
    <glyph glyph-name="uni3084" unicode="&#x3084;" 
d="M96 180l16 17q23 -12 40 -30l-19 -16q-17 17 -37 29zM68 167v-6v-2q9 -19 18 -35q2 0 4 2q4 2 9 4q27 13 43 18q27 10 50 11h5q17 -1 33 -9q17 -14 18 -35v-6q-1 -30 -31 -44q-21 -10 -62 -13l-14 22v3h6q29 -1 48 6q32 14 21 39q-9 12 -27 13h-4q-16 0 -44 -11
q-5 -3 -7 -3q-18 -8 -36 -17l-1 -1q2 -6 8 -15q5 -10 8 -15q25 -50 36 -74v-3l-23 -11h-2q-15 36 -50 107q-4 -2 -11 -6q-16 -9 -24 -15q-2 -1 -3 -2q-4 -4 -7 -3l-21 27q13 0 38 12q4 2 7 4q2 0 5 2q2 1 5 2q-3 3 -6 10q-3 5 -4 9q-3 3 -5 7q-6 12 -11 18l1 2l28 8h2z" />
    <glyph glyph-name="uni3085" unicode="&#x3085;" 
d="M124 186l24 -6v-3q1 -8 4 -20h4q26 0 43 -19q15 -17 16 -38v-5q-1 -29 -20 -47q-19 -17 -42 -17h-5h-11q-5 -9 -16 -24l-2 -2l-18 8q2 2 4 5q12 12 17 21q-2 0 -3 2q-17 11 -24 31l16 10q3 -17 19 -26l4 18q3 13 3 27v9q-1 8 -1 16q-1 8 -2 14q-21 -5 -43 -26
q-23 -26 -22 -51v-4q-1 -14 4 -25l-18 -8q-14 38 -14 79v14q0 5 1 16t2 18v5q0 2 -3 15l28 -6l-6 -12q-2 -9 -3 -20q-1 -9 0 -26v-14q23 47 72 60q-2 7 -7 23q-1 5 -1 8zM148 50h5q18 0 31 16q9 12 10 29v5q-1 19 -16 32q-9 7 -24 9l2 -28v-9q0 -29 -10 -54h2z" />
    <glyph glyph-name="uni3086" unicode="&#x3086;" 
d="M120 197l31 -4l1 -2q0 -3 1 -8q3 -11 5 -21h4q30 -1 52 -19q19 -21 20 -51v-8q-2 -30 -18 -51q-24 -26 -54 -26h-5q-7 -1 -13 2q-11 -18 -26 -34l-25 13q17 16 27 32q-18 12 -30 28l12 17q10 -12 21 -21q2 -3 5 -4q7 27 7 55v21v21q-3 0 -8 -2h-2q-9 -4 -24 -12
q-25 -15 -38 -43q-7 -18 -7 -33v-8q0 -17 7 -32l-24 -8l-2 1q-9 22 -12 49q-3 18 -3 35v14q-1 7 1 21q1 13 1 21v13q-1 13 -2 27l32 -5q-5 -12 -6 -24q-4 -21 -5 -32q-2 -12 -1 -22v-13q30 60 91 75q-5 20 -13 38zM155 31h4q20 0 34 15q14 18 15 41v6q0 15 -13 32
q-14 13 -34 16q1 -16 2 -29v-17q-1 -34 -10 -64h2z" />
    <glyph glyph-name="uni3087" unicode="&#x3087;" 
d="M117 186h3l25 -6v-4l1 -1l-3 -6q-3 -7 -2 -10v-11v-7q35 1 53 7l6 -21q-17 -5 -57 -6q-1 -17 3 -57q6 -2 11 -4q19 -10 42 -27l1 -2l-14 -18l-2 -1q-16 15 -39 29q-1 -14 -14 -24q-11 -10 -32 -10h-6q-16 0 -26 9q-12 9 -11 25q2 26 40 30h14q9 -1 17 -2q-1 6 -1 19
q-1 13 -1 21q-1 9 -2 19q-2 38 -6 58zM93 26h5q27 1 30 23q-3 0 -19 5q-21 2 -29 -3q-9 -8 -5 -16q3 -9 18 -9z" />
    <glyph glyph-name="uni3088" unicode="&#x3088;" 
d="M148 194l2 -3q-7 -11 -6 -32v-11v-5q43 3 70 14l2 -33q-33 -5 -66 -5h-5v-11q1 -7 1 -9q-1 12 4 -51q30 -11 69 -39l-17 -21h-2q-4 4 -11 9q-5 3 -6 3q-17 10 -33 20q-4 -17 -10 -22q-13 -14 -28 -19q-8 -1 -19 -1h-3q-19 1 -33 11q-20 12 -20 29v4q0 14 19 28q12 7 33 8
h9q13 0 27 -3q-2 24 -3 48q-3 25 -2 42v20q0 4 -1 15t-1 17q15 -2 30 -3zM91 37h-3q-26 -3 -27 -18q2 -16 25 -19h5q17 0 24 7q9 7 10 20v4q-22 6 -34 6z" />
    <glyph glyph-name="uni3089" unicode="&#x3089;" 
d="M71 189l17 19l8 -4q18 -8 44 -22v-2l-17 -18q-28 18 -52 27zM50 154l28 -6q-8 -30 -9 -75q36 30 72 30h7q27 -1 45 -11q19 -17 21 -38v-5q-1 -25 -21 -44q-21 -15 -46 -22q-11 -5 -24 -6l-13 22v1q19 3 40 9q33 13 34 36v4q-3 27 -37 30h-4q-17 0 -40 -10
q-24 -14 -32 -32l-29 10q1 12 2 25q6 46 6 71v11z" />
    <glyph glyph-name="uni308A" unicode="&#x308a;" 
d="M85 124v-5q0 -15 4 -24h2l10 16h3l11 -10q-2 -4 -5 -11q-12 -25 -11 -39v-4q-12 -2 -24 -2q-7 8 -10 26q-6 21 -6 45v8q0 18 3 36q3 17 5 34q15 -2 29 -3q-4 -11 -5 -21q-4 -17 -5 -27q-2 -10 -1 -19zM155 194l33 3l2 -1q-3 -12 2 -34q0 -6 1 -12q4 -25 4 -37v-16
q0 -32 -11 -61q-17 -40 -42 -61q-1 -1 -3 0l-23 11l-1 2q23 20 36 43q15 30 16 69v19q0 44 -14 75z" />
    <glyph glyph-name="uni308B" unicode="&#x308b;" 
d="M52 178h14q43 -1 74 10q2 0 4 1q3 2 6 2h1l26 -21v-1q-13 -10 -23 -22q-6 -7 -17 -19q-11 -13 -16 -19q4 -1 11 1q7 1 12 1h5q26 -1 44 -16q18 -17 19 -43v-3q-2 -31 -30 -49q-23 -15 -50 -15h-4q-46 5 -49 34v4q2 25 34 29h5q25 0 49 -32q15 12 16 31v5q-4 27 -37 31h-5
q-40 -1 -67 -35q-1 -2 -2 -3q-2 -4 -4 -4l-24 18v3q50 39 85 93q-36 -2 -55 -12q-2 -1 -3 -2q-3 -3 -6 -2l-13 33v2zM119 7h5q7 0 13 2q-1 6 -7 11q-13 11 -24 8q-9 -5 -5 -13t18 -8z" />
    <glyph glyph-name="uni308C" unicode="&#x308c;" 
d="M71 180v5q-1 6 -2 14q16 -2 34 -2v-3q-4 -4 -6 -11q-1 -2 -1 -3q-5 -17 -6 -30q0 -1 1 1l18 -14q0 -3 -3 -5l-1 -1q-3 -3 -6 -8q-3 -6 -5 -8q4 3 14 12q32 33 57 32h4q8 -1 17 -4q7 -4 11 -18v-4q0 -20 -6 -58q-2 -14 -3 -27q-3 -15 1 -21q3 -9 16 -5q8 2 22 14l5 5l1 1
q5 8 10 8l8 -27q-17 -17 -26 -23q-16 -9 -28 -10h-4q-13 1 -23 11q-7 11 -7 30v4q0 15 5 49q1 8 2 13q3 17 3 21v4q-2 12 -20 10q-14 -7 -25 -16q-1 -1 -3 -2q-17 -14 -32 -30q-2 -3 -6 -7t-5 -6v-8q0 -25 2 -49q2 -23 3 -35h-29v38q-1 12 1 25q-13 -15 -30 -42h-2l-22 13v2
q52 55 61 99l-14 -6q-21 -8 -31 -15l-14 30l1 2q30 0 59 12q0 5 1 14t2 15q-1 2 0 7q1 4 1 7z" />
    <glyph glyph-name="uni308D" unicode="&#x308d;" 
d="M62 178h6q11 0 32 3q2 0 3 1q30 3 45 11q1 0 3 1q4 3 6 3h3l22 -17v-3q-10 -5 -22 -22q-3 -5 -4 -7q-19 -23 -38 -45l10 2q19 6 30 6h4q22 -1 45 -12q24 -18 25 -45v-4q-2 -39 -33 -57q-30 -17 -60 -18l-11 24h4q26 1 43 8q26 14 28 40v4q-1 13 -12 26q-11 9 -29 10h-5
q-36 -1 -62 -20q-23 -18 -47 -47l-24 21q16 14 46 44l12 12q36 35 52 68q-11 -4 -21 -6q-14 -3 -27 -7l-4 -2q-3 -2 -4 -2l-17 28z" />
    <glyph glyph-name="uni308E" unicode="&#x308e;" 
d="M110 185l1 -2q-7 -14 -6 -24v-8l8 3h2l11 -8q0 -4 -6 -10q-1 -2 -2 -3q-8 -9 -13 -18q13 9 29 16q17 6 28 6h4q19 -1 33 -13q18 -18 19 -35v-5q-1 -26 -31 -53q-15 -10 -31 -17q-1 -2 -1 0l-18 15q16 5 32 16q24 15 25 37v5q-4 28 -30 32h-5q-9 0 -26 -9q-1 -1 -2 -1
q-17 -9 -30 -20q1 -42 7 -84h-27v61q-4 -5 -9 -14q-7 -11 -14 -21l-20 14q21 20 45 60v3v14q-16 -6 -28 -13l-8 24q18 4 39 12q-1 1 0 6t1 8v14q0 8 -4 16q4 -1 13 -2q9 -2 14 -2z" />
    <glyph glyph-name="uni308F" unicode="&#x308f;" 
d="M112 162l16 -11v-3q-6 -5 -10 -11q-9 -15 -18 -27q35 27 68 27h5q26 -1 43 -12q23 -19 24 -43v-4q-2 -33 -25 -58q-21 -20 -55 -30h-2l-22 19q28 6 44 18q30 20 31 45v4q-1 11 -9 24q-9 10 -17 14q-18 6 -42 -3q-14 -6 -25 -13q-12 -8 -22 -17q0 -27 2 -52q1 -26 4 -50
h-30v76q-18 -22 -33 -46h-2l-21 20q28 26 50 61q4 6 7 14q-1 9 1 18q-5 -3 -15 -5q-10 -3 -14 -5q-2 -1 -3 -2q-3 -2 -5 -1l-10 26v2q23 4 49 11v7q1 9 1 20v9q-1 10 -2 21l18 -3q10 -1 16 -1q-1 -3 -3 -10q-1 -2 -1 -4q-3 -7 -5 -21q-1 -7 -1 -10q1 0 4 1q5 2 9 5z" />
    <glyph glyph-name="uni3090" unicode="&#x3090;" 
d="M152 5h4q6 -1 12 1q-5 9 -12 14q-10 9 -21 3q-5 -6 -2 -11q3 -7 19 -7zM147 130h5q31 -1 56 -17q24 -19 25 -55v-6q-1 -32 -22 -51q-21 -17 -55 -18h-5q-16 0 -28 9q-15 8 -15 23v4q2 24 32 28h5q23 0 44 -31l2 1l2 2q13 12 14 33v4q-1 23 -15 37q-14 11 -39 12h-6
q-12 0 -17 -1q-1 -2 -1 -3q-1 -1 -1 -2q-2 -4 -3 -7q-20 -59 -37 -84q-1 -1 -2 -3q-11 -13 -20 -17q-24 -10 -37 12q-6 9 -6 23v8q0 29 25 58q25 25 62 35h1q2 7 5 15q4 13 8 28q-7 -2 -13 -3q-28 -4 -40 -13l-14 29v3h9q30 -1 71 14h3l24 -13v-4q-5 -4 -9 -12
q-10 -18 -17 -39q4 1 9 1zM91 92q-27 -14 -40 -41q-13 -25 0 -33q9 -7 18 2q8 12 13 26q6 13 15 42q2 6 4 9q-2 -2 -5 -3q-4 -1 -5 -2z" />
    <glyph glyph-name="uni3091" unicode="&#x3091;" 
d="M130 79q-1 7 -9 8q-10 -1 -6 -11q1 -5 8 -5q6 0 7 8zM154 199l22 -19v-2q-26 -19 -48 -41q15 9 25 9h4q18 -1 32 -9q17 -14 19 -31v-3q-2 -25 -26 -40q-26 -11 -51 -11h-5q-3 -1 -5 1q-29 -9 -49 -27q3 1 7 2q17 -1 35 -19q22 36 56 38h5q48 -4 65 -57l-28 -6l-2 1
q-6 19 -14 29q-17 17 -35 14q-13 -6 -18 -14q-11 -14 -10 -31l-30 -4q-1 4 -2 7q-2 15 -8 21q-15 11 -29 0q-12 -8 -19 -28l-28 11l-1 3q18 42 85 73q-5 5 -5 14v4q2 9 9 16q7 5 18 5q26 -4 26 -28q25 -2 29 26q0 7 -11 16q-24 15 -60 -8q-16 -10 -35 -34h-3l-21 13v3
q45 34 83 77q-9 -3 -17 -4q-20 -3 -29 -7q-2 0 -4 -1q-2 -2 -3 -1l-12 32l11 -2h2h7q7 -1 16 0q8 1 20 4q13 1 30 8h2z" />
    <glyph glyph-name="uni3092" unicode="&#x3092;" 
d="M98 207l32 -8v-2l-7 -8l-4 -10q-3 -8 -4 -11q21 2 40 10v-27q-23 -7 -49 -8q-6 -16 -15 -29q17 8 28 8h4q3 0 10 -3h2q6 -4 12 -11q7 -10 8 -20q8 4 17 7q4 1 8 3q13 4 19 7q1 0 4 3q4 3 6 3l21 -24v-3q-36 -8 -71 -19q1 -8 2 -17v-7q0 -6 -2 -17q-1 -5 -1 -9h-25
q-1 3 0 10t1 11v10v9q-11 -5 -22 -13q-19 -14 -13 -28q4 -14 34 -14h4q26 0 50 7l3 -29q-20 -3 -40 -3h-15q-25 1 -41 9q-21 12 -21 29v4q1 26 29 46q6 4 20 11q5 3 11 6q-3 16 -11 20q-8 2 -19 -2q-22 -11 -49 -53l-3 -6l-25 11q35 47 54 91h-11h-18l-7 24v2q12 -2 21 -2
h13h12q1 2 1 4q6 16 7 32v6z" />
    <glyph glyph-name="uni3093" unicode="&#x3093;" 
d="M231 55l12 -25q1 -3 0 -3q-3 -3 -7 -8q-37 -41 -67 -40h-4q-16 1 -28 17q-6 8 -8 33q-2 10 -3 21q-2 13 -2 20q-1 8 -6 9q-8 0 -19 -7q-12 -8 -19 -16q-18 -19 -33 -56q-2 -2 -4 -8q-3 -5 -4 -9l-26 7q10 33 45 94q11 19 22 39l12 20q5 10 8 15l2 4q12 23 14 37h4l34 -16
v-3q-20 -18 -33 -39q-12 -18 -21 -36q-8 -10 -12 -19q1 0 3 2q8 5 13 7q30 13 42 -6q3 -7 5 -20q0 -1 1 -1v-14q1 -17 3 -26q2 -15 10 -20q7 -7 21 0q16 8 39 39q4 5 6 8z" />
    <glyph glyph-name="uni30A1" unicode="&#x30a1;" 
d="M65 167h115l8 6h3l26 -16v-3q-10 -5 -23 -22q-3 -4 -4 -6q-12 -14 -35 -33q-1 -2 -2 0l-21 11v1q29 17 46 43h-113h-26v20q13 -2 26 -1zM111 127l26 -5q-1 -3 -3 -7t-2 -5q-3 -13 -6 -23q-12 -43 -55 -78q-2 -1 -7 4q-1 1 -1 2q-3 1 -6 4q-3 2 -5 4v2q41 25 53 70
q2 7 3 23q0 4 1 9h2z" />
    <glyph glyph-name="uni30A2" unicode="&#x30a2;" 
d="M16 145v30q19 -2 40 -2h142l8 5h5l29 -19q0 -9 -2 -7q-1 -2 -4 -2q-3 -1 -3 -2q-3 -3 -7 -8q-38 -44 -62 -63q-1 -2 -2 0q-4 2 -24 15v2q34 20 54 52h-145q-5 0 -14 -1h-15zM109 122l35 -6q0 -2 -4 -5q-1 -2 -2 -3q-2 -5 -3 -12q-1 -8 -2 -12q-8 -34 -21 -57
q-18 -28 -46 -50q-2 -1 -3 0q-14 10 -29 17v2q70 34 75 120v6z" />
    <glyph glyph-name="uni30A3" unicode="&#x30a3;" 
d="M180 189l21 -20v-2l-9 -2q-26 -31 -33 -38v-88q-1 -20 1 -37h-24v16q1 11 1 18v70q-14 -11 -28 -19q-26 -17 -40 -21h-2l-12 18v3q32 10 67 38q36 28 55 64h3z" />
    <glyph glyph-name="uni30A4" unicode="&#x30a4;" 
d="M190 201h4l28 -26v-2q-16 -7 -38 -30q-6 -7 -8 -9l-5 -5q-4 -3 -5 -4v-44q0 -33 2 -66q1 -19 2 -40h-34v34q1 18 1 51v42q-33 -25 -80 -51q-2 -2 -2 0l-21 20v2q42 20 79 49q56 39 77 79z" />
    <glyph glyph-name="uni30A5" unicode="&#x30a5;" 
d="M111 186h3l24 -6q-1 -4 -2 -7v-25h40h1q6 3 8 3l23 -17v-2l-6 -3q-16 -87 -84 -128q-2 -1 -3 0q-5 4 -11 8q-4 2 -7 6v1q71 34 81 111h-109v-30q-1 -5 0 -12q1 -8 1 -12h-22v24v53q1 -1 3 -1q10 -2 16 -1h45v19q0 2 -1 8v11z" />
    <glyph glyph-name="uni30A6" unicode="&#x30a6;" 
d="M141 173v-6q-1 -5 1 -10h50q1 -1 4 1q5 2 7 1q1 -2 5 -4q13 -9 21 -14q0 -5 -4 -10l-1 -1q-3 -4 -6 -21q-13 -39 -34 -71q-29 -40 -72 -63q-1 -1 -2 0q-5 3 -13 9q-9 6 -13 8v1q42 19 67 49q27 34 40 88h-135l1 -64h-30v17q0 13 1 20v28q0 3 -1 12v14h85v16l-2 28
q11 0 32 -2h3q0 -4 -2 -10q-1 -2 -1 -3q0 -3 -1 -7t0 -6z" />
    <glyph glyph-name="uni30A7" unicode="&#x30a7;" 
d="M100 154h55q19 0 37 1q2 0 3 1v-25q-7 0 -18 1t-16 1h-23v-78h35q19 0 41 2v-26q-8 0 -16 1q-18 2 -28 2h-87q-9 0 -27 -2q-7 -1 -14 -1v26q1 -1 4 -1q25 -2 38 -1h34v78h-21q-7 0 -20 -2h-18v25q19 -2 41 -2z" />
    <glyph glyph-name="uni30A8" unicode="&#x30a8;" 
d="M91 162h75q8 -1 51 3v-32q-8 -1 -21 1q-13 1 -20 1h-32v-94h32q13 -1 39 1q12 1 19 2v-31h-29q-20 1 -30 2h-97q-10 0 -29 -2h-27v31q5 -1 16 -2q25 -2 38 -1h38v94h-20q-9 0 -26 -1t-26 -1v32q5 -1 17 -2q20 -2 32 -1z" />
    <glyph glyph-name="uni30A9" unicode="&#x30a9;" 
d="M161 141h15q19 0 39 2v-27q-33 3 -39 3h-14v-9q2 -44 2 -66v-10q-1 -15 -11 -24q-13 -6 -28 -6h-6q-2 -1 -3 1l-6 21l1 2h11q17 1 19 16v36q0 11 -1 31l-4 -8q-2 -6 -10 -14l-4 -6q-14 -17 -30 -27q-16 -11 -32 -19q-1 -2 -2 0l-17 15v3q50 17 81 64h-31q-7 0 -42 -3v27
q20 -2 40 -2h49q-1 7 -2 22v23q4 -1 14 -2q9 -1 14 -1q0 -3 -2 -8q-1 -3 -1 -5v-29z" />
    <glyph glyph-name="uni30AA" unicode="&#x30aa;" 
d="M168 141h8q30 0 60 2v-30q-10 -1 -29 0q-20 1 -29 1h-10q-1 8 0 -40q1 -42 2 -65v-5q-1 -15 -20 -25q-9 -2 -26 -3q-4 0 -8 -1l-2 1q-4 16 -11 28v1q1 0 5 -1q16 0 23 3q9 4 10 13v42q0 -9 -1 35q-13 -21 -38 -42q-32 -31 -60 -41q-2 1 -6 6q-5 5 -15 13q-1 1 -1 2v2
q62 24 101 77h-37q-9 0 -28 -1t-28 -1v31q1 -1 2 -1q26 -1 52 -1h57q-1 4 -3 37q-1 11 -1 19q18 -2 35 -3q0 -3 -3 -15q-1 9 1 -38z" />
    <glyph glyph-name="uni30AB" unicode="&#x30ab;" 
d="M113 191h9q4 0 13 -1t15 -1q0 -3 -2 -8l-1 -2q-2 -7 -3 -18v-8v-9q40 1 82 3q2 -1 3 -3q-1 -14 -2 -27q-1 -58 -8 -88q-5 -29 -28 -36q-14 -4 -41 -6q-6 13 -8 28l1 1l25 -1q9 -2 18 11q2 4 6 17q-1 -2 1 3q2 10 3 32q0 5 1 11v21v9q-29 -2 -57 -1q-5 -22 -13 -44
q-13 -32 -41 -62q-13 -12 -32 -24q-2 -1 -3 0q-15 12 -24 16v2q20 9 41 30q18 18 26 36q12 21 17 46q-39 -2 -78 -3v31q15 -2 30 -2h35h17v15v8z" />
    <glyph glyph-name="uni30AC" unicode="&#x30ac;" 
d="M219 167l-13 -11q-7 8 -23 21q-2 1 -3 3l13 11q11 -8 26 -24zM242 188l-13 -11q-7 8 -23 21q-2 1 -3 3l13 11q10 -6 26 -24zM101 194h4q7 -1 15 -2t17 -1q-1 -2 -2 -5q-2 -4 -3 -11q-5 -17 -7 -34h10q32 0 67 2q3 -1 4 -3v-14q0 -17 -2 -50v-2q-2 -41 -11 -62
q-7 -13 -22 -22q-13 -5 -41 -6q-3 0 -6 -1l-3 1q-1 2 -1 4q-2 12 -3 15q-1 0 -1 1q-2 5 0 9q2 -1 7 -2q7 -3 11 -2h5q15 0 26 13q9 9 11 27q1 12 2 27q2 15 2 33v10h-49h-9q0 -3 -1 -5q-1 0 0 0q-17 -81 -77 -126h-2q-5 3 -14 7t-13 5l-1 2q36 23 53 49q20 32 28 67
q-12 0 -26 -1l-52 -2v28q49 -3 77 -2h6v2q1 15 2 32v7q0 2 -1 6q-1 3 0 6z" />
    <glyph glyph-name="uni30AD" unicode="&#x30ad;" 
d="M201 162h3l2 -31q-37 -2 -71 -5q1 -6 2 -17t3 -16v-4l1 -1q45 4 90 13h2l3 -31q-17 -1 -47 -4q-21 -3 -31 -3q-3 -1 -7 -2h-7q3 -20 6 -41q1 -11 5 -29l3 -12q-10 0 -19 -2q-8 -1 -15 -2q-1 2 -1 6q-3 49 -7 77q-48 -5 -94 -11l-2 31q15 0 93 6q0 2 -1 5t0 6q-1 4 -2 14
q-1 9 -1 14q-12 -2 -34 -4q-23 -2 -34 -3l-4 28l1 2q32 1 67 4q-4 25 -11 49l38 2q-5 -11 -2 -34q0 -6 1 -8q-1 -2 0 -4t1 -3q34 2 69 10z" />
    <glyph glyph-name="uni30AE" unicode="&#x30ae;" 
d="M213 172l-13 -11q-22 20 -27 24l13 11q10 -8 27 -24zM234 196l-13 -11q-15 14 -24 21l11 11q2 -3 8 -6zM190 157l2 -30q-10 -2 -30 -5q-18 -2 -26 -3q0 -6 3 -17q2 -14 4 -22q42 6 84 15l5 -28q-42 -6 -85 -12q1 -8 5 -24q7 -31 13 -49v-2l-30 -7q-3 22 -11 59
q-2 9 -3 19q-17 -3 -47 -8q-31 -5 -47 -7l-5 30l1 1q48 3 93 9l-1 3t0 5q-2 5 -3 15t-2 16q-12 -2 -34 -5q-23 -4 -34 -5h-1l-3 27q33 3 66 9l-2 10q-4 25 -8 38v2l36 3q0 -4 -2 -10q-2 -5 -1 -7q1 -19 5 -32q29 4 58 12z" />
    <glyph glyph-name="uni30AF" unicode="&#x30af;" 
d="M119 201h2l32 -10v-2q-7 -4 -12 -16l-2 -4q-2 -2 -3 -4t-2 -3h13h36q8 0 16 3h2q13 -11 27 -22v-2l-9 -10l-2 -1q-8 -12 -13 -24q-45 -78 -113 -118q-8 -5 -22 -10q-3 -2 -4 -3t-2 0q-14 11 -30 18q105 40 151 142h-70q-10 -14 -20 -24q-13 -13 -36 -30q-4 1 -10 4
q-7 3 -10 5h-3q-7 1 -7 5q66 40 91 106z" />
    <glyph glyph-name="uni30B0" unicode="&#x30b0;" 
d="M217 169l-13 -10q-17 16 -27 24l13 11q8 -6 21 -20q3 -3 6 -5zM238 194l-13 -11q-15 14 -24 21l11 11q3 -3 7 -6q12 -9 19 -15zM130 186v-3q-6 -5 -14 -18l-3 -6q-1 -1 -1 -2t-1 -2q35 -3 54 2q3 0 6 2h2l26 -18v-4q-9 -3 -15 -20v-1q-23 -56 -49 -87q-24 -29 -64 -54
q-1 0 -2 -1q-7 -6 -11 -5q-8 10 -24 19v1q94 46 127 141h-67q-21 -31 -49 -53q-2 -2 -3 0q-5 2 -17 7q-5 2 -7 4v2q43 28 69 78q7 14 11 31q9 -1 25 -10q3 -2 7 -3z" />
    <glyph glyph-name="uni30B1" unicode="&#x30b1;" 
d="M92 199h3l31 -10q0 -4 -3 -8q-2 -2 -2 -3q-4 -6 -9 -18l-10 -20q-1 -2 -1 -3q-1 -1 -1 -2h82q12 -1 27 0q13 0 38 2v-29q-10 -1 -28 0q-17 1 -25 1h-15q-7 -41 -26 -74q-22 -35 -59 -58q-1 -1 -2 0q-7 4 -18 10q-6 2 -8 3v3q36 24 54 46q23 32 27 70h-64q-22 -30 -49 -53
l-3 1q-13 11 -22 17q68 53 83 125z" />
    <glyph glyph-name="uni30B2" unicode="&#x30b2;" 
d="M222 172l-13 -11q-3 2 -5 4q-13 14 -21 20l13 11q8 -6 21 -20q2 -2 5 -4zM243 196l-13 -11q-3 2 -5 4q-11 12 -18 17l11 11l5 -5q14 -10 20 -16zM120 183v-3q-7 -4 -11 -17q-3 -7 -4 -9q-4 -11 -8 -19h78h30q21 2 32 2v-28h-30q-21 1 -31 2h-7q-4 -47 -17 -72
q-17 -32 -53 -56q-2 -1 -2 0q-13 8 -26 14v2q12 3 31 23q14 12 21 27q14 27 17 62h-58q-3 -5 -6 -9q-20 -25 -41 -44q-2 -2 -2 0q-11 7 -20 15v1q42 36 64 90q5 13 7 30q9 -1 25 -8q5 -2 11 -3z" />
    <glyph glyph-name="uni30B3" unicode="&#x30b3;" 
d="M72 165h71q33 -1 65 1v-98v-35q1 -23 1 -33h-30v10q-29 0 -45 -1h-32q11 1 -55 0v31q18 -2 39 -1h33q30 -1 60 1v95h-77q-10 0 -28 -1t-27 0v33q12 -2 25 -2z" />
    <glyph glyph-name="uni30B4" unicode="&#x30b4;" 
d="M210 169l-14 -12l-24 26l14 11q17 -15 24 -25zM196 201l12 14q14 -10 25 -22l-12 -15q-15 16 -25 23zM189 -1h-30v5q-14 -1 -29 -1h-39q-26 -1 -40 -1h-28v29h58h23q28 -1 55 2v94q-30 0 -46 -1h-33h-57v29q17 -2 53 -1h52q10 -1 24 0q12 0 35 2q0 -80 0 -68q0 -18 1 -39
q0 -18 1 -50z" />
    <glyph glyph-name="uni30B5" unicode="&#x30b5;" 
d="M187 179v-38q0 -7 0 -4q10 0 29 1t30 2v-31q-8 -1 -22 1q-15 1 -22 1h-16q-2 -41 -12 -69q-16 -39 -56 -68q-2 -1 -3 0q-5 4 -15 10q-5 3 -7 4v2q60 45 65 103v9q1 6 2 9h-59v-66h-31q1 24 2 50v16h-14q-9 0 -24 -1q-16 -2 -24 -1v32q6 -1 20 -2q18 -2 29 -2h13v31
q0 5 -2 16q-1 5 -1 10q17 -2 34 -3q0 -2 -1 -6q-1 -5 -1 -7v-41h60v4q0 12 -4 36l-2 20q17 -2 34 -3q0 -3 -1 -9q-2 -4 -1 -6z" />
    <glyph glyph-name="uni30B6" unicode="&#x30b6;" 
d="M232 165l-13 -11q-22 20 -27 24l13 11q5 -4 27 -24zM253 189l-13 -11q-20 18 -24 21l11 11q2 -3 8 -6zM67 197l31 -3q0 -4 -1 -9q-2 -6 -1 -9v-41h59v2v14q-1 22 -4 43v3h7q5 0 18 -2q4 -1 8 -1q0 -5 -3 -13q0 1 0 -1v-45q10 -1 24 0q12 0 35 2v-26q-30 1 -60 3
q0 -2 -1 -7v-12q-4 -33 -11 -49q-20 -43 -67 -72h-2l-19 21q22 7 45 34q19 22 26 57q-1 -7 4 28h-59v-69h-29q1 26 2 55v14h-7q-14 0 -39 -2q-10 -1 -20 -1v26q30 -2 60 -2h6v41q-1 10 -2 21z" />
    <glyph glyph-name="uni30B7" unicode="&#x30b7;" 
d="M20 111l16 22q27 -15 52 -32q-4 -4 -9 -11q-5 -8 -8 -11h-2q-27 19 -49 30v2zM120 162l1 -3l-6 -9q-5 -8 -10 -14q-7 4 -13 9q-24 19 -37 27v1l2 2q6 7 14 18q26 -13 49 -31zM236 110l-1 -4q-28 -26 -58 -49q-46 -36 -82 -54q-2 -1 -3 -2q-19 -6 -26 -12q-7 -7 -9 -6
q-5 6 -12 16q-8 8 -12 14v2q57 14 112 53q46 31 78 67h2q4 -14 11 -25z" />
    <glyph glyph-name="uni30B8" unicode="&#x30b8;" 
d="M54 169l15 20q21 -10 52 -35l-20 -19q-22 20 -47 34zM16 108l17 19h2q5 -4 11 -8q24 -14 34 -24l-21 -22q-20 20 -43 35zM229 119l11 -24v-2q-29 -29 -75 -57q-37 -23 -91 -41q-4 -2 -13 -5q-7 -2 -10 -4q-2 0 -4 -3q-2 -4 -3 -4l-17 34l2 2q13 1 27 5q9 2 54 21
q5 2 16 8q13 6 26 14q43 24 77 56zM159 145v2l14 12q0 1 2 0q12 -8 23 -18q3 -4 4 -5q-1 -2 -2 -3q-5 -6 -12 -10q-1 -2 -1 0q-8 5 -20 15q-6 4 -8 7zM184 169l12 15q3 0 18 -11q6 -7 12 -11v-3l-14 -12q-1 -2 -2 0q-5 3 -13 10q-9 7 -13 11v1z" />
    <glyph glyph-name="uni30B9" unicode="&#x30b9;" 
d="M186 177l23 -15q1 -2 1 -5q-5 -5 -9 -7q-3 -3 -6 -8l-1 -2q-12 -23 -27 -43q-3 -5 -6 -9q16 -14 31 -27q23 -23 44 -46v-2q-2 -2 -6 -5q-12 -8 -16 -15h-2q-13 13 -26 27q-20 24 -42 47q-8 -8 -14 -15q-38 -37 -85 -57q-1 -1 -2 0q-11 8 -23 17v1q100 45 135 120
q2 5 4 13h-59q-8 0 -23 -1q-15 -2 -22 -1v31q28 -2 58 -2h47q8 0 16 3h1q6 2 9 1z" />
    <glyph glyph-name="uni30BA" unicode="&#x30ba;" 
d="M230 169l-13 -10q-22 20 -27 24l13 11q8 -6 21 -20q3 -3 6 -5zM251 194l-13 -11q-20 18 -24 21l11 11q3 -3 7 -6q12 -9 19 -15zM170 169l24 -21v-1q-5 -3 -9 -11v-1q-20 -37 -39 -59q43 -29 77 -67l-24 -21q-8 8 -16 14q-35 37 -56 54q-46 -43 -91 -62q-5 -3 -10 -4
q-6 10 -21 20v3q18 6 36 16q79 42 112 108h-48q-12 0 -33 -1q-22 -1 -33 0v28q34 -2 69 -1h17q10 0 26 2q6 0 12 3q2 1 5 1h2z" />
    <glyph glyph-name="uni30BB" unicode="&#x30bb;" 
d="M88 194h16q3 0 8 -1t9 0q0 -4 -4 -10q-2 -6 -2 -8v-46q8 1 24 4q36 6 56 11q1 0 7 4q1 1 3 2q1 0 3 2q0 1 1 2h1l30 -19v-2q-7 -7 -19 -24q-3 -4 -4 -6q-20 -26 -41 -48q-4 0 -12 4l-8 4q-2 0 -4 1q-5 2 -6 5q32 23 48 51l-1 1q-22 -5 -43 -9q-18 -4 -35 -7v-13
q0 -29 3 -55q1 -18 20 -19h38q8 -1 25 1q17 1 26 1v-27h-91q-18 1 -32 10q-12 8 -13 31q-3 13 -2 29v36q-6 -1 -17 -4q-13 -2 -20 -3q-2 -1 -3 -1q-18 -4 -24 -9l-3 9q-5 13 -6 22v2q29 2 55 7q9 1 18 3v34q0 5 -1 16v19z" />
    <glyph glyph-name="uni30BC" unicode="&#x30bc;" 
d="M227 166l-10 -15q-6 4 -12 9q-13 11 -20 15l12 14q2 -2 5 -4q17 -12 25 -19zM208 197l11 13q19 -14 30 -24l-12 -13q-7 4 -13 10q-8 8 -16 14zM72 189l33 -3q-4 -9 -1 -3q-3 -6 -3 -14v-47q6 0 18 2q29 3 45 7q15 2 25 6q1 0 3 2l4 2h1l28 -19v-3q-8 -5 -18 -21
q-4 -5 -7 -9q-18 -26 -39 -48h-4q-11 7 -24 13v1q32 23 46 54q-24 -5 -70 -12q-6 -1 -8 -1v-65q1 -15 23 -16h34q12 0 24 2q10 0 31 4q4 0 6 1v-30h-3q-15 -1 -31 -2h-61q-25 0 -36 10q-14 9 -14 34v58q-7 -2 -20 -3q-20 -3 -29 -5q-5 -1 -7 -2h-4l-7 30l1 2h14q18 0 36 2
q2 0 8 1q5 1 8 2v54q-1 7 -2 13v3z" />
    <glyph glyph-name="uni30BD" unicode="&#x30bd;" 
d="M27 159l23 15q28 -29 49 -63l-25 -16h-2q-16 28 -45 64zM193 180h2l34 -18v-3q-14 -9 -23 -38q-17 -39 -42 -70q-21 -26 -45 -45q-17 -11 -37 -21q-1 -1 -2 0l-13 13l-4 2q-5 0 -4 2q19 8 35 22q36 26 53 50q19 26 30 53q12 25 16 53z" />
    <glyph glyph-name="uni30BE" unicode="&#x30be;" 
d="M15 150v2l22 14h2q24 -26 42 -55l-12 -8q-8 -4 -14 -8l-8 10q-20 30 -32 45zM169 167h3l32 -16q0 -3 -5 -7q-1 -2 -2 -3q-3 -5 -7 -16l-1 -3q-32 -75 -85 -118q-18 -12 -39 -25h-2q-11 11 -23 18l1 2q25 10 47 28q19 16 35 36q38 51 46 104zM180 178l12 13q21 -11 31 -18
l-11 -16q-8 5 -23 15q-5 3 -9 6zM201 205l8 13q17 -9 32 -21l-10 -14q-8 6 -24 17q-3 2 -6 5z" />
    <glyph glyph-name="uni30BF" unicode="&#x30bf;" 
d="M116 205h3l6 -3q8 -4 23 -8v-3q-8 -6 -15 -22h53l8 4h3q2 -2 5 -4q14 -9 20 -15q1 -2 0 -2q-9 -11 -15 -23q-8 -14 -12 -27q-20 -44 -52 -76q-32 -30 -72 -51q-1 -1 -2 0q-3 3 -8 6t-7 5q-2 1 -3 2q-6 2 -6 5q55 26 94 70q-28 21 -45 30l19 18q29 -13 43 -24q16 24 24 54
v2h-62q-28 -42 -58 -64q-1 -2 -2 0l-24 16q65 48 82 110z" />
    <glyph glyph-name="uni30C0" unicode="&#x30c0;" 
d="M223 173l-13 -14l-30 30l14 12q16 -13 29 -28zM204 205l13 12q15 -13 27 -26l-13 -13q-17 18 -27 27zM90 201h2l30 -12v-3q-6 -4 -12 -15q-1 -5 -2 -6q-2 -3 -3 -6h27h22q7 -1 14 4h1q4 2 6 2l27 -19v-3q-9 -6 -17 -24v-1q-23 -52 -52 -84q-34 -36 -88 -60q-6 4 -8 8
q-2 2 -7 6l-7 7v1q29 6 68 35q15 12 27 26q-17 12 -50 30l16 18q20 -6 51 -25q3 4 6 9q16 25 20 46h-72q-24 -31 -50 -56q-2 -2 -2 0l-24 12l-1 2q63 49 78 108z" />
    <glyph glyph-name="uni30C1" unicode="&#x30c1;" 
d="M190 199l21 -24v-2q-7 -2 -19 -6t-18 -5q-10 -3 -19 -4v-27v-15q43 0 86 5v-34q-10 -1 -29 1q-19 1 -28 1h-31q-3 -21 -9 -40q-16 -39 -55 -67q-5 -4 -9 -5h-1q-3 2 -8 5q-13 8 -20 10v1q29 16 48 36q20 23 25 60h-44q-11 0 -32 -1q-22 -1 -33 -1v29h111v25v12
q-32 -5 -64 -6q-2 -1 -6 9q-3 2 -7 8l-3 6l1 3h13q34 0 69 5q33 3 54 17l2 1q3 3 5 3z" />
    <glyph glyph-name="uni30C2" unicode="&#x30c2;" 
d="M237 151l-15 -10q-9 13 -24 26l14 11q2 -3 5 -6q14 -13 20 -21zM254 173l-12 -14q-9 15 -22 27l11 12q15 -11 23 -25zM169 191l20 -21q1 -1 1 -5q-1 0 0 0q-11 -2 -21 -4q-7 -1 -13 -2q-8 -2 -15 -3v-40h35q9 -1 54 3v-29q-16 -1 -44 1q-28 1 -43 1h-2q-5 -41 -22 -64
q-26 -31 -61 -51q-3 -1 -3 0l-21 19q50 24 69 60q9 14 9 34v2v0h-4q-26 0 -72 -2q-17 -1 -34 -1v30q6 -1 18 -2q26 -2 40 -1h53v7l-2 28q-32 -4 -64 -5l-13 27h32q27 0 56 5q22 3 44 13h3z" />
    <glyph glyph-name="uni30C3" unicode="&#x30c3;" 
d="M84 109l-24 -8q-3 12 -19 45l24 7q1 -4 3 -8q8 -14 16 -36zM101 162l24 5q10 -23 15 -45l-24 -6q-8 29 -15 46zM188 167l27 -10v-3q-7 -5 -12 -20q-1 -5 -2 -7q-7 -17 -16 -32q-14 -22 -32 -41q-23 -25 -55 -45q-1 -2 -2 0l-17 17q48 26 73 58q28 38 33 83h3z" />
    <glyph glyph-name="uni30C4" unicode="&#x30c4;" 
d="M43 94l-1 1q-9 30 -22 59q3 0 11 3q11 2 17 4q11 -23 23 -60q-15 -3 -28 -7zM95 169l27 6q11 -24 18 -59q-14 -4 -29 -5q-5 30 -16 58zM199 173h3q17 -9 34 -19v-3l-8 -5q-5 -13 -9 -23q-28 -62 -60 -89q-35 -32 -75 -51q-2 -1 -2 0l-22 17v2q120 56 139 171z" />
    <glyph glyph-name="uni30C5" unicode="&#x30c5;" 
d="M54 103l-25 -11l-2 1q-2 4 -5 12q-2 4 -3 9q-8 17 -16 37q4 1 13 3q8 1 13 3q11 -21 25 -54zM122 118l-28 -8l-1 1q-9 28 -20 56l28 7l2 -1q1 -5 3 -11q12 -28 16 -44zM179 165h2l30 -19v-3q-9 -3 -14 -15v-2q-8 -18 -16 -34q-11 -20 -24 -36q-23 -31 -55 -53
q-19 -12 -41 -21h-2q-10 12 -22 18v1q18 5 35 16q36 19 64 57q14 19 25 40q14 28 18 51zM192 175l13 13q18 -11 27 -21l-11 -13q-7 6 -21 15zM211 199l13 11h3q1 -2 4 -4q16 -9 22 -15l-13 -13q-18 16 -29 21z" />
    <glyph glyph-name="uni30C6" unicode="&#x30c6;" 
d="M106 185h43q22 0 41 1q2 0 3 1v-30h-20q-12 1 -17 1h-48q-9 0 -24 -1q-16 -1 -24 0v29q23 -2 46 -1zM92 125h72q36 0 72 2v-34q-11 -1 -30 0q-20 1 -30 1h-25q-2 -20 -5 -34q-15 -52 -73 -86q-2 -1 -2 0q-4 2 -9 7q-7 5 -15 9v3q32 12 51 35q20 25 21 61v5h-30
q-12 0 -35 -1t-34 0v34q36 -2 72 -2z" />
    <glyph glyph-name="uni30C7" unicode="&#x30c7;" 
d="M82 180h42q12 -1 33 1q12 1 19 2v-29q-7 -1 -20 0q-13 2 -20 2h-51q-8 0 -21 -1q-14 -2 -21 -1v29q32 -4 39 -3zM227 164l-13 -11q-12 12 -27 24l13 11q15 -12 27 -24zM248 188l-13 -11q-11 10 -24 21l11 11q3 -3 7 -6q12 -9 19 -15zM67 125h94q28 0 58 2v-32
q-11 0 -22 1q-26 2 -39 2h-23q-2 -30 -7 -44q-15 -47 -64 -75h-2q-10 11 -23 17v2q27 9 46 32q21 26 22 65v3h-36q-11 0 -32 -2t-31 -1v32q37 -3 59 -2z" />
    <glyph glyph-name="uni30C8" unicode="&#x30c8;" 
d="M77 199l36 -2q-2 -10 -5 -17v-2v-63l13 14q27 -14 57 -39l1 -2l-18 -25h-2q-24 24 -51 42v-23q0 -32 2 -63q2 -27 3 -42h-34q1 35 1 80q1 39 0 113q0 15 -3 29z" />
    <glyph glyph-name="uni30C9" unicode="&#x30c9;" 
d="M177 158l-12 -11l-6 4q-14 14 -22 19l14 12q8 -6 21 -20q2 -2 5 -4zM198 182l-12 -12q-16 16 -24 21l11 11q14 -9 25 -20zM58 201l34 -3q-1 -3 -2 -8q-2 -6 -2 -10v-67q4 9 13 17q27 -13 57 -41q-10 -14 -17 -26h-3q-32 31 -50 43v-51q-1 -16 0 -34q0 -16 2 -42h-32v6
q2 34 2 53v138q-1 12 -2 25z" />
    <glyph glyph-name="uni30CA" unicode="&#x30ca;" 
d="M149 157v-24h9q19 -1 53 1q19 1 29 2v-32q-11 -1 -32 0q-22 1 -32 1h-28q-2 -30 -9 -48q-11 -32 -34 -55q-17 -17 -28 -25q-3 -1 -7 2l-1 1q-6 4 -16 10q-3 2 -4 2l-1 2q36 19 57 58q11 22 15 53h-30q-27 0 -74 -2v32q26 -2 41 -2q17 -1 32 0h31v4q0 8 -2 19l-4 38
q4 -1 12 -2q18 -2 28 -1q-1 -4 -3 -9q-1 -2 -1 -4q-2 -9 -1 -21z" />
    <glyph glyph-name="uni30CB" unicode="&#x30cb;" 
d="M109 163h59q15 0 29 2v-32q-8 -1 -22 1q-15 1 -22 1h-45q-9 0 -27 -2h-24v31q25 -2 52 -1zM92 45h69q13 -1 29 0q14 0 39 2v-34h-32q-22 2 -33 2h-72q-12 0 -34 -2h-31v34q23 -2 36 -2q16 -1 29 0z" />
    <glyph glyph-name="uni30CC" unicode="&#x30cc;" 
d="M196 178l29 -19v-2q-6 -7 -10 -14l-18 -30q-12 -20 -25 -38q22 -15 43 -34l-23 -21q-20 16 -39 32q-5 -4 -9 -8q-8 -8 -12 -11q-34 -29 -74 -45q-1 -1 -2 0q-12 11 -25 17v2q53 19 98 63q-28 19 -56 36l16 20q31 -16 59 -35q10 11 18 25q10 15 17 32h-70q-8 0 -23 -1
t-22 0v27q25 -2 53 -2q28 1 64 3l8 3h3z" />
    <glyph glyph-name="uni30CD" unicode="&#x30cd;" 
d="M170 73l16 20h2q3 -3 7 -5q13 -6 19 -10q4 -4 13 -10q8 -7 13 -10l-19 -21q-19 14 -51 36zM152 165v-14h11h2q9 1 17 6h2l24 -19v-2q-8 -5 -18 -16l-4 -4q-16 -17 -32 -29v-56q-1 -13 1 -33q1 -12 2 -19h-32q0 9 1 22q1 14 1 22v37v8q-30 -22 -62 -35q-20 -11 -31 -11
q-10 12 -12 15q-1 0 -2 1q-5 3 -4 7q36 8 82 35q40 21 60 45h-31q-14 0 -40 -1t-39 0v27h77v14q0 6 -2 18q-1 5 -1 11q27 -4 33 -3q0 -5 -2 -14q-1 -9 -1 -12z" />
    <glyph glyph-name="uni30CE" unicode="&#x30ce;" 
d="M179 183h4l32 -16v-3q-12 -9 -21 -32l-1 -3q-24 -44 -56 -80q-31 -37 -67 -59h-2q-6 5 -17 10q-5 2 -9 6l-1 1q79 44 124 138q10 17 14 38z" />
    <glyph glyph-name="uni30CF" unicode="&#x30cf;" 
d="M30 25h-2q-14 8 -24 12v2q3 3 6 7q25 28 36 45q17 27 24 63q17 -5 34 -11q-1 -5 -5 -11q-1 -2 -1 -3q-4 -6 -8 -16q-3 -6 -4 -9q-22 -45 -56 -79zM252 52v-2l-25 -17h-2q-5 8 -9 16q-35 64 -57 96l24 12h2q28 -35 67 -105z" />
    <glyph glyph-name="uni30D0" unicode="&#x30d0;" 
d="M76 146h3l29 -16v-3q-7 -6 -16 -20l-4 -8q-31 -48 -60 -69q-2 -2 -3 0l-21 18v2q53 40 72 96zM223 37h-2q-29 51 -68 96l22 15q37 -36 77 -93q-9 -5 -26 -16q-2 -1 -3 -2zM188 169l11 11q9 -7 26 -23l-13 -11q-11 13 -24 23zM249 178l-13 -13q-17 16 -27 24l13 12l4 -4
q16 -12 23 -19z" />
    <glyph glyph-name="uni30D1" unicode="&#x30d1;" 
d="M75 148l32 -15v-3q-7 -6 -15 -20q-2 -3 -2 -4q-31 -49 -68 -72l-19 22q55 43 70 92h2zM152 135l24 15q43 -43 74 -94v-4l-25 -16l-2 1q-4 5 -7 10q-36 61 -64 88zM224 215q26 -3 29 -29q-2 -28 -29 -29q-28 1 -29 29q2 26 29 29zM240 186q-1 13 -16 15q-16 -2 -16 -15
q0 -17 16 -17q14 1 16 17z" />
    <glyph glyph-name="uni30D2" unicode="&#x30d2;" 
d="M45 189h3l31 -6q0 -2 -2 -4v-2q-2 -4 -1 -9v-56q11 1 34 9q5 2 8 3q38 13 60 27h2l16 -18q0 -2 0 -1q5 -7 4 -10q-5 -1 -30 -9q-57 -21 -94 -29v-29q-1 -17 4 -24q6 -11 21 -11h28q25 -1 45 1q20 1 37 5v-31l-36 -2h-70q-27 1 -43 13q-14 12 -14 36v113q0 17 -3 34z" />
    <glyph glyph-name="uni30D3" unicode="&#x30d3;" 
d="M161 173l13 12q11 -9 27 -26v-2l-12 -13l-14 14q-10 9 -14 15zM182 194l14 11q16 -11 29 -25l-13 -13q-18 19 -30 27zM62 168v-59q19 4 39 10q25 7 39 15q9 4 18 12h2l20 -26q2 -3 0 -6h-4h-2q-14 -5 -25 -9q-38 -14 -87 -22v-20q-2 -31 12 -37q4 -4 12 -3h43q10 -1 24 1
q24 2 48 5l-3 -30q-12 0 -24 -1q-34 -2 -50 -2h-33q-20 0 -29 3q-18 2 -23 15q-3 7 -3 17v74q0 13 -2 29q0 11 -2 31q-1 14 -1 21q5 -1 17 -2t18 -1q0 -3 -2 -8q-3 -5 -2 -7z" />
    <glyph glyph-name="uni30D4" unicode="&#x30d4;" 
d="M195 191q-14 -2 -15 -14q1 -13 15 -14q11 1 13 14q-2 12 -13 14zM195 205q24 -3 27 -28q-3 -27 -27 -29q-27 2 -29 29q1 26 29 28zM34 183h3q5 0 30 -3q-1 -7 -4 -13v-61q12 3 37 11q5 1 10 3q26 8 49 23h2h2l14 -16q0 -1 1 -2q6 -5 6 -9h-9q-19 -9 -38 -15
q-36 -14 -74 -21v-35q0 -14 14 -19q6 -3 23 -3q3 1 5 1h21q19 -1 54 3q11 1 17 2l-2 -29h-3q-18 0 -37 -1h-74q-21 0 -31 5q-13 6 -14 31q-2 8 -1 19v98q0 4 -1 14v17z" />
    <glyph glyph-name="uni30D5" unicode="&#x30d5;" 
d="M87 165h66q29 -1 43 4h1l26 -14q1 -2 1 -3q-1 -6 -4 -8q-5 -3 -8 -13q-2 -4 -2 -5q-25 -53 -63 -89q-30 -29 -75 -49q-3 -1 -3 0l-24 17v2q101 42 138 134h-105q-9 0 -23 -1q-15 -1 -23 0v26q27 -2 55 -1z" />
    <glyph glyph-name="uni30D6" unicode="&#x30d6;" 
d="M73 157h61q14 -1 28 2q1 0 4 1q4 2 7 2h1l25 -21q-1 -4 -4 -9q-1 -3 -2 -5q-2 -4 -5 -11q-3 -11 -6 -16q-10 -18 -17 -30q-15 -23 -34 -41q-24 -23 -73 -49h-2l-24 19v1q107 51 130 130h-94q-10 0 -29 -1h-26v29q30 -2 60 -1zM195 194l26 -25l-13 -12l-27 26zM243 189
l-14 -11l-26 23l13 11z" />
    <glyph glyph-name="uni30D7" unicode="&#x30d7;" 
d="M65 157h88q3 -1 15 5h2l26 -20q0 -4 -4 -8q-2 -2 -2 -3q-2 -5 -5 -15q-2 -7 -3 -10q-1 -2 -2 -5q-4 -8 -12 -20q-12 -23 -31 -42q-27 -31 -67 -49q-9 -5 -20 -10q-3 0 -10 8l-1 1q-3 3 -8 6q-6 3 -8 5q99 35 136 131h-93q-10 0 -27 -1h-25v29q31 -3 51 -2zM213 212
q27 -2 29 -29q-2 -28 -29 -29q-28 1 -29 29q1 27 29 29zM227 183q-1 13 -14 14q-13 -1 -14 -14q1 -13 14 -14q13 1 14 14z" />
    <glyph glyph-name="uni30D8" unicode="&#x30d8;" 
d="M32 63l-24 21v3q21 11 56 41q6 6 10 9q13 11 22 11q8 0 25 -11q2 -2 4 -2q2 -2 7 -6q73 -54 116 -74v-3l-17 -28h-2q-52 35 -101 76q-3 1 -8 6q-11 9 -16 12q-11 3 -25 -11l-2 -2q-21 -23 -42 -42q-1 -2 -3 0z" />
    <glyph glyph-name="uni30D9" unicode="&#x30d9;" 
d="M30 63l-21 25v2q29 18 58 40q2 1 5 3q10 9 19 12q11 3 27 -8q11 -7 32 -22q7 -5 15 -10q1 -2 5 -4q48 -34 77 -49l-17 -29h-1q-41 28 -79 59q-15 11 -19 14q-6 5 -9 8q-3 1 -6 3q-8 7 -13 9q-11 2 -21 -5q-12 -13 -24 -23q-15 -14 -28 -25zM169 159l15 10q13 -11 25 -23
l-12 -13q-7 7 -20 18zM233 165l-13 -14q-12 13 -26 27l12 12q15 -12 27 -25z" />
    <glyph glyph-name="uni30DA" unicode="&#x30da;" 
d="M251 54v-2l-20 -27h-3q-7 2 -18 10q-5 3 -7 5q-33 20 -88 69q-9 7 -15 7q-5 0 -12 -6l-2 -2q-4 -4 -12 -10q-8 -7 -11 -10q-5 -5 -13 -12t-12 -11q-2 -2 -6 -7q-2 -1 -4 0l-23 24v2q25 15 48 32q4 4 15 13q3 3 7 6q1 0 4 3q8 5 13 7q11 2 29 -9q1 -1 3 -1q2 -3 8 -7
q10 -7 15 -10q61 -50 104 -64zM202 195q27 -2 29 -29q-2 -29 -29 -30q-29 1 -30 30q2 26 30 29zM217 166q-2 12 -15 14q-15 -1 -15 -14q0 -15 15 -15q14 0 15 15z" />
    <glyph glyph-name="uni30DB" unicode="&#x30db;" 
d="M60 90l27 -13v-4q-6 -5 -16 -18q-4 -5 -5 -7q-14 -20 -31 -36q-1 -2 -2 0q-3 1 -6 4l-9 6h-2q-7 2 -7 6q33 27 51 62zM173 72l18 19h2q28 -26 54 -52v-2l-22 -19h-2q-4 3 -7 7q-26 32 -43 47zM110 191l38 -2q-1 -3 -2 -8q-2 -6 -2 -9v-32h39q24 -1 48 1v-28q-9 -1 -25 0
q-17 1 -25 1h-37v-17q-1 -46 1 -89v-5v-1q-4 -8 -9 -13q-5 -3 -10 -5q-15 -5 -30 -5h-4q-4 14 -8 23q-4 5 -1 7q2 0 7 -1q12 0 17 1q8 3 9 13v71q0 -6 0 21h-44q-9 0 -25 -1t-24 0v28q21 -2 44 -1h48q-1 8 -2 21q-2 12 -3 30z" />
    <glyph glyph-name="uni30DC" unicode="&#x30dc;" 
d="M61 93h2l26 -14v-2q-5 -4 -11 -14q-4 -6 -6 -8q-8 -10 -23 -27q-6 -7 -11 -13q-3 -1 -8 3q-2 1 -2 2q-4 2 -13 5q-2 1 -2 2v2q33 32 48 64zM169 77l19 15q21 -18 47 -55l-20 -17h-2q-9 10 -16 21q-18 24 -28 36zM179 173l12 11q5 -5 16 -15q6 -5 9 -7l-10 -14q-3 2 -6 5
q-13 14 -21 20zM203 197l12 12q16 -10 28 -23l-13 -13q-14 13 -27 24zM112 191h4q5 0 15 -1q9 -2 15 -1q0 -2 -2 -5v-2q-2 -5 -1 -10v-32h35q29 -1 46 1v-30q-8 -1 -22 0t-21 1h-38v-75v-10q2 -22 -4 -27q-5 -5 -17 -10q-14 -1 -26 -2l-8 25v2h16q12 1 14 18v79h-42
q-9 0 -26 -1q-18 -1 -26 0v30q16 -2 50 -1h44q-3 29 -6 51z" />
    <glyph glyph-name="uni30DD" unicode="&#x30dd;" 
d="M59 90h2l25 -12q1 -4 0 -5q-6 -4 -14 -16q-2 -4 -3 -5q-11 -14 -33 -36q-2 -2 -2 0l-24 15v3q26 20 49 56zM168 77l19 17q20 -16 51 -55q-13 -12 -20 -23h-2q-7 8 -13 16q-22 30 -35 45zM187 189q2 26 30 29q26 -3 29 -29q-2 -29 -29 -30q-29 1 -30 30zM232 188
q-2 15 -15 16q-17 -1 -17 -16q0 -16 17 -16q14 0 15 16zM112 189h3q6 0 20 -2q4 -1 9 -1q0 -4 -1 -10q-1 -5 -1 -7v-32q39 0 79 3l4 -29q-9 -1 -25 1q-16 1 -24 1h-34v-96q-1 -20 -16 -27q-8 -3 -25 -4q-4 0 -8 -1q-3 9 -6 17q-1 0 -2 2q-3 6 -1 9h17q12 0 13 18v82h-37
q-10 0 -27 -2h-25v29q15 0 44 -1q29 -2 45 -1v13q0 5 -1 18q-2 13 -1 20z" />
    <glyph glyph-name="uni30DE" unicode="&#x30de;" 
d="M241 143v-2q-8 -4 -20 -17l-4 -4q-41 -47 -74 -72l26 -28l-24 -18h-2q-40 45 -75 67l-1 1l21 19h2q14 -9 26 -19q3 -4 7 -5q31 25 63 66h-112q-10 0 -29 -1q-20 -1 -30 -1v30q14 -2 44 -1h76q33 -1 66 1l6 6h2z" />
    <glyph glyph-name="uni30DF" unicode="&#x30df;" 
d="M102 194h3q36 -11 69 -27l-12 -26l-2 -1q-36 16 -73 29l-1 1zM86 127h2q25 -7 69 -30l6 -2l-15 -26q-38 19 -76 35l-1 1zM81 54h2q52 -17 99 -44v-1q7 -2 8 -4l-7 -7q-10 -11 -13 -18l-3 2q-48 27 -100 46l-1 2z" />
    <glyph glyph-name="uni30E0" unicode="&#x30e0;" 
d="M107 183h3q19 -6 37 -14v-3l-6 -5q-6 -4 -10 -17q-2 -5 -3 -7q-23 -61 -46 -99h1q4 -1 8 1q46 3 92 12q-3 3 -5 6q-15 20 -24 30v2l19 15h2q29 -26 68 -78v-2l-18 -18q-7 -6 -9 -5q-4 4 -10 15q-5 8 -7 12h-1q-44 -9 -126 -20l-24 -3q-2 -1 -5 -2q-4 -1 -5 -1
q-2 -2 -4 -2q-3 0 -4 -1q-1 0 -1 -1q-3 -3 -5 -2l-11 35l1 3h5q15 -1 31 1h1q46 88 56 148z" />
    <glyph glyph-name="uni30E1" unicode="&#x30e1;" 
d="M188 189h2l32 -16v-4q-5 -2 -8 -7q-3 -4 -12 -24q-11 -23 -25 -44q19 -15 38 -28l-18 -26h-2q-22 18 -36 28q-5 -8 -11 -13q-40 -47 -88 -68q-1 -1 -1 0l-3 3q-5 4 -14 10q-2 0 -1 0q-7 0 -7 5q59 26 101 78q1 0 1 1q-8 5 -23 15q-16 9 -23 15l15 21q25 -12 49 -27
q27 43 34 81z" />
    <glyph glyph-name="uni30E2" unicode="&#x30e2;" 
d="M91 170h64q8 -1 51 3v-30q-9 -1 -26 0t-25 1h-24v-40h37q11 -1 33 0q21 1 33 1v-28h-32q-22 1 -33 1h-38v-40q0 -14 19 -15h25q19 0 39 1q1 0 3 1v-28h-10q-4 -1 -11 -1h-23q-27 0 -39 3q-21 2 -26 11q-7 9 -7 21v47h-28q-9 0 -26 -1t-25 0v28q9 0 28 -1t30 0h21v40h-10
q-8 0 -23 -1t-22 0v30q37 -4 45 -3z" />
    <glyph glyph-name="uni30E3" unicode="&#x30e3;" 
d="M86 180h28q1 -4 -2 -7v-4q-1 -7 2 -19q1 -7 2 -12q0 -1 1 -3q0 -1 1 -1q8 1 54 9q20 1 30 8h4q10 -8 21 -16v-2q-7 -4 -14 -14q-2 -2 -2 -3q-17 -26 -37 -49h-2l-17 12q21 20 35 46v2q-35 -9 -68 -15q3 -22 8 -43q4 -30 11 -60l-26 -4q-7 51 -16 102l-2 -1q-24 -3 -48 -8
l-1 -1q-5 -3 -8 -2l-11 24v3h7h1q24 2 57 8q-1 2 -2 8q-1 5 -1 10q-4 16 -5 32z" />
    <glyph glyph-name="uni30E4" unicode="&#x30e4;" 
d="M111 194l-2 -11v-1v-5v-1q1 -7 3 -18q2 -13 5 -24q37 6 75 14q1 0 6 1q10 3 15 6q2 1 3 2h2q17 -8 31 -16v-4q-8 -5 -17 -19q-2 -4 -3 -5q-24 -37 -43 -57l-2 -1q-5 2 -12 5q-8 3 -12 6v3q10 9 19 21q14 16 25 36q-19 -4 -37 -8l-45 -9q12 -62 26 -123l-28 -7h-2
q-12 68 -24 125l-8 -2q-32 -7 -71 -18l-8 32q16 1 35 3q16 3 47 9q-1 6 -2 9l-3 9q-5 29 -10 45z" />
    <glyph glyph-name="uni30E5" unicode="&#x30e5;" 
d="M87 148h81q5 -1 5 -2l-7 -89h27q12 -1 26 1v-25h-15q-9 1 -13 1h-126q-5 0 -14 -1h-14v25q13 -2 26 -1h79l6 70h-61q-4 0 -11 -1h-9v24q9 -2 20 -2z" />
    <glyph glyph-name="uni30E6" unicode="&#x30e6;" 
d="M97 165h92l-12 -121q32 -1 64 1v-32h-37q-25 2 -37 2h-80q-13 0 -38 -1q-23 -1 -34 0v31q33 -2 68 -1h63l9 93h-66h-42v29q24 -2 50 -1z" />
    <glyph glyph-name="uni30E7" unicode="&#x30e7;" 
d="M89 159h101v-56q0 -33 1 -51q1 -20 3 -37h-25v14h-80q-5 0 -13 -1h-10v20q10 -2 23 -1h80v37h-80h-23v20q10 -2 23 -1h80v34h-80h-27v25q22 -4 27 -3z" />
    <glyph glyph-name="uni30E8" unicode="&#x30e8;" 
d="M112 169h94v-144q0 -17 2 -29h-32v11h-65q-11 0 -32 -1q-21 -2 -31 -1v31q31 -2 62 -2h66v42h-77q-8 0 -17 -1l-34 -2v32q1 -1 5 -1q32 -2 49 -1h74v40h-84q-7 0 -22 -1h-22v28q10 0 32 -1q21 -1 32 0z" />
    <glyph glyph-name="uni30E9" unicode="&#x30e9;" 
d="M88 186h76q18 0 38 2v-31q-7 -1 -20 1q-14 1 -20 1h-64q-8 0 -23 -2h-21v31q16 -2 34 -2zM80 127h115l3 1q2 2 4 2q15 -8 25 -18v-4l-6 -4q-6 -5 -12 -19q-1 -2 -1 -3q-2 -3 -3 -5q-11 -20 -18 -28q-11 -15 -23 -27q-30 -27 -66 -44q-2 -1 -3 0q-5 5 -11 9q-7 5 -13 10v2
q85 33 115 101h-104q-9 0 -26 -1q-18 -1 -27 -1v31q25 -2 51 -2z" />
    <glyph glyph-name="uni30EA" unicode="&#x30ea;" 
d="M93 172v-67v-25q1 -17 2 -25h-29q-1 7 0 21q1 13 1 21v55q0 5 -1 17v20q15 -2 32 -1q-1 -3 -3 -8q-2 -6 -2 -8zM187 177v-44q0 -37 -7 -73q-7 -35 -26 -60q-14 -16 -29 -31q-1 -1 -2 0t-3 2q-5 3 -15 8q-2 1 -1 1q-7 1 -7 5q24 16 35 30q24 30 25 84v64q-1 16 -2 31v3
q18 -2 35 -3q0 -4 -2 -9t-1 -8z" />
    <glyph glyph-name="uni30EB" unicode="&#x30eb;" 
d="M59 169h3q5 0 15 -1q9 -1 15 0q0 -4 -1 -9t0 -8v-11q0 -7 -3 -39q-1 -4 -1 -3q-3 -23 -7 -33q-14 -41 -49 -65h-2q-10 7 -23 15l-1 2q31 16 44 45q13 26 14 65v9l-2 18q-1 8 -2 15zM152 157v-111q-1 -2 1 -2q26 9 70 48q7 6 15 13l13 -23q-29 -32 -84 -64q-3 -2 -9 -5
q-13 -8 -16 -13q-6 0 -9 4q-2 1 -5 5q-2 2 -8 11q-2 0 0 3q2 10 3 19q2 9 2 18v92q0 8 -1 13v10q5 -1 15 -1q10 -1 16 -1q0 -4 -2 -8q-2 -5 -1 -8z" />
    <glyph glyph-name="uni30EC" unicode="&#x30ec;" 
d="M37 173l37 -6q0 -3 -3 -7t-2 -6v-115h2q30 7 70 31q38 23 73 55l7 -25v-2q-45 -45 -112 -74l-8 -4q-15 -7 -23 -11q-11 -4 -17 -10h-2l-24 25v1q1 4 3 9q1 3 1 7v112q-1 9 -2 20z" />
    <glyph glyph-name="uni30ED" unicode="&#x30ed;" 
d="M207 159v-104q-1 -12 0 -25q0 -12 2 -30h-31v15h-99v-15h-32q1 27 2 58v101h158zM79 41h99v92h-99v-92z" />
    <glyph glyph-name="uni30EE" unicode="&#x30ee;" 
d="M51 167h128l2 1q4 2 6 1q5 -3 14 -9q2 -2 5 -3v-3q-6 -9 -7 -18q-2 -6 -4 -19q-4 -16 -6 -23q-4 -14 -15 -33q-20 -35 -53 -56l-19 15v2q32 16 52 47q18 31 24 77h-106v-33q-1 -13 1 -23h-23v10q1 8 1 13v54z" />
    <glyph glyph-name="uni30EF" unicode="&#x30ef;" 
d="M36 180h148l11 3h2l22 -14q2 -2 0 -6q-2 -7 -4 -11q-3 -29 -9 -55q-9 -30 -19 -45q-20 -40 -64 -72h-1l-22 18v2q49 32 66 69q20 40 21 84v4h-125l1 -75h-27v98z" />
    <glyph glyph-name="uni30F0" unicode="&#x30f0;" 
d="M78 148h63v1q-2 22 -5 42q-1 1 -1 2q-1 5 -2 8h39q0 -3 -3 -9q-2 -4 -2 -5v-38v-1h21q6 -1 20 1q8 1 12 2v-29h-52l-1 -1q-1 -8 0 -22q1 -15 1 -22h1h39q18 0 36 2v-32h-74l-1 -1q0 -14 1 -27q2 -30 2 -47h-32q-1 25 1 68q0 4 1 6l-1 1q-65 -2 -129 -5v34h43v1v44
q-1 -1 -6 -1h-18v31q5 -1 16 -2q20 -2 31 -1zM132 77h10v22v22v1h-60v-1v-44v0h50z" />
    <glyph glyph-name="uni30F1" unicode="&#x30f1;" 
d="M196 175l20 -16q1 -1 1 -5q-7 -3 -16 -15q-3 -5 -4 -6q-17 -23 -36 -41l-20 10q0 -1 -1 -2t0 -1v-64h43q27 0 56 2v-32q-10 -1 -27 1q-17 1 -26 1h-110q-10 0 -29 -1q-20 -1 -30 -1v32q22 -2 34 -2q15 -1 27 0h35v58q0 5 -2 16v5q6 -1 15 -2t16 -1q14 12 31 34h-92
q-7 0 -17 -1q-11 -2 -17 -1v30q24 -2 49 -1h42q23 -1 47 1l3 1q6 2 8 1z" />
    <glyph glyph-name="uni30F2" unicode="&#x30f2;" 
d="M219 158v-1l-5 -5q-3 -5 -5 -16q-1 -5 -1 -7q-19 -71 -53 -102q-36 -33 -92 -45h-2q-6 10 -15 18q-1 0 -2 1q-5 3 -4 7q54 2 97 42q17 16 28 40h-75q-10 0 -27 -1t-26 0v26q17 -2 37 -1h101q1 5 3 16q2 10 4 16h-100q-8 0 -21 -1q-14 -2 -21 -1v29q20 -2 40 -1h70
q17 -1 34 1q1 0 3 1q3 1 5 1q4 -3 12 -7q7 -4 12 -6q3 -2 3 -4z" />
    <glyph glyph-name="uni30F3" unicode="&#x30f3;" 
d="M97 133l-18 -18h-2q-23 23 -48 44l19 16h3q18 -14 46 -40v-2zM217 143l12 -27v-1q-51 -53 -160 -111q-4 -2 -7 -4q-10 -1 -11 -7h-3q-7 7 -17 24q-3 6 -4 9v2q13 0 33 9q83 30 157 106z" />
    <glyph glyph-name="uni30F4" unicode="&#x30f4;" 
d="M223 169l-13 -10q-3 2 -5 4q-13 14 -21 20l13 11q14 -11 26 -25zM244 194l-13 -11q-3 2 -5 4q-11 12 -18 17l11 11l5 -5q14 -10 20 -16zM127 185v-28h50q1 -1 5 1t6 1l27 -18v-4q-7 -4 -8 -16q-16 -48 -29 -69q-19 -31 -52 -57q-12 -12 -27 -20q-2 -1 -2 0q-3 2 -8 5
q-13 8 -20 10v3q87 42 107 137h-135v-64h-29q-1 11 0 34t1 35v22h85v16q-1 8 -3 17q-1 5 -1 11q14 0 21 -1h17q-1 -3 -3 -7q-3 -6 -2 -8z" />
    <glyph glyph-name="uni30F5" unicode="&#x30f5;" 
d="M74 141h47v2q1 12 2 26v9q15 -2 29 -3q0 -3 -3 -7q-2 -3 -2 -4q-2 -7 -3 -14v-6v-3h34q16 -1 33 1v-12q0 -10 -2 -28q-1 -6 -1 -12q-1 -23 -8 -44q-6 -18 -14 -23q-13 -11 -36 -10h-6l-3 22q6 -2 13 -1h4q9 -1 15 7q4 5 9 21q5 17 5 46v11h-46l-1 -1q-15 -64 -76 -105
l-19 16q55 29 72 89l-1 1h-42q-4 0 -11 -1t-10 0v24q10 -2 21 -1z" />
    <glyph glyph-name="uni30F6" unicode="&#x30f6;" 
d="M102 183l24 -10q0 -4 -3 -8q-1 -2 -1 -4l-4 -6q-3 -7 -4 -10q-2 -6 -5 -12h82q16 -1 31 1v-24h-15q-11 1 -16 1h-23q-4 -34 -15 -54q-17 -32 -51 -56q-1 -1 -1 0l-20 13v2q56 35 64 95h-50q-19 -26 -46 -42l-15 15v2q52 31 67 97h1z" />
    <glyph glyph-name="uni3105" unicode="&#x3105;" 
d="M104 198q0 7 8 3q10 -10 17 -21q-1 -4 -6 -6q-5 -1 -25 -27q-13 -20 -27 -34q54 9 107 23q2 1 7 2q25 -14 30 -26q0 -3 -4 -6q-6 -4 -9 -9q-46 -113 -82 -111q-3 1 -3 3t1 10q-2 9 -21 26q-2 2 -3 4q-1 7 7 8q19 -16 27 -17q30 9 52 84q2 12 -19 11q-62 -8 -95 -22
q-2 -1 -5 -3q-5 -3 -6 -3q-23 18 -9 27q48 34 58 84z" />
    <glyph glyph-name="uni3106" unicode="&#x3106;" 
d="M49 -11q-7 3 -2 8q46 13 86 50q-24 21 -52 38q-4 3 -2 6t6 2q35 -16 61 -31q23 26 31 58q0 4 -2 5q-50 -6 -80 -17q-3 -3 -8 -5q-11 6 -13 22q33 19 46 64q-5 14 4 14q14 -10 21 -21q0 -5 -10 -9q-7 -8 -16 -22q-12 -17 -21 -26q68 12 79 20q2 1 4 1q16 -6 30 -24
q0 -4 -8 -8q-4 -3 -5 -4q-15 -35 -36 -58q22 -16 33 -26q15 -16 13 -28q-6 -16 -20 -4l-42 42q-38 -34 -97 -47z" />
    <glyph glyph-name="uni3107" unicode="&#x3107;" 
d="M67 171h7q35 0 93 13q2 0 4 1q4 2 7 2q15 -5 33 -25q0 -3 -4 -7q-3 -5 -3 -8v-5q0 -14 1 -28q2 -34 2 -52v-40q-1 -22 -11 -26q-15 4 -17 16q0 3 1 10q6 24 6 55v37q0 40 -8 47q-5 9 -34 2q-5 -2 -17 -4q-34 -9 -40 -8h-2q-5 1 -7 4q-1 -3 -1 -7q-2 -9 -1 -14v-41
q0 -34 -3 -65q-1 -30 -10 -32q-16 7 -18 19q0 3 3 11q13 35 13 83v11q0 29 -11 55q-1 3 4 4q5 -2 13 -9v1z" />
    <glyph glyph-name="uni3108" unicode="&#x3108;" 
d="M73 160v-7q0 -7 -1 -19v-16q-2 -35 -1 -95v-6q-2 -4 4 -4q44 0 93 12q6 1 20 1q29 -15 13 -26q-7 0 -13 1q-19 2 -28 2h-10q-37 -2 -72 -6q-14 -3 -15 -3q-10 4 -15 15l1 6q7 29 8 51v42q-2 49 -9 70q0 1 4 2q6 -2 12 -6q45 3 90 17q8 3 14 4q13 -3 17 -13q1 -9 -11 -9
q-50 -4 -86 -13l-4 -1q-5 0 -12 5q1 -2 1 -4z" />
    <glyph glyph-name="uni3109" unicode="&#x3109;" 
d="M135 104q3 -4 1 -7q-1 -2 -5 -4l-2 -2q-2 -4 -4 -7q-29 -70 -83 -89q-7 -2 -7 3q1 2 -1 2q66 37 72 112q-17 -2 -23 -4q-5 -2 -11 -7t-8 -4q-5 1 -12 12q-4 7 -1 9q29 17 50 59q2 6 4 16q1 6 2 9t5 2q21 -17 20 -26q-2 -2 -5 -3q-5 -1 -7 -4q-4 -5 -9 -11
q-22 -29 -32 -38q11 2 34 5q40 7 63 12h2q8 3 13 3q13 -3 31 -21q0 -5 -6 -10q-5 -6 -16 -38q-31 -86 -55 -83q-2 0 -3 6l-1 4q-1 8 -23 21q-2 1 -2 2q-4 5 3 8q1 -1 6 -3q15 -7 21 -6q26 5 43 88q1 12 -14 12q-19 -1 -53 -7q5 -4 13 -11z" />
    <glyph glyph-name="uni310A" unicode="&#x310a;" 
d="M41 114h2q8 -1 26 1q19 2 42 6q5 25 5 47q0 10 -5 19v3h-1q0 5 4 5q24 -5 33 -19q0 -2 -4 -6q-3 -3 -3 -5q-2 -17 -8 -41q15 2 38 7q6 1 9 2q2 0 5 1q5 2 8 2q16 -4 24 -19q-1 -8 -5 -8q-5 -1 -13 1q-9 1 -13 1h-12q-13 0 -34 -3h-11q-16 -55 -35 -92h3q26 3 74 13
q-4 5 -13 16l-6 9q-2 5 4 6q51 -29 51 -51q-2 -9 -15 -13q-5 0 -8 8q-1 3 -1 5q-2 2 -3 5q-2 3 -3 6q-39 -9 -76 -21q-3 -1 -7 -5q-5 -6 -7 -6q-13 6 -20 21q22 13 42 95q-22 -4 -35 -8q-10 -2 -12 -2q-15 6 -20 20z" />
    <glyph glyph-name="uni310B" unicode="&#x310b;" 
d="M49 188q3 0 14 -1h6q36 0 91 12q16 -1 29 -16q0 -7 -3 -7q-9 -2 -17 -8q-13 -12 -43 -46q-4 -4 -5 -6q40 5 53 11q2 2 4 2q15 -6 29 -24q3 -3 0 -6q-1 -3 -6 -5q-6 -2 -8 -6q-54 -99 -81 -98q-8 0 -7 3q2 9 -19 33q-6 4 -4 7q3 3 9 0q3 -3 8 -7t17 -11q21 -5 61 82
q4 14 -7 14q-24 0 -45 -11q-6 -4 -7 -3q-15 3 -19 14q0 2 5 7l2 2q35 35 45 58v2q1 1 -1 1q-47 -7 -72 -14q-7 -2 -10 -2q-7 0 -16 10q-6 8 -3 13z" />
    <glyph glyph-name="uni310C" unicode="&#x310c;" 
d="M78 100l-2 -2q-5 -6 -8 -5q-13 5 -17 17q0 2 4 4q2 1 4 3q21 31 18 69q1 4 6 4q15 -10 23 -18q0 -4 -1 -5q-12 -3 -27 -50l28 4q15 2 23 4q8 28 7 55q0 1 -2 6q-1 8 -1 11q1 3 5 4q16 -7 28 -16q2 -2 0 -7q-1 -2 -4 -4q-2 -2 -2 -3q-3 -22 -10 -41q13 2 25 6q2 0 4 1
q3 2 6 2q23 -11 29 -24q0 -5 -7 -8q-5 -2 -5 -4q-3 -8 -5 -18q-19 -94 -55 -98q-11 -2 -10 9q-3 9 -15 20q-5 5 -5 8q-1 5 5 5q2 -2 7 -5q13 -9 18 -9q27 -2 42 97q0 6 -7 7q-17 -4 -33 -5q-34 -84 -95 -120q-4 -2 -6 1q-3 3 0 5q52 36 81 111q-40 -5 -46 -11z" />
    <glyph glyph-name="uni310D" unicode="&#x310d;" 
d="M113 189q16 -8 21 -19q-1 -4 -4 -5q-5 -3 -24 -28q-31 -40 -48 -56q23 -23 37 -35q35 -28 32 -44q-2 -7 -12 -10q-6 1 -15 11q-1 1 -1 2q-17 30 -54 75v2q46 51 63 101q-2 6 5 6zM126 89v2q56 55 57 87q1 6 7 6q14 -9 21 -23q0 -4 -5 -6q-5 -1 -7 -4q-26 -35 -59 -62
q71 -58 71 -81q1 -10 -13 -14q-5 1 -12 9q-26 51 -60 86z" />
    <glyph glyph-name="uni310E" unicode="&#x310e;" 
d="M45 176h11q32 0 113 16q21 5 24 5q30 -11 16 -21h-3q-7 1 -17 2q-19 -2 -67 -9q9 -8 12 -13v-3q-1 -3 -8 -8l-1 -1q-2 -2 -23 -32q-2 -2 -2 -3q3 0 11 1q31 3 47 11q1 0 3 1q3 2 5 2q23 -8 31 -21q0 -3 -4 -5t-4 -4q-3 -5 -8 -16q-40 -94 -66 -92q-3 1 -4 5q0 3 -1 5
q-1 1 -1 2q-4 6 -20 18q-3 7 4 8q0 -1 1 -1q10 -9 22 -10q26 3 52 84q0 6 -5 6q-43 -4 -55 -10l-8 -4q-8 -4 -9 -4q-10 3 -16 17q0 2 3 5l1 1q16 10 29 44q1 3 2 10q0 3 1 6q-18 -3 -43 -7l-10 -1q-7 0 -14 8q-6 7 1 8z" />
    <glyph glyph-name="uni310F" unicode="&#x310f;" 
d="M86 178l5 1q50 0 96 13q8 2 11 3q30 -14 17 -23q-6 -2 -22 0l-3 1q-29 -1 -74 -8l-4 -2q-6 -2 -9 -1q-5 0 -9 4q-2 -3 -1 -2q0 -132 -49 -168q-4 -2 -6 0q-3 2 -1 4q37 31 36 131v4q0 28 -4 48q1 1 3 2q7 -1 14 -7z" />
    <glyph glyph-name="uni3110" unicode="&#x3110;" 
d="M180 156v-151q-2 -10 -8 -11q-12 6 -15 17q0 1 1 4q6 19 6 43v16q-5 -2 -11 -5q-51 -22 -57 -27q-3 -2 -6 -6q-4 -4 -6 -4q-12 7 -16 18q0 3 3 7q5 5 6 9q4 20 5 67q0 13 -4 21q-2 2 -1 5q0 1 4 2q21 -7 22 -17q0 -2 -2 -4q-3 -5 -4 -11q-1 -12 -4 -37q-2 -23 -2 -32
q12 4 35 11q25 7 38 12v80q0 15 -6 26q-1 4 -1 7t4 4q25 -7 27 -16q-1 -2 -3 -5q-6 -9 -5 -23z" />
    <glyph glyph-name="uni3111" unicode="&#x3111;" 
d="M59 77v3q76 69 79 113q4 3 6 2q14 -12 20 -24q1 -4 -2 -6q-2 -2 -5 -2q-2 -1 -4 -3q-44 -53 -79 -80q14 -7 31 -15q94 -41 92 -58q-1 -16 -18 -13q-5 4 -9 6q-28 30 -111 77z" />
    <glyph glyph-name="uni3112" unicode="&#x3112;" 
d="M137 119v-40q0 -35 3 -65l1 -7q-1 -7 -8 -10q-13 6 -18 26q0 1 1 5q7 19 7 64v69q-33 -5 -55 -9l-4 -2q-5 -3 -7 -2q-11 3 -16 18q1 1 3 1q43 0 133 18q12 3 15 3q31 -12 19 -23q-4 -1 -12 0q-6 1 -15 2q-9 0 -43 -4h-4q-2 -11 -1 -30q1 -10 1 -14z" />
    <glyph glyph-name="uni3113" unicode="&#x3113;" 
d="M126 58v5q-30 -4 -35 -10t-8 -5q-11 4 -16 19q0 1 2 3q6 4 6 13v41q0 12 -8 31q-2 6 -2 8q15 5 29 -10q-1 -2 -3 -5q-3 -4 -2 -10v-65q19 0 37 3v74q0 20 -7 36q-1 2 -1 5q-2 3 0 5q1 0 1 1q-1 4 16 -4q14 -7 15 -11q-5 -8 -6 -12q-1 -11 -2 -36t-1 -32v-23q9 0 28 4
q-12 -3 6 1q3 -1 6 -4q1 4 1 8q1 14 2 48q0 9 -4 17q-1 2 -1 4q0 4 4 5q23 -8 24 -16q-1 -1 -1 -2q1 0 0 -1q-6 -7 -6 -11q-3 -71 -10 -81h-3l-3 3q-7 10 -6 15q-8 -1 -37 -3v-10q-1 -8 0 -21t1 -20q27 3 54 8h7q11 -1 19 -12q6 -11 -4 -11q-4 0 -13 1q-12 2 -18 2
q-64 -3 -120 -10q-18 -3 -19 -3q-18 7 -15 14q22 2 45 4q22 1 44 4q2 16 3 26q1 11 1 20z" />
    <glyph glyph-name="uni3114" unicode="&#x3114;" 
d="M151 198h2q18 -15 20 -23q0 -4 -7 -5q-5 -1 -6 -2q-40 -46 -93 -74q-5 -3 -8 -1q-3 5 2 7q61 42 84 85q0 1 1 4q1 6 5 9zM160 69v-37q-1 -39 -8 -44q-12 4 -17 19l1 4q6 11 6 21v35v11q-48 -39 -85 -51q-7 1 -3 7q79 39 125 118v1q2 8 6 8q11 -8 18 -18q1 -4 0 -5
q-1 -2 -5 -4q-5 -1 -5 -2q-16 -22 -40 -44q6 -4 10 -7q2 -4 -2 -10q-1 -1 -1 -2z" />
    <glyph glyph-name="uni3115" unicode="&#x3115;" 
d="M184 175q1 9 -4 9q-54 -5 -91 -12q-11 -1 -12 -1q-15 6 -19 22q0 -1 1 0t2 1q33 -3 69 0q35 4 59 12q23 -10 27 -22q-1 -2 -4 -4q-13 -9 -18 -39q-5 -18 -13 -21q-5 2 -6 6q-22 -2 -41 -9q-17 -4 -22 -4t-11 4q-2 -84 -53 -129q-3 -2 -7 1q-2 2 0 5q40 44 39 114
q0 6 -3 19q-1 6 -1 8q3 6 20 -8q16 1 49 9q13 4 15 4q4 0 14 -6l4 18q4 11 6 23z" />
    <glyph glyph-name="uni3116" unicode="&#x3116;" 
d="M189 161v-31q0 -31 1 -78q1 -22 1 -23q-1 -23 -13 -27q-6 0 -9 9h-8q-12 2 -50 -4q-15 -2 -18 -2q-2 0 -8 4q-2 3 -3 4q-2 1 -3 2v-1q-1 -13 -6 -16q-11 3 -14 19q-1 1 1 5q9 20 9 79v37q-1 15 -5 29q-1 9 -1 11t3 2q3 -2 8 -6q78 8 96 21q22 -7 28 -18q0 -3 -4 -6
q-6 -6 -5 -10zM107 119q0 1 3 3q1 0 2 1q34 -23 35 -37q-6 -23 -18 -13q-10 27 -18 36q-5 7 -4 10zM79 24h10q21 -2 61 6q4 1 5 1q5 -1 12 -5q0 4 1 10q5 27 5 40v45q1 25 -2 42q-4 8 -13 8q-18 0 -70 -12q-1 0 -5 3v-19q0 -52 -4 -114v-5z" />
    <glyph glyph-name="uni3117" unicode="&#x3117;" 
d="M107 119v-103q-2 -17 -9 -23q-10 7 -12 19q0 3 1 13q4 30 4 57v42q0 14 -1 22q-1 9 -2 17h-2q-5 -1 -12 -4q-6 -1 -9 -1q-14 3 -17 19l2 1q67 1 116 16q2 0 4 1q5 1 7 2q23 -9 31 -24q0 -3 -5 -6q-4 -3 -4 -5q-26 -92 -50 -93q-3 0 -5 5q-1 4 -2 6h-1q-2 5 -19 16
q-6 3 -6 6q0 4 6 6q2 -2 7 -4q14 -7 17 -6q20 -1 32 69q1 8 -11 9q-15 0 -69 -11q12 -12 13 -19q0 -2 -1 -5q-3 -8 -3 -22z" />
    <glyph glyph-name="uni3118" unicode="&#x3118;" 
d="M213 120h-19q-20 0 -33 -2q-14 -1 -25 -3l-12 -50v-3q12 2 23 5q12 3 19 5h1q8 5 10 5q12 -6 21 -17q1 -2 1 -3v-1q0 -3 -8 -6l-3 -2q-2 -2 -8 -11q-13 -24 -30 -43q-4 -4 -8 -2q-4 3 -1 6q12 14 24 47q2 11 -4 10q-31 -2 -40 -10q-2 -1 -5 -4q-7 -5 -9 -4q-10 3 -13 16
q-1 3 4 6q8 6 11 16q3 7 10 37q-32 -8 -47 -14q-1 -1 -2 -1q-7 -3 -10 -2q-6 -1 -18 17q-1 1 -1 2q-2 0 -2 1q1 1 3 2q9 -1 63 7q11 2 17 3q6 33 6 46q0 9 -5 19v3q-1 3 2 4q0 -1 2 -1q32 -7 32 -12l-1 -4q-2 -2 -5 -4q-2 -2 -2 -3q-3 -8 -6 -23t-5 -22q16 3 28 6q11 2 15 3
q10 3 12 3q26 -11 18 -22z" />
    <glyph glyph-name="uni3119" unicode="&#x3119;" 
d="M78 25h2q44 4 97 14q-11 17 -22 29q-2 3 0 5q3 2 6 1q51 -38 54 -57q-2 -14 -13 -16q-6 0 -11 11q-2 3 -2 5q-3 5 -6 13q-52 -12 -100 -26q-6 -2 -12 -6q-5 -4 -7 -4q-20 8 -23 21q0 2 6 5q3 1 4 2q22 19 78 102q-14 37 -34 60q-3 3 -1 6q4 4 31 -1q2 -1 2 -6
q-1 -1 -2 -3q-1 -3 0 -5q3 -10 16 -34l8 -15q0 -1 -19 -27q-39 -55 -52 -74z" />
    <glyph glyph-name="uni311A" unicode="&#x311a;" 
d="M72 187q23 -21 40 -39q6 -7 5 -12t-7 -2q-9 6 -33 21q-19 13 -23 17q-10 9 -2 18q8 6 20 -3zM138 135q35 34 42 55q-1 4 4 6q10 -5 23 -19q1 -4 -2 -6q-1 -1 -5 -2l-4 -1q-4 -3 -15 -12q-26 -20 -38 -26q-3 0 -5 5zM136 34v-19q-2 -17 -10 -22q-12 7 -15 18q0 3 2 8
q8 20 8 73v17q-1 6 -4 13q-1 3 -1 5q-2 3 3 4q19 -8 24 -15v-3q-1 -2 -4 -5l-2 -2q0 -13 -1 -36q-1 -24 0 -36z" />
    <glyph glyph-name="uni311B" unicode="&#x311b;" 
d="M138 153v-17q0 -8 3 -20q1 -5 2 -7q-1 -5 -10 -9h-4q-4 2 -12 2q-42 -3 -44 -46q3 -44 49 -47q32 -4 45 20q4 7 10 3q5 -5 2 -12q-17 -28 -57 -28q-62 5 -65 65q3 56 66 60v8q0 30 -4 45q-20 -2 -28 -3q-3 -1 -11 -2q-17 -3 -20 -3q-9 2 -19 16q-1 0 0 1t1 2q39 0 71 3
t60 9q3 0 6 1q10 3 15 3q10 -2 18 -14q6 -9 -4 -9h-5q-6 1 -13 2q-14 0 -58 -4q10 -6 10 -9t-3 -7q-1 -2 -1 -3z" />
    <glyph glyph-name="uni311C" unicode="&#x311c;" 
d="M125 103v8v25q-32 -4 -51 -8q-15 -2 -17 -2q-11 3 -17 15q0 4 5 5q33 -3 79 5q-1 15 -2 32q0 2 -4 13q-1 3 -1 4q-1 4 12 2q14 -5 16 -9q0 -3 -3 -6q-3 -4 -2 -6q0 -6 -1 -17v-11h2q11 1 27 4q3 0 11 1q8 2 11 2q21 -5 26 -19q-1 -5 -5 -5q-3 0 -9 1q-13 2 -26 2
q-15 0 -22 -1h-14q0 -25 4 -38l1 -3q-2 -10 -10 -11h-5q-9 1 -12 1q-38 -2 -39 -37q3 -40 47 -42q25 -1 36 11q5 8 9 3q3 -6 -2 -14q-17 -20 -46 -22q-56 7 -61 60q3 53 63 57z" />
    <glyph glyph-name="uni311D" unicode="&#x311d;" 
d="M107 103v-44q-3 -51 38 -47q10 0 21 2q4 0 6 1q12 -3 19 -15q2 -7 -27 -7q-48 0 -61 17q-15 16 -12 73v18q-2 -1 -5 -1q-3 -1 -4 -1q-11 -2 -23 -6q-5 -1 -7 -1q-16 6 -17 17q14 0 39 3q11 2 17 3v54q0 5 -3 14q-1 1 -1 4q0 5 3 6q19 -4 26 -13q0 -2 -1 -3v-1
q-1 -1 -2 -3q-7 -7 -6 -23v-33q33 6 48 8q3 21 3 41q-1 8 -4 24q0 4 3 5q13 -2 27 -11q1 -2 1 -4q0 -1 -3 -4q-4 -4 -4 -6q-2 -24 -6 -42q17 3 29 4q11 -2 18 -14q4 -9 -6 -10q-4 0 -15 2q-7 2 -8 2q-4 0 -11 -1h-11q-14 -49 -27 -74q-6 -4 -7 2q10 30 18 70q-32 -4 -45 -6z
" />
    <glyph glyph-name="uni311E" unicode="&#x311e;" 
d="M79 160l3 2q12 -7 18 -17q1 -2 -1 -5q-2 -2 -5 -4l-3 -2l-6 -10q-7 -14 -12 -22q-1 0 9 1q19 2 40 6q8 28 10 65q-34 -5 -52 -10q-8 -1 -9 -1q-17 5 -18 21h14q67 0 110 14q6 2 8 2q9 -3 18 -15q5 -8 -1 -10q-12 1 -29 2q-12 0 -18 -1h-12l4 -4q14 -9 14 -13q0 -2 -3 -4
q-6 -5 -7 -16q-2 -5 -4 -14q-3 -9 -4 -13q27 4 34 7q2 0 4 1q4 3 7 3q10 -5 24 -19q1 -2 1 -3q-1 -1 0 -1q0 -4 -4 -6q-5 -3 -6 -6q-13 -45 -50 -87q-13 -8 -16 -2q36 42 45 94q-1 10 -9 10q-6 0 -27 -3q-4 -1 -8 -1q-36 -85 -86 -106q-5 1 -3 6q43 29 69 96q-40 -6 -46 -9
q-4 -2 -10 -6q-5 -4 -6 -3q-10 4 -13 19q0 4 5 6q16 7 29 42q0 1 1 8q0 6 1 8z" />
    <glyph glyph-name="uni311F" unicode="&#x311f;" 
d="M38 177q0 3 8 3q62 5 74 13q1 0 2 1q3 3 5 3q20 -8 28 -17v-2q0 -2 -1 -3t-4 -3q-7 -5 -6 -8q-6 -89 65 -149q8 -7 9 -8q-3 -18 -27 -9q-63 52 -62 170q-1 11 -8 10q-28 -6 -48 -12q-16 -4 -18 -4q-14 6 -17 15z" />
    <glyph glyph-name="uni3120" unicode="&#x3120;" 
d="M76 95l55 -2q36 47 35 60q2 3 5 3q18 -14 22 -23q-1 -2 -3 -5q-2 -1 -7 -3q-6 -2 -6 -3q-59 -69 -97 -106q23 4 91 21q-2 2 -4 5q-4 9 -6 12q-7 9 -6 13q2 3 9 -1q43 -38 46 -56q-1 -11 -13 -13q-10 0 -13 11l-5 10q-2 5 -3 10q-91 -27 -108 -40q-2 -1 -5 -1q-4 0 -16 23
q-2 3 1 6q1 0 6 2q10 3 14 6q19 16 54 58q-10 -2 -17 -2q-24 -2 -43 -9q-9 3 -15 23q0 4 6 5q10 3 16 9q53 53 53 83q0 1 4 6q14 -7 23 -19q1 -4 -1 -5q-3 -3 -7 -5h-1q-3 -3 -5 -6q-39 -48 -59 -66q-3 -1 0 -1z" />
    <glyph glyph-name="uni3121" unicode="&#x3121;" 
d="M56 181h12q63 0 89 15q3 2 5 3q26 -14 26 -22q-1 -4 -4 -5q-1 -1 -3 -2q-1 -1 -2 -3q-11 -41 -30 -76q59 -61 60 -81q-3 -10 -11 -11q-9 0 -19 13v2q-19 30 -41 58q-27 -40 -66 -68q-1 -1 -2 -1q-16 -8 -21 -6q-3 3 0 3q43 28 77 87q-29 33 -49 54q-6 5 -6 8q1 5 7 3
q25 -18 57 -47q12 24 20 55q5 17 -14 13h-1q-57 -12 -70 -13q-11 4 -17 15q-3 5 3 6z" />
    <glyph glyph-name="uni3122" unicode="&#x3122;" 
d="M96 168h-1q-8 -2 -18 7q-11 12 -3 14h33q35 0 62 11q1 1 2 1q17 -5 30 -21q2 -4 -2 -7q-6 -3 -8 -5q-4 -5 -12 -19q-11 -18 -16 -25q-8 -5 -11 0q15 31 19 52l-1 1q-2 6 -3 5q-19 0 -54 -11q-5 -1 -9 -2q13 -14 14 -22q0 -4 -5 -8l-6 -6q-5 -8 -16 -22t-13 -18
q-1 -2 -3 -4q-3 -3 -3 -4q58 5 92 13q2 0 8 4q5 3 7 3q21 -11 28 -22v-2q1 0 -1 -2t-6 -4q-4 -3 -5 -5q-24 -53 -45 -74q-4 -4 -7 -3q-4 3 -2 7q21 36 28 66v3q5 14 -2 14q-63 -10 -82 -12q-6 -2 -14 -5l-4 -1q-10 1 -18 19q-1 2 5 5q3 1 5 3q34 40 37 76z" />
    <glyph glyph-name="uni3123" unicode="&#x3123;" 
d="M58 198q-2 1 3 4q17 -5 30 -15q2 -2 2 -4v-1q0 -2 -4 -6q-4 -3 -4 -5q-3 -6 -8 -60q-1 -11 -1 -14q3 0 11 1q77 8 85 14q1 0 3 2q4 3 7 3q14 -8 26 -19q1 -4 0 -7q-1 -1 -4 -3q-4 -3 -5 -4q-23 -82 -37 -93q-8 -3 -7 2q18 51 20 87q1 12 -11 11q-61 -2 -89 -13l-2 -2
q-2 -2 -4 -2q-12 2 -22 18q0 2 4 6q5 6 7 10v4q6 40 5 62q-1 4 -4 19q-1 4 -1 5z" />
    <glyph glyph-name="uni3124" unicode="&#x3124;" 
d="M139 83v-51q-2 -23 23 -20q15 0 30 5q6 2 9 2q12 -3 17 -15q-2 -7 -36 -8h-34q-26 1 -26 22v63q0 10 -5 21v3q-16 -79 -72 -114q-4 -1 -6 1t0 5q51 41 62 119q-18 -4 -38 -10l-3 -1q-7 1 -15 8q-6 6 -3 10q35 3 61 8q1 19 2 42l-3 18q-1 3 -1 5q0 4 3 5q1 -1 3 -1
q27 -7 25 -13q-1 -2 -3 -4q-3 -3 -3 -5q0 -9 -1 -20q-1 -9 -3 -24q23 4 46 10q7 2 9 2q13 -4 18 -16q2 -7 -13 -6q-24 1 -62 -5q0 -1 -1 -4v-4q23 -4 28 -11q0 -4 -4 -8t-4 -9z" />
    <glyph glyph-name="uni3125" unicode="&#x3125;" 
d="M152 194q-1 4 6 4q10 -7 25 -23q2 -4 -1 -7q-4 -1 -7 -4q-39 -63 -100 -146q52 1 102 8q5 1 6 1q28 -11 20 -27h-3q-32 7 -62 6q-55 -2 -66 -9q-3 -2 -4 -3q-5 -3 -7 0q-9 12 -11 21q-1 4 1 5q1 1 4 2q3 2 6 5q56 62 91 150v17z" />
    <glyph glyph-name="uni3126" unicode="&#x3126;" 
d="M79 169q-2 4 2 6q25 -7 29 -15v-3q-1 -2 -3 -5q-2 -2 -2 -3q4 -116 -60 -160q-4 -2 -7 1q-2 2 1 4q50 45 48 139q-1 19 -7 31q-1 3 -1 5zM153 158v-92q0 -49 38 -51q3 0 7 1q2 1 3 1q10 -2 18 -13q0 -9 -18 -10q-63 3 -64 72v99q-1 10 -6 19q-1 4 -1 6q-1 4 4 5
q17 -5 27 -17q0 -4 -1 -5q-7 -8 -7 -15z" />
    <glyph glyph-name="uni3127" unicode="&#x3127;" 
d="M137 175v-127v-14v-21q-1 -23 -10 -24q-8 7 -14 30q0 1 2 4q4 6 4 12v22q2 35 2 62v49q-2 19 -7 29q-1 5 -1 7q1 4 4 5q18 -6 26 -18v-2v-2q-6 -7 -6 -12z" />
    <glyph glyph-name="uni3128" unicode="&#x3128;" 
d="M48 -7q-4 0 -6 2q-1 2 2 4q45 35 80 87q-33 33 -71 66q-3 2 -2 3q1 2 5 3q32 -20 77 -57q32 54 33 97q-1 4 4 5q10 -5 25 -19q2 -2 0 -7q-1 -2 -3 -3q-4 -4 -5 -8q-12 -36 -39 -77q64 -57 66 -82q-1 -8 -10 -11q-8 -2 -13 5q-18 31 -55 72q-43 -55 -88 -80z" />
    <glyph glyph-name="uni3129" unicode="&#x3129;" 
d="M197 168v-24q1 -51 6 -96q3 -22 3 -25q-1 -19 -6 -25q-2 -2 -4 -2q-11 4 -15 20l-1 1t0 2l-10 -2q-51 -7 -77 -12q-13 -3 -20 -7q-4 -4 -7 -4q-9 3 -16 19q-1 4 3 7q4 2 6 5q16 38 18 123q0 19 -6 31q-1 2 -1 4q-1 6 4 6q28 -10 30 -20q0 -2 -2 -4q-3 -3 -4 -7
q-8 -91 -24 -134q33 0 96 4q6 0 10 1q-1 14 -1 32q1 81 -6 107q-2 7 -11 19q-1 5 3 7q26 -5 35 -13q1 -2 1 -3q0 -2 -2 -5q-3 -4 -2 -5z" />
    <glyph glyph-name="uni3220" unicode="&#x3220;" 
d="M35 210l6 -3q-29 -54 -28 -121q-1 -64 28 -117l-7 -2q-30 48 -29 119q-1 71 30 124zM52 95h153v-8h-153v8zM215 207l6 3q30 -54 30 -123q0 -76 -29 -120l-7 2q27 50 28 118q0 65 -28 120z" />
    <glyph glyph-name="uni3221" unicode="&#x3221;" 
d="M69 157h117v-9h-117v9zM209 29h-160v8h160v-8zM35 210l6 -3q-29 -54 -28 -121q-1 -64 28 -117l-7 -2q-30 48 -29 119q-1 71 30 124zM215 207l6 3q30 -54 30 -123q0 -76 -29 -120l-7 2q27 50 28 118q0 65 -28 120z" />
    <glyph glyph-name="uni3222" unicode="&#x3222;" 
d="M62 167h132v-8h-132v8zM188 90h-118v8h118v-8zM49 29h160v-9h-160v9zM35 210l6 -3q-29 -54 -28 -121q-1 -64 28 -117l-7 -2q-30 48 -29 119q-1 71 30 124zM215 207l6 3q30 -54 30 -123q0 -76 -29 -120l-7 2q27 50 28 118q0 65 -28 120z" />
    <glyph glyph-name="uni3223" unicode="&#x3223;" 
d="M58 169h140v-156h-140v156zM111 162v-38q-1 -49 -24 -77l-7 5q20 26 22 72v38h-36v-142h124v142h-47v-92q-2 -13 15 -12q19 -5 17 35l8 -3v-6q0 -35 -19 -34h-12q-17 1 -18 17v95h-23zM35 210l6 -3q-29 -54 -28 -121q-1 -64 28 -117l-7 -2q-30 48 -29 119q-1 71 30 124z
M215 207l6 3q30 -54 30 -123q0 -76 -29 -120l-7 2q27 50 28 118q0 65 -28 120z" />
    <glyph glyph-name="uni3224" unicode="&#x3224;" 
d="M35 210l6 -3q-29 -54 -28 -121q-1 -64 28 -117l-7 -2q-30 48 -29 119q-1 71 30 124zM215 207l6 3q30 -54 30 -123q0 -76 -29 -120l-7 2q27 50 28 118q0 65 -28 120zM164 98h-44l-18 -78h52zM209 20v-7h-157v7h42l17 78h-41v7h43l12 57h-63v7h128v-7h-56l-12 -57h47
q3 0 4 -5l-10 -80h46z" />
    <glyph glyph-name="uni3225" unicode="&#x3225;" 
d="M207 137v-7h-155v7h71v46h8v-46h76zM62 5l-4 8q25 24 43 77l8 -6q-16 -50 -47 -79zM205 13l-8 -7q-35 35 -52 81l9 3q14 -44 51 -77zM35 210l6 -3q-29 -54 -28 -121q-1 -64 28 -117l-7 -2q-30 48 -29 119q-1 71 30 124zM215 207l6 3q30 -54 30 -123q0 -76 -29 -120l-7 2
q27 50 28 118q0 65 -28 120z" />
    <glyph glyph-name="uni3226" unicode="&#x3226;" 
d="M52 85l-3 8l56 7v78l8 -2v-75l92 12l2 -8l-94 -12v-70q2 -13 12 -14h50q7 -2 14 35l8 -3q-7 -41 -18 -39h-56q-17 1 -18 21v69zM35 210l6 -3q-29 -54 -28 -121q-1 -64 28 -117l-7 -2q-30 48 -29 119q-1 71 30 124zM215 207l6 3q30 -54 30 -123q0 -76 -29 -120l-7 2
q27 50 28 118q0 65 -28 120z" />
    <glyph glyph-name="uni3227" unicode="&#x3227;" 
d="M105 127l8 -3q-10 -74 -48 -115l-7 6q38 40 47 112zM105 169h49v-24q1 -81 58 -132l-5 -8q-63 59 -62 140v17h-40v7zM35 210l6 -3q-29 -54 -28 -121q-1 -64 28 -117l-7 -2q-30 48 -29 119q-1 71 30 124zM215 207l6 3q30 -54 30 -123q0 -76 -29 -120l-7 2q27 50 28 118
q0 65 -28 120z" />
    <glyph glyph-name="uni3228" unicode="&#x3228;" 
d="M69 122v8h55q5 32 8 57l8 -3q-5 -30 -6 -43q-1 -8 -1 -11h33q6 -1 7 -5l-17 -108q-2 -10 20 -10q20 -1 21 13l4 18l8 -1l-3 -20q-4 -17 -29 -17q-33 0 -29 19l16 103h-33q-16 -102 -69 -122l-4 4q50 23 65 118h-54zM35 210l6 -3q-29 -54 -28 -121q-1 -64 28 -117l-7 -2
q-30 48 -29 119q-1 71 30 124zM215 207l6 3q30 -54 30 -123q0 -76 -29 -120l-7 2q27 50 28 118q0 65 -28 120z" />
    <glyph glyph-name="uni3229" unicode="&#x3229;" 
d="M49 103v8h75v83l9 -2v-81h76v-8h-76v-110h-9v110h-75zM35 210l6 -3q-29 -54 -28 -121q-1 -64 28 -117l-7 -2q-30 48 -29 119q-1 71 30 124zM215 207l6 3q30 -54 30 -123q0 -76 -29 -120l-7 2q27 50 28 118q0 65 -28 120z" />
    <glyph glyph-name="uni4E00" unicode="&#x4e00;" 
d="M21 88v9h218v-9h-218z" />
    <glyph glyph-name="uni4E01" unicode="&#x4e01;" 
d="M120 7v165h-105v7h220v-7h-107v-166q5 -21 -48 -18l-1 8q46 -2 41 11z" />
    <glyph glyph-name="uni4E03" unicode="&#x4e03;" 
d="M18 85l-1 8q15 1 43 4q27 3 43 5v86l8 -2v-83q66 6 130 12l2 -9q-23 -2 -132 -12v-80q-1 -14 15 -13h68q13 -1 23 42l8 -4q-10 -49 -31 -44h-68q-24 0 -23 19v79q-12 -2 -22 -2q-41 -4 -63 -6z" />
    <glyph glyph-name="uni4E07" unicode="&#x4e07;" 
d="M21 183h67v19l8 -2v-17h72v17l8 -2v-15h68v-8h-68v-12h-8v12h-72v-12h-8v12h-67v8zM126 51v26h-69v73h146v-73h-69v-26h95v-52q1 -20 -36 -23l-2 8q29 3 29 15v44h-86v-27h-8v27h-82v-65h-8v73h90zM126 118v24h-61v-24h61zM134 142v-24h61v24h-61zM65 85h61v26h-61v-26z
M134 85h61v26h-61v-26zM159 26l7 6l6 -8q8 -7 19 -21l-6 -4q-4 2 -13 12t-13 15zM73 -10l-2 9q46 6 93 17l2 -9q-78 -13 -93 -17z" />
    <glyph glyph-name="uni4E08" unicode="&#x4e08;" 
d="M134 144h-113v8h113v53l9 -3v-50h94v-8h-94q-3 -79 -20 -110q38 -34 107 -44l-2 -9q-72 11 -110 46q-26 -28 -95 -45l-2 8q66 14 91 43q-20 23 -36 68q-1 3 -4 0q-9 -18 -13 -27l-8 4q2 5 8 17q6 10 8 14q9 10 16 -1q12 -41 34 -68q15 31 17 104z" />
    <glyph glyph-name="uni4E09" unicode="&#x4e09;" 
d="M220 169v-8h-189v8h189zM44 83v8h168v-8h-168zM12 5v9h227v-9h-227z" />
    <glyph glyph-name="uni4E0A" unicode="&#x4e0a;" 
d="M119 198l9 -2v-86h90v-8h-90v-101h111v-6h-222v6h102v197z" />
    <glyph glyph-name="uni4E0B" unicode="&#x4e0b;" 
d="M132 175v-193h-8v193h-105v8h218v-8h-105zM212 68l-6 -6l-14 10q-34 27 -54 42l7 7q33 -28 67 -53z" />
    <glyph glyph-name="uni4E0C" unicode="&#x4e0c;" 
d="M90 114v59h-71v9h220v-9h-69v-187h-8v187h-63v-59q1 -100 -72 -128l-4 8q68 25 67 120z" />
    <glyph glyph-name="uni4E0D" unicode="&#x4e0d;" 
d="M235 183v-8h-212v8h212zM137 168l8 -3q-47 -87 -120 -124l-4 7q71 36 116 120zM164 127l6 6q12 -15 37 -43q25 -29 38 -43l-6 -6q-13 15 -38 43q-25 27 -37 43zM137 -18h-9v141l9 -2v-139z" />
    <glyph glyph-name="uni4E0E" unicode="&#x4e0e;" 
d="M50 50h94v73h-44v74l8 -2v-31h45v-8h-45v-26h44v-80h52v17q2 16 2 25h-44v8h45q0 16 1 31q0 2 1 3h-45v8h45q0 6 1 17q0 10 1 17h-64v8h73q-4 -84 -8 -134h29v-9h-231v9h31l-2 30q0 14 -1 38q-2 29 -3 68q24 7 47 16l2 -8q-20 -8 -40 -14q0 -18 2 -38h40v-8h-40v-17
q1 -11 2 -17h40v-8h-40v-21q1 -14 2 -21zM108 110v-48h-8v48h8zM88 28l6 -6q-36 -27 -71 -44l-4 8q36 14 69 42zM159 22l7 6q31 -18 71 -44l-6 -6q-29 21 -72 44z" />
    <glyph glyph-name="uni4E10" unicode="&#x4e10;" 
d="M121 182h-105v8h226v-8h-112v-42h88v-8h-88v-44h93q-2 -26 -7 -59q-1 -5 -1 -9q-1 -40 -61 -40l-2 9q54 -2 55 33q0 8 3 25q2 22 4 33h-160q-3 -22 -3 -24h-9q5 40 12 92h8q-2 -11 -4 -30l-3 -30h66v94z" />
    <glyph glyph-name="uni4E11" unicode="&#x4e11;" 
d="M173 176l-8 3q4 7 9 21l8 -2q-2 -5 -7 -17q-2 -3 -2 -5zM12 174v8h101v-8h-35v-37h26v-148h-84v148h26v37h-34zM54 174v-37h16v37h-16zM122 89v81h96v-81h-96zM130 134h36v29h-36v-29zM174 163v-29h36v29h-36zM46 130h-17v-134h67v134h-18v-52q-1 -9 14 -8v-7
q-23 -2 -22 15v52h-16q3 -54 -19 -76l-6 6q10 12 13 25q4 14 4 45zM130 97h36v29h-36v-29zM210 126h-36v-29h36v29zM216 -20h-29q-16 2 -17 16v82l8 -2v-80q0 -8 9 -9h29q12 1 16 13l7 -4q-7 -15 -23 -16zM149 78l8 -1q-2 -64 -39 -100l-6 6q35 32 37 95zM200 29l-8 2
q3 10 8 30q1 5 3 10l8 -2q-7 -27 -11 -40zM240 13l-8 -1q-1 0 -1 3q-4 22 -5 30l8 2l3 -18q1 -11 3 -16zM90 34v-8h-55v8h55zM226 28l1 -8q-10 -2 -30 -5q-7 -2 -12 -2l-1 8q21 3 42 7z" />
    <glyph glyph-name="uni4E13" unicode="&#x4e13;" 
d="M125 174h-108v8h108v25l8 -2v-23h113v-8h-113v-20h68v-72h-68v-28q41 4 81 7l2 -7q-64 -7 -108 -10q-35 -3 -81 -7l-2 8q51 3 100 9v28h-68v72h68v20zM125 122v25h-60v-25h60zM133 147v-25h60v25h-60zM65 89h60v26h-60v-26zM133 115v-26h60v26h-60zM178 -8v27h-163v7h163
v17l9 -2v-15h61v-7h-61v-27q1 -21 -30 -19l-2 8q26 -1 23 11zM100 -13l-6 -6q-9 15 -17 21l7 6q6 -8 16 -21zM204 74l6 6q13 -14 27 -34l-6 -5q-13 18 -27 33z" />
    <glyph glyph-name="uni4E14" unicode="&#x4e14;" 
d="M65 0v184h124v-184h55v-7h-229v7h50zM74 176v-54h107v54h-107zM181 114h-107v-53h107v53zM181 53h-107v-53h107v53z" />
    <glyph glyph-name="uni4E15" unicode="&#x4e15;" 
d="M28 192h206v-8h-206v8zM135 9h-8v130l8 -2v-128zM16 -10v8h227v-8h-227zM130 177l7 -4q-37 -66 -107 -117l-6 6q70 51 106 115zM152 133l6 6q42 -36 78 -77l-6 -6q-35 39 -78 77z" />
    <glyph glyph-name="uni4E16" unicode="&#x4e16;" 
d="M12 131h47v63l8 -2v-61h57v61l8 -2v-59h55v63l8 -2v-61h49v-8h-49v-82h-71v82h-57v-123h160v-8h-168v131h-47v8zM132 49h55v74h-55v-74z" />
    <glyph glyph-name="uni4E18" unicode="&#x4e18;" 
d="M183 198l4 -8q-50 -23 -116 -25v-53h152v-8h-61v-108h79v-8h-222v8h43v177q69 1 121 25zM153 104h-82v-108h82v108z" />
    <glyph glyph-name="uni4E19" unicode="&#x4e19;" 
d="M124 135v47h-107v8h227v-8h-112v-47h91v-130q0 -19 -32 -19l-3 8q29 1 26 11v122h-82v-14q2 -28 16 -53q15 -27 43 -35l-4 -8q-48 16 -59 77q-11 -47 -61 -83l-5 7q24 16 37 36q23 32 25 65v8h-82v-143h-9v151h91z" />
    <glyph glyph-name="uni4E1A" unicode="&#x4e1a;" 
d="M22 145v8h80v48l8 -2v-46h40v48l8 -2v-46h80v-8h-216zM189 163l-7 5q4 5 16 22q2 3 5 7l7 -5q-12 -19 -21 -29zM79 169l-7 -5q-11 12 -25 25l7 6q5 -6 12 -14q10 -9 13 -12zM33 110v7h134l-6 4q6 10 11 20l8 -4q-5 -10 -11 -20h55v-7h-91v-24h87v-8h-87v-24h108v-7h-108
v-75h-8v75h-105v7h105v24h-86v8h86v24h-92zM79 136l7 5q0 -1 1 -3q9 -11 12 -15l-7 -5q-2 3 -11 14q-2 3 -2 4zM30 -17l-4 8q43 14 80 47l6 -7q-37 -31 -82 -48zM142 31l6 7q36 -29 86 -47l-4 -8q-55 21 -88 48z" />
    <glyph glyph-name="uni4E1B" unicode="&#x4e1b;" 
d="M25 152v6h80v42l8 -2v-40h40v42l9 -2v-40h79v-6h-216zM188 165l-7 5q9 9 23 28l6 -4q-12 -20 -22 -29zM83 169l-6 -5q-11 13 -25 26l6 5q12 -11 25 -26zM85 144l6 4q6 -8 11 -16l-7 -4q-2 2 -5 8q-4 5 -5 8zM61 47h59v19h-59v-19zM61 41v-19h59v19h-59zM129 72v21h-87v7
h87v21h-93v6h191v-6h-91v-21h87v-7h-87v-21h108v-6h-117v-88h-7v14q-45 -6 -84 -14l-5 7q43 8 89 15v16h-59v-17h-8v67h-30v6h106zM225 47h-80v6h86l3 -6q-18 -26 -36 -39q21 -12 48 -20l-3 -6q-25 7 -51 21q-29 -13 -49 -19l-3 7q26 8 46 17q-8 6 -23 27q-2 2 -2 3l6 4
q10 -18 26 -29q19 15 32 34zM176 149l7 -4q-5 -8 -11 -17l-6 5q6 8 10 16z" />
    <glyph glyph-name="uni4E1C" unicode="&#x4e1c;" 
d="M121 167h-102v8h102v32l9 -2v-30h111v-8h-111v-28h78v-83h-78v-78h-9v78h-77v83h77v28zM121 104v27h-68v-27h68zM130 104h69v27h-69v-27zM121 96h-68v-32h68v32zM130 64h69v32h-69v-32zM101 45l6 -6q-34 -38 -88 -53l-4 8q51 12 86 51zM145 39l6 6q35 -38 84 -55l-4 -8
q-53 21 -86 57z" />
    <glyph glyph-name="uni4E1D" unicode="&#x4e1d;" 
d="M206 60l8 2q8 -38 25 -70l-8 -4q-15 27 -25 72zM68 209l8 -4q-11 -22 -28 -53q9 -7 19 -14q11 15 26 36l7 -6q-20 -24 -57 -76l-7 6l12 16t13 17q-19 15 -43 29l5 7q5 -4 11 -7l6 -3q8 12 28 52zM117 78l-8 -3q-8 19 -17 42l8 3q7 -15 17 -42zM31 64l9 -2q-8 -41 -17 -74
l-8 3q9 32 16 73zM91 61l9 1q5 -33 7 -60l-9 -1q-2 27 -7 60zM19 79l-2 9q29 4 73 12l2 -8q-3 -1 -7 -2q-8 -2 -16 -2v-110h-9v108q-22 -3 -41 -7zM187 209l8 -4q-17 -37 -30 -61q16 -9 23 -13q12 17 34 53l7 -5q-11 -16 -39 -61q-9 -15 -13 -21l-8 4q4 6 7 10q5 8 8 12
q-29 17 -59 33l5 8q20 -12 27 -15q12 20 30 60zM244 78l-9 -3q-3 9 -6 21q-9 -2 -28 -5q-11 -2 -18 -3v-113h-9v112q-11 -3 -20 -4q-14 -2 -20 -3l-2 9q6 0 21 3q52 7 73 11q-2 6 -6 15l9 3q3 -8 9 -26q3 -12 6 -17zM150 61l7 -3q-18 -47 -34 -70l-7 5q18 27 34 68z" />
    <glyph glyph-name="uni4E1E" unicode="&#x4e1e;" 
d="M52 186v8h137q7 -1 8 -3q1 -3 -4 -7q-9 -7 -30 -22q-21 -16 -29 -22q-4 -3 -1 -7q3 -9 6 -27q3 -19 4 -40q3 -56 -38 -48l-2 8q35 -10 31 40q0 42 -10 69q-4 6 4 10q19 14 50 37q1 1 0 2q0 1 -2 2h-124zM218 143l5 -7q-15 -13 -42 -28l-4 7q19 9 41 28zM90 129h-61v8h67
q11 0 7 -12q-23 -58 -81 -86l-4 8q51 23 76 77q1 2 0 3q-1 2 -4 2zM145 131l8 2q21 -55 86 -88l-4 -8q-68 36 -90 94zM17 -10v8h222v-8h-222z" />
    <glyph glyph-name="uni4E22" unicode="&#x4e22;" 
d="M204 206l2 -9q-30 -8 -71 -12t-83 -3v8q71 -2 152 16zM124 131h-86v8h86v40l9 -2v-38h81v-8h-81v-50h115v-9h-231v9h107v50zM84 7l-7 6q25 26 42 51l7 -5q-15 -21 -42 -52zM188 38l6 6q25 -31 48 -59l-6 -6q-8 11 -25 29q-12 14 -23 30zM200 9l1 -8q-36 -1 -99 -4
q-53 -3 -76 -5l-2 8q143 6 176 9z" />
    <glyph glyph-name="uni4E24" unicode="&#x4e24;" 
d="M29 -16v158h98v40h-102v8h212v-8h-102v-40h98v-142q2 -18 -33 -16l-1 8q27 -1 26 8v133h-90v-153h-8v153h-89v-149h-9zM180 91h-25v9h32q7 -48 25 -73l-7 -5q-20 30 -25 69zM86 89h-27v8h35q0 -47 20 -75l-8 -5q-18 29 -20 72zM60 22l-8 4q9 12 24 40l7 -4
q-10 -21 -23 -40zM156 23l-7 5q11 15 25 42l8 -4q-8 -17 -26 -43z" />
    <glyph glyph-name="uni4E25" unicode="&#x4e25;" 
d="M115 198v-42h-77v42h77zM223 198v-42h-80v42h80zM46 191v-27h61v27h-61zM151 191v-27h64v27h-64zM33 87v55h206v-8h-198v-47q-1 -62 -18 -108l-8 3q18 44 18 105zM172 122l7 -4q-15 -33 -39 -61l-6 5q21 26 38 60zM50 82v7h38v22h-32v7h74v-7h-35v-22h43v-7h-20v-103h-7
v48h-39v-27h-8v82h-14zM212 86l8 -2q-9 -40 -27 -66q18 -18 50 -34l-4 -7q-29 15 -52 35q-26 -19 -50 -32l-3 8q31 15 48 31q-16 24 -20 52l7 3q6 -28 19 -49q18 28 24 61zM72 61h39v21h-39v-21zM111 55h-39v-21h39v21zM48 -14l-2 8q23 5 61 10l2 -6q-27 -4 -61 -12zM176 90
v6h65v-6h-65z" />
    <glyph glyph-name="uni4E27" unicode="&#x4e27;" 
d="M122 158h-95v9h95v35l8 -4v-31h103v-9h-103v-86h109v-8h-157v-65q12 1 46 12l3 -8q-28 -6 -87 -23q-7 -3 -10 -4l-3 8q4 2 42 13v67h-54v8h103v86zM157 97v42h55v-42h-55zM204 131h-38v-26h38v26zM121 54l7 6q43 -57 111 -74l-3 -8q-70 19 -115 76zM183 16l-7 6
q23 15 39 30l5 -7q-12 -11 -35 -28zM39 97v42h55v-42h-55zM86 131h-38v-26h38v26z" />
    <glyph glyph-name="uni4E28" unicode="&#x4e28;" 
d="M124 196l8 -2v-212h-8v214z" />
    <glyph glyph-name="uni4E2A" unicode="&#x4e2a;" 
d="M73 194l8 -5q-23 -45 -60 -79l-6 6q38 36 58 78zM237 186v-204h-136v204h136zM228 -10v187h-119v-187h119zM126 131h40v32l8 -2v-30h38v-8h-38v-36h26v-65h-62v65h28v36h-40v8zM61 -22h-9v159l9 -2v-157zM191 79h-44v-49h44v49z" />
    <glyph glyph-name="uni4E2B" unicode="&#x4e2b;" 
d="M212 184l6 -6q-36 -33 -78 -66l-6 6q42 33 78 66zM39 173l5 6q31 -22 80 -61l-6 -6q-38 31 -79 61zM134 -20h-9v130l9 -2v-128z" />
    <glyph glyph-name="uni4E2C" unicode="&#x4e2c;" 
d="M90 142h55v58l9 -2v-223h-9v97h-44q0 -65 -29 -95l-7 5q29 30 27 90h-29v9h82v52h-64v61l9 -2v-50z" />
    <glyph glyph-name="uni4E2D" unicode="&#x4e2d;" 
d="M35 141h93v64l8 -3v-61h93v-90h-93v-76h-8v76h-93v90zM44 60h84v73h-84v-73zM136 133v-73h84v73h-84z" />
    <glyph glyph-name="uni4E30" unicode="&#x4e30;" 
d="M151 162h26v15h-26v7h26v23l8 -2v-21h27v-7h-27v-15h25v-7h-25v-16h27v-6h-27v-21h42v88l8 -2v-92h-206v94l8 -2v-86h45v21h-27v7h27v16h-23v7h23v14h-23v7h23v23l8 -2v-21h23v-7h-23v-14h21v-7h-21v-16h23v-7h-23v-21h38v90l8 -2v-88h41v21h-30v6h30v16h-26v7zM15 78v7
h231v-7h-231zM52 22v36h160v-36h-160zM61 51v-23h143v23h-143zM82 11l7 5q3 -7 8 -13q4 -4 6 -7l-7 -4q-3 4 -9 10q-4 5 -5 9zM160 -10l-7 5q9 7 17 21l7 -5q-6 -8 -17 -21zM248 -16v-7h-236v7h236z" />
    <glyph glyph-name="uni4E32" unicode="&#x4e32;" 
d="M128 82v30h-76v57h76v33l9 -2v-31h75v-57h-75v-30h90v-58h-90v-46h-9v46h-90v58h90zM128 161h-67v-40h67v40zM204 121v40h-67v-40h67zM128 74h-82v-42h82v42zM218 74h-81v-42h81v42z" />
    <glyph glyph-name="uni4E34" unicode="&#x4e34;" 
d="M143 202l8 -4q-21 -32 -37 -52l-8 6q17 18 37 50zM67 -8h30v-8h-76v204h84v-9h-38v-54h32v-72h-32v-61zM29 179v-54h29v54h-29zM214 83h-80v60h80v-60zM143 135v-44h63v44h-63zM29 61h61v56h-61v-56zM178 59h55v-75h-55v75zM58 -8v61h-29v-61h29zM225 51h-38v-59h38v59z
M111 59h55v-75h-55v75zM157 51h-37v-59h37v59zM140 177h93v-8h-93v8z" />
    <glyph glyph-name="uni4E36" unicode="&#x4e36;" 
d="M87 126l5 7q42 -29 80 -60l-5 -7q-40 33 -80 60z" />
    <glyph glyph-name="uni4E38" unicode="&#x4e38;" 
d="M41 154h67q1 24 2 44l9 -2q-1 -18 -2 -42h53q10 0 9 -11q-2 -41 -4 -73q-2 -33 -3 -66q-1 -8 10 -8h34q12 0 16 28l9 -2q-8 -36 -25 -34h-36q-15 2 -17 14q1 29 3 62q2 31 4 77q0 5 -5 5h-49q-3 -35 -12 -67l32 -24l-5 -7q-6 4 -18 14q-6 4 -11 9q-22 -60 -72 -84l-4 8
q46 22 68 80q-17 12 -33 23l5 7q15 -9 31 -21q6 30 10 62h-66v8z" />
    <glyph glyph-name="uni4E39" unicode="&#x4e39;" 
d="M21 85v8h42v99h141v-99h40v-8h-40v-86q3 -19 -32 -19l-2 8q27 1 25 11v86h-124q-4 -57 -34 -100l-7 5q27 35 33 95h-42zM71 184v-91h124v91h-124zM111 156l7 6q7 -9 22 -28q9 -12 14 -16l-7 -6q-17 22 -36 44z" />
    <glyph glyph-name="uni4E3A" unicode="&#x4e3a;" 
d="M208 201l2 -8q-31 -7 -61 -9t-91 -1l-2 8q105 -2 152 10zM21 135l-5 6q20 17 40 38l6 -5q-18 -21 -41 -39zM187 174l6 5q21 -21 44 -46l-6 -6q-20 24 -44 47zM129 152l-7 -4q-6 11 -15 23l7 4q9 -11 15 -23zM46 98v40h147q0 -7 -1 -18q-2 -12 -1 -18h20q-4 -23 -5 -38h34
q-4 -41 -10 -64q-2 -23 -33 -20l-2 8q26 -5 27 13q5 23 9 56h-181q-9 -44 -30 -72l-7 4q33 50 33 109zM54 131v-29h129q0 14 1 26q0 2 1 3h-131zM51 64h146q0 4 1 9q1 11 3 22h-147q0 -17 -3 -31zM202 7l-7 -4q-8 14 -16 29l7 4q7 -12 16 -29zM139 26l7 4q7 -12 12 -22
q3 -6 7 -10l-7 -4q-8 14 -13 21q-3 5 -6 11zM58 -14l-7 4q12 16 23 35l7 -4q-7 -15 -23 -35zM122 -7l-7 -4q-7 15 -17 33l7 4q7 -12 15 -29z" />
    <glyph glyph-name="uni4E3B" unicode="&#x4e3b;" 
d="M126 148h-95v8h206v-8h-102v-67h87v-9h-87v-73h111v-9h-231v9h111v73h-84v9h84v67zM115 195l6 6q9 -9 24 -28l-6 -6q-6 7 -21 24q-2 2 -3 4z" />
    <glyph glyph-name="uni4E3D" unicode="&#x4e3d;" 
d="M121 196v-7h-92v7h92zM146 196h93v-7h-93v7zM107 135v32h-62v-34h-8v40h78v-38h-8zM160 167v-32h-7v38h75v-38h-8v32h-60zM71 129v23h8v-23h-8zM194 129h-8v23h8v-23zM35 118h93v19l8 -2v-17h105v-6h-198q-1 -85 -25 -128l-7 3q25 44 24 131zM104 104l8 -2v-19h43v21
l8 -2v-19h52v-38h-157v7h46v25h-46v6h46v21zM155 77h-43v-25h43v25zM207 77h-44v-25h44v25zM56 -20l-2 8l36 4v47l7 -2v-15h37v-6h-37v-23q6 1 18 2t19 1l2 -7q-8 0 -22 -2q-36 -3 -58 -7zM218 -20h-44q-16 0 -15 15v42l8 -2v-39q0 -8 9 -9h40q9 -1 18 18l6 -5
q-11 -23 -22 -20zM174 9l-3 7q28 4 56 11l2 -7q-22 -7 -55 -11z" />
    <glyph glyph-name="uni4E3E" unicode="&#x4e3e;" 
d="M90 206l2 -7q-20 -8 -47 -13q0 -5 1 -14q0 -10 1 -14h48v-6h-48q2 -16 2 -27h43v-7h-42q1 -14 2 -27h57v36l9 -2v-34h23q3 28 6 57h-38v54l9 -2v-14h33v-7h-33v-24h38q-5 -44 -6 -64h56v13q1 9 2 14h-40v7h40q0 4 1 13q0 9 1 14h-40v6h41q-1 10 1 23q0 2 1 4h-45v7h54
q-1 -3 -1 -8q-4 -43 -7 -93h34v-7h-238v7h34q-1 16 -4 51q-4 34 -4 51q25 2 54 13zM167 72l6 6q23 -22 70 -48l-4 -6q-39 20 -72 48zM29 7v7h96v22h-58v7h58v21l9 -2v-19h51v-7h-51v-22h95v-7h-95v-27h-9v27h-96zM83 79l5 -6q-33 -35 -78 -57l-2 8q38 19 75 55z" />
    <glyph glyph-name="uni4E3F" unicode="&#x4e3f;" 
d="M129 74v118l9 -2v-116q-1 -56 -34 -92l-7 5q31 34 32 87z" />
    <glyph glyph-name="uni4E43" unicode="&#x4e43;" 
d="M42 177v8h159q4 0 5 -2t-1 -6q-5 -9 -11 -25q-11 -22 -16 -34h53q9 0 8 -8q-6 -53 -11 -76q-8 -34 -20 -42q-10 -9 -46 -10l-2 8q33 1 41 8q9 5 17 37q5 18 7 35q3 16 4 40h-54q-11 0 -7 9q12 24 28 58h-154zM109 173l9 -2q-16 -115 -80 -175l-7 5q65 62 78 172z" />
    <glyph glyph-name="uni4E45" unicode="&#x4e45;" 
d="M101 195l9 -2q-14 -67 -55 -104l-7 5q42 40 53 101zM161 152h-54v8h65q5 0 4 -6q-30 -119 -147 -168l-2 8q109 48 138 153q1 5 -4 5zM143 68l8 4q21 -55 80 -80l-4 -8q-61 28 -84 84z" />
    <glyph glyph-name="uni4E47" unicode="&#x4e47;" 
d="M189 198l3 -8q-9 -2 -31 -6q-33 -5 -47 -7v-77q15 2 102 18l3 -8q-27 -6 -82 -15q-16 -3 -23 -4v-90q-1 -11 15 -11h71q21 -2 25 34l8 -3q-4 -41 -33 -39h-71q-24 1 -24 19v89q-14 -3 -41 -7q-28 -4 -41 -6l-2 8q23 3 46 7l38 6v78q-23 -4 -45 -7q-18 -2 -25 -3l-3 9
q92 10 157 23z" />
    <glyph glyph-name="uni4E48" unicode="&#x4e48;" 
d="M25 118v66h99v27l9 -2v-25h111v-8h-210v-58q-1 -64 -21 -130l-8 2q19 62 20 128zM57 136h34v27l9 -2v-25h33v-7h-33v-67h-9v67h-34v7zM182 136v25l8 -3v-22h43v-7h-43v-61h-8v61h-38v7h38zM234 66h-11q-13 -1 -12 15v37l8 -2v-35q-1 -9 4 -8h10q7 -1 10 15l8 -2
q-5 -22 -17 -20zM130 81l-7 -2q-5 17 -9 27q-2 5 -2 8l8 2q5 -17 10 -35zM62 67l-7 3q8 23 13 46l8 -2q-6 -24 -14 -47zM154 66l-7 4q10 21 16 46l8 -2q-7 -25 -17 -48zM119 61l5 -5q-16 -17 -34 -34q3 -4 9 -11q5 -6 11 -11q23 23 52 57l6 -6q-11 -12 -28 -31l-27 -27l28 2
q37 2 57 4l1 -9q-91 -5 -148 -10l-2 8q36 4 57 4q-10 8 -28 30l-12 15l6 5q1 -2 4 -6q6 -6 9 -8l17 17q11 10 17 16zM177 26l6 6q31 -31 51 -55l-6 -6q-29 32 -51 55z" />
    <glyph glyph-name="uni4E49" unicode="&#x4e49;" 
d="M24 168v6h212v-6h-105v-23h76v-7h-76v-23h111v-6h-224v6h104v23h-81v7h81v23h-98zM110 95l2 -8q-32 -5 -77 -8l-1 9q16 0 36 2q22 2 40 5zM228 82l-5 -7q-11 6 -23 12l5 7q3 -2 5 -3q11 -6 18 -9zM83 78v-18h72q-2 22 -2 37l8 -2q0 -6 1 -18t2 -17h78v-7h-76
q5 -23 12 -35q15 9 29 20l5 -6q-11 -10 -29 -22q10 -10 30 -20q8 -3 12 3q4 7 11 17l7 -3l-12 -21q-6 -11 -22 -4q-17 7 -34 24q-29 -13 -56 -22l-5 8q36 8 56 21q-8 15 -13 40h-74v-25q3 0 14 3q17 3 25 5l2 -8q-30 -8 -41 -9v-24q0 -16 -30 -18l-2 9q22 1 23 9v22
q-8 -2 -38 -8q-10 -2 -12 -2l-2 8q5 0 26 5q20 5 26 6v27h-62v7h62v19zM97 188l-6 -6q-9 8 -20 16l6 7q10 -8 20 -17zM165 181l-7 6q10 9 19 20l7 -5q-9 -10 -19 -20q0 -4 0 -1z" />
    <glyph glyph-name="uni4E4B" unicode="&#x4e4b;" 
d="M38 133v9h86v58l8 -2v-56h66q10 -3 6 -11q-44 -58 -127 -102q16 -27 56 -30q39 -6 117 6l2 -6q-47 -8 -78 -10t-53 3q-44 8 -59 48q-24 -37 -39 -54l-6 6q22 24 40 58q2 4 6 4q3 0 5 -4v-2q3 -9 5 -11q72 37 122 96h-157z" />
    <glyph glyph-name="uni4E4C" unicode="&#x4e4c;" 
d="M122 207l7 -5q-7 -11 -14 -19l-7 4q11 13 14 20zM53 46v133h145v-56h-136v-31h172v-7h-172v-32h151q14 -1 12 -13q-6 -44 -15 -54q-8 -12 -36 -10l-3 9q26 -3 32 7q8 7 13 47q1 7 -6 7h-157zM190 131v41h-128v-41h128zM159 26l8 4q3 -6 10 -16q3 -5 6 -8l-7 -5
q-8 12 -17 25zM136 -5l-7 -3q-5 10 -14 29l8 4q6 -12 13 -30zM89 -17l-9 -2q-3 18 -8 35l8 3q6 -19 9 -36zM27 -23l-8 3q9 20 16 39l8 -3q-6 -17 -16 -39z" />
    <glyph glyph-name="uni4E4D" unicode="&#x4e4d;" 
d="M88 201l9 -3q-26 -65 -72 -94l-5 7q47 31 68 90zM78 156h155v-8h-105v-49h92v-8h-92v-49h95v-8h-95v-59h-9v173h-41v8z" />
    <glyph glyph-name="uni4E4E" unicode="&#x4e4e;" 
d="M207 200l3 -8q-69 -18 -166 -15l-2 9q92 -3 165 14zM172 94l-8 4q19 28 35 60l8 -4q-16 -32 -35 -60zM56 150l7 4q13 -21 31 -52l-8 -5q-14 25 -30 53zM134 166v-83h107v-9h-107v-74q2 -23 -46 -21l-2 8q41 0 40 13v74h-114v9h114v86z" />
    <glyph glyph-name="uni4E4F" unicode="&#x4e4f;" 
d="M212 192l4 -8q-69 -26 -183 -22l-2 9q49 -3 96 3q47 5 85 18zM36 118h86v43l8 -3v-40h68q6 0 8 -3q2 -2 -1 -6q-48 -69 -133 -94q8 -25 43 -25q88 -1 120 7l2 -9q-57 -8 -122 -6q-45 0 -53 37q-1 2 -3 3q-1 0 -2 -2t-23 -29l-7 5q23 29 30 38q6 6 9 0q0 -2 2 -6
q1 -4 2 -5q76 24 122 82q1 3 1 4q-1 1 -4 1h-153v8z" />
    </font>
</defs>
</svg>
